SplineFontDB: 3.0
FontName: Habibi-Regular
FullName: Habibi
FamilyName: Habibi
Weight: Book
Copyright: Copyright (c) 2011, Sorkin Type Co (www.sorkintype.com)\nwith Reserved Font Name "Habibi".
Version: 1.001
ItalicAngle: 0
UnderlinePosition: -112
UnderlineWidth: 107
Ascent: 1638
Descent: 410
LayerCount: 2
Layer: 0 1 "Back"  1
Layer: 1 1 "Fore"  0
XUID: [1021 631 1661839179 10228247]
FSType: 0
OS2Version: 3
OS2_WeightWidthSlopeOnly: 0
OS2_UseTypoMetrics: 1
CreationTime: 1323759840
ModificationTime: 1323746021
PfmFamily: 17
TTFWeight: 400
TTFWidth: 5
LineGap: 0
VLineGap: 0
Panose: 2 0 0 0 0 0 0 0 0 0
OS2TypoAscent: 362
OS2TypoAOffset: 1
OS2TypoDescent: -150
OS2TypoDOffset: 1
OS2TypoLinegap: 0
OS2WinAscent: 0
OS2WinAOffset: 1
OS2WinDescent: 0
OS2WinDOffset: 1
HheadAscent: 0
HheadAOffset: 1
HheadDescent: 0
HheadDOffset: 1
OS2SubXSize: 1434
OS2SubYSize: 1331
OS2SubXOff: 0
OS2SubYOff: 287
OS2SupXSize: 1434
OS2SupYSize: 1331
OS2SupXOff: 0
OS2SupYOff: 977
OS2StrikeYSize: 130
OS2StrikeYPos: 595
OS2Vendor: 'STC '
OS2CodePages: 20000093.00000000
OS2UnicodeRanges: a00000af.4000204a.00000000.00000000
Lookup: 4 0 1 "'liga' Standard Ligatures in Latin lookup 0"  {"'liga' Standard Ligatures in Latin lookup 0 subtable"  } ['liga' ('latn' <'dflt' > ) ]
Lookup: 3 0 0 "'ornm' Ornaments in Latin lookup 1"  {"'ornm' Ornaments in Latin lookup 1 subtable"  } ['ornm' ('latn' <'dflt' > ) ]
Lookup: 4 0 0 "'dlig' Discretionary Ligatures in Latin lookup 2"  {"'dlig' Discretionary Ligatures in Latin lookup 2 subtable"  } ['dlig' ('latn' <'dflt' > ) ]
Lookup: 4 0 0 "'ss01' Style Set 1 in Latin lookup 3"  {"'ss01' Style Set 1 in Latin lookup 3 subtable"  } ['ss01' ('latn' <'dflt' > ) ]
Lookup: 1 0 0 "'ss01' Style Set 1 in Latin lookup 4"  {"'ss01' Style Set 1 in Latin lookup 4 subtable"  } ['ss01' ('latn' <'dflt' > ) ]
Lookup: 1 0 0 "'onum' Oldstyle Figures in Latin lookup 5"  {"'onum' Oldstyle Figures in Latin lookup 5 subtable" ("oldstyle" ) } ['onum' ('latn' <'dflt' > ) ]

StartChar: exclam
Encoding: 33 33 4
Width: 512
Flags: HW
LayerCount: 2
Fore
SplineSet
243 1601 m 256,0,1
 284 1601 284 1601 338 1592 c 1,2,3
 338 1184.09 338 1184.09 325.5 1004.55 c 0,4,5
 291.586 519.308 291.586 519.308 288 389 c 1,6,-1
 210 389 l 1,7,8
 201.677 570.441 201.677 570.441 191.839 705.721 c 2,9,-1
 176 924.5 l 2,10,11
 156 1202.83 156 1202.83 156 1592 c 1,12,13
 197.4 1601 197.4 1601 243 1601 c 256,0,1
141 60.5 m 128,-1,15
 127 83 127 83 127 102 c 128,-1,16
 127 121 127 121 139.5 143.5 c 128,-1,17
 152 166 152 166 171.5 186 c 0,18,19
 217.325 233 217.325 233 255 233 c 256,20,21
 295 233 295 233 327.5 200.5 c 0,22,23
 385 143 385 143 385 103 c 256,24,25
 385 65.3333 385 65.3333 352.5 33.6667 c 0,26,27
 294.342 -23 294.342 -23 255 -23 c 0,28,29
 220.946 -23 220.946 -23 187.973 7.5 c 128,-1,14
 155 38 155 38 141 60.5 c 128,-1,15
EndSplineSet
EndChar

StartChar: quotedbl
Encoding: 34 34 5
Width: 853
Flags: HW
LayerCount: 2
Fore
SplineSet
341 1508 m 1,0,-1
 312 1107 l 1,1,-1
 202 1107 l 1,2,-1
 172 1508 l 1,3,-1
 341 1508 l 1,0,-1
681 1508 m 1,4,-1
 652 1107 l 1,5,-1
 542 1107 l 1,6,-1
 512 1508 l 1,7,-1
 681 1508 l 1,4,-1
EndSplineSet
EndChar

StartChar: numbersign
Encoding: 35 35 6
Width: 1540
Flags: HW
LayerCount: 2
Fore
SplineSet
906 483 m 1,0,-1
 493 483 l 1,1,-1
 390 -23 l 1,2,-1
 275 0 l 1,3,-1
 374 483 l 1,4,-1
 126 483 l 1,5,-1
 126 589 l 1,6,-1
 394 589 l 1,7,-1
 470 953 l 1,8,-1
 196 953 l 1,9,-1
 196 1060 l 1,10,-1
 491 1060 l 1,11,-1
 587 1531 l 1,12,-1
 704 1508 l 1,13,-1
 612 1060 l 1,14,-1
 1023 1060 l 1,15,-1
 1120 1531 l 1,16,-1
 1236 1508 l 1,17,-1
 1144 1060 l 1,18,-1
 1414 1060 l 1,19,-1
 1414 953 l 1,20,-1
 1122 953 l 1,21,-1
 1047 589 l 1,22,-1
 1344 589 l 1,23,-1
 1344 483 l 1,24,-1
 1026 483 l 1,25,-1
 922 -23 l 1,26,-1
 807 0 l 1,27,-1
 906 483 l 1,0,-1
515 589 m 1,28,-1
 927 589 l 1,29,-1
 1003 953 l 1,30,-1
 590 953 l 1,31,-1
 515 589 l 1,28,-1
EndSplineSet
EndChar

StartChar: dollar
Encoding: 36 36 7
Width: 1196
Flags: HW
LayerCount: 2
Fore
SplineSet
676 1519 m 1,0,1
 861.087 1498.43 861.087 1498.43 987 1404 c 1,2,-1
 952 1140 l 1,3,-1
 867 1140 l 1,4,5
 867 1278.98 867 1278.98 813 1339.5 c 0,6,7
 755.446 1404 755.446 1404 617 1404 c 0,8,9
 427 1404 427 1404 362.5 1282.5 c 0,10,11
 341 1242 341 1242 341 1198.5 c 128,-1,12
 341 1155 341 1155 346.5 1128.5 c 128,-1,13
 352 1102 352 1102 367.5 1077.5 c 128,-1,14
 383 1053 383 1053 409 1029 c 128,-1,15
 435 1005 435 1005 476.5 977.5 c 0,16,17
 549.013 929.449 549.013 929.449 689.006 859.225 c 128,-1,18
 829 789 829 789 903.5 734.5 c 128,-1,19
 978 680 978 680 1021.5 625.5 c 0,20,21
 1098 529.655 1098 529.655 1098 393 c 0,22,23
 1098 167 1098 167 856 46 c 0,24,25
 757.892 -3.05405 757.892 -3.05405 649 -18 c 1,26,-1
 649 -182 l 1,27,-1
 544 -182 l 1,28,-1
 544 -21 l 1,29,30
 362.34 -10.7174 362.34 -10.7174 215 72 c 1,31,32
 147 108 147 108 97 153 c 1,33,-1
 139 438 l 1,34,-1
 226 438 l 1,35,36
 226 94 226 94 575 94 c 0,37,38
 716.522 94 716.522 94 811.5 165.5 c 0,39,40
 907 237.393 907 237.393 907 344 c 0,41,42
 907 447.784 907 447.784 840 517.5 c 0,43,44
 772.489 587.748 772.489 587.748 611.245 667.374 c 128,-1,45
 450 747 450 747 367 802 c 128,-1,46
 284 857 284 857 236.5 911 c 0,47,48
 153 1005.93 153 1005.93 153 1147 c 0,49,50
 153 1307.4 153 1307.4 277 1414 c 0,51,52
 392.836 1513.58 392.836 1513.58 570 1524 c 1,53,-1
 570 1663 l 1,54,-1
 676 1663 l 1,55,-1
 676 1519 l 1,0,1
EndSplineSet
EndChar

StartChar: percent
Encoding: 37 37 8
Width: 1877
Flags: HW
LayerCount: 2
Fore
SplineSet
1556 1594 m 1,0,-1
 1634 1526 l 1,1,-1
 338 40 l 1,2,-1
 258 108 l 1,3,-1
 1556 1594 l 1,0,-1
177 1226 m 0,4,5
 177 1313 177 1313 206 1388 c 128,-1,6
 235 1463 235 1463 282 1515.5 c 0,7,8
 380.029 1625 380.029 1625 515 1625 c 0,9,10
 667.772 1625 667.772 1625 762.5 1517.5 c 0,11,12
 856 1411.39 856 1411.39 856 1249 c 0,13,14
 856 1069.02 856 1069.02 751 949.5 c 0,15,16
 653.047 838 653.047 838 520 838 c 0,17,18
 368.553 838 368.553 838 272 948.5 c 0,19,20
 177 1057.22 177 1057.22 177 1226 c 0,4,5
326 1363.5 m 128,-1,22
 313 1309 313 1309 313 1246 c 128,-1,23
 313 1183 313 1183 324.5 1124 c 128,-1,24
 336 1065 336 1065 360.5 1019.5 c 0,25,26
 414.615 919 414.615 919 517 919 c 0,27,28
 612.189 919 612.189 919 667 997 c 0,29,30
 720 1072.42 720 1072.42 720 1204 c 0,31,32
 720 1435.59 720 1435.59 613 1514.5 c 0,33,34
 573 1544 573 1544 519 1544 c 128,-1,35
 465 1544 465 1544 427.5 1521 c 128,-1,36
 390 1498 390 1498 364.5 1458 c 128,-1,21
 339 1418 339 1418 326 1363.5 c 128,-1,22
1021 386 m 0,37,38
 1021 473 1021 473 1050 548 c 128,-1,39
 1079 623 1079 623 1126 675.5 c 0,40,41
 1224.03 785 1224.03 785 1359 785 c 0,42,43
 1511.77 785 1511.77 785 1606.5 677.5 c 0,44,45
 1700 571.393 1700 571.393 1700 409 c 0,46,47
 1700 229.021 1700 229.021 1595 109.5 c 0,48,49
 1497.05 -1.99997 1497.05 -1.99997 1364 -2 c 0,50,51
 1212.55 -2 1212.55 -2 1116 108.5 c 0,52,53
 1021 217.222 1021 217.222 1021 386 c 0,37,38
1170 523.5 m 128,-1,55
 1157 469 1157 469 1157 406 c 128,-1,56
 1157 343 1157 343 1168.5 284 c 128,-1,57
 1180 225 1180 225 1204.5 179.5 c 0,58,59
 1258.62 79.0001 1258.62 79.0001 1361 79 c 0,60,61
 1456.19 79 1456.19 79 1511 157 c 0,62,63
 1564 232.423 1564 232.423 1564 364 c 0,64,65
 1564 595.588 1564 595.588 1457 674.5 c 0,66,67
 1417 704 1417 704 1363 704 c 128,-1,68
 1309 704 1309 704 1271.5 681 c 128,-1,69
 1234 658 1234 658 1208.5 618 c 128,-1,54
 1183 578 1183 578 1170 523.5 c 128,-1,55
EndSplineSet
EndChar

StartChar: quotesingle
Encoding: 39 39 9
Width: 512
Flags: HW
LayerCount: 2
Fore
SplineSet
339 1508 m 1,0,-1
 310 1107 l 1,1,-1
 200 1107 l 1,2,-1
 170 1508 l 1,3,-1
 339 1508 l 1,0,-1
EndSplineSet
EndChar

StartChar: parenleft
Encoding: 40 40 10
Width: 853
Flags: HW
LayerCount: 2
Fore
SplineSet
697 1603 m 1,0,1
 549.985 1463.19 549.985 1463.19 448 1217.5 c 0,2,3
 333 940.455 333 940.455 333 577 c 256,4,5
 333 127.353 333 127.353 515 -242 c 0,6,7
 595 -404 595 -404 697 -520 c 1,8,-1
 667 -560 l 1,9,10
 456.336 -390.585 456.336 -390.585 317 -121 c 0,11,12
 156 190.5 156 190.5 156 577 c 256,13,14
 156 1058 156 1058 411 1398 c 0,15,16
 524 1548 524 1548 667 1644 c 1,17,-1
 697 1603 l 1,0,1
EndSplineSet
EndChar

StartChar: asterisk
Encoding: 42 42 12
Width: 852
Flags: HW
LayerCount: 2
Fore
SplineSet
722 1630 m 1,0,-1
 781 1526 l 1,1,-1
 513 1389 l 1,2,-1
 781 1253 l 1,3,-1
 722 1149 l 1,4,-1
 470 1314 l 1,5,-1
 484 1013 l 1,6,-1
 367 1013 l 1,7,-1
 381 1314 l 1,8,-1
 129 1149 l 1,9,-1
 70 1253 l 1,10,-1
 336 1389 l 1,11,-1
 70 1526 l 1,12,-1
 129 1630 l 1,13,-1
 381 1463 l 1,14,-1
 367 1766 l 1,15,-1
 484 1766 l 1,16,-1
 470 1463 l 1,17,-1
 722 1630 l 1,0,-1
EndSplineSet
EndChar

StartChar: plus
Encoding: 43 43 13
Width: 1362
Flags: HW
LayerCount: 2
Fore
SplineSet
735 1288 m 1,0,-1
 735 813 l 1,1,-1
 1223 813 l 1,2,-1
 1223 706 l 1,3,-1
 735 706 l 1,4,-1
 735 205 l 1,5,-1
 629 205 l 1,6,-1
 629 706 l 1,7,-1
 139 706 l 1,8,-1
 139 813 l 1,9,-1
 629 813 l 1,10,-1
 629 1288 l 1,11,-1
 735 1288 l 1,0,-1
EndSplineSet
EndChar

StartChar: comma
Encoding: 44 44 14
Width: 512
Flags: HW
LayerCount: 2
Fore
SplineSet
266.5 -91 m 0,0,1
 274 -64 274 -64 274 -35 c 128,-1,2
 274 -6 274 -6 256 10.5 c 128,-1,3
 238 27 238 27 216 40 c 128,-1,4
 194 53 194 53 176 66.5 c 128,-1,5
 158 80 158 80 158 99 c 128,-1,6
 158 118 158 118 170 140.5 c 128,-1,7
 182 163 182 163 200.5 183.5 c 0,8,9
 245.171 233 245.171 233 290 233 c 0,10,11
 328.641 233 328.641 233 359.82 201 c 0,12,13
 415 144.368 415 144.368 415 93.6842 c 128,-1,14
 415 43 415 43 402.5 -8 c 128,-1,15
 390 -59 390 -59 370 -100.5 c 0,16,17
 334.779 -173.583 334.779 -173.583 271.39 -234.791 c 128,-1,18
 208 -296 208 -296 128 -332 c 1,19,-1
 97 -278 l 1,20,21
 233.967 -208.119 233.967 -208.119 266.5 -91 c 0,0,1
EndSplineSet
EndChar

StartChar: hyphen
Encoding: 45 45 15
Width: 854
Flags: HW
LayerCount: 2
Fore
SplineSet
175 660 m 1,0,-1
 680 660 l 1,1,-1
 680 530 l 1,2,-1
 174 530 l 1,3,-1
 175 660 l 1,0,-1
EndSplineSet
EndChar

StartChar: period
Encoding: 46 46 16
Width: 512
Flags: HW
LayerCount: 2
Fore
SplineSet
141 60.5 m 128,-1,1
 127 83 127 83 127 102 c 128,-1,2
 127 121 127 121 139.5 143.5 c 128,-1,3
 152 166 152 166 171 186 c 0,4,5
 215.65 233 215.65 233 255 233 c 256,6,7
 295.667 233 295.667 233 327.333 200.5 c 0,8,9
 384 142.342 384 142.342 384 103 c 256,10,11
 384 66 384 66 352 34 c 0,12,13
 295 -23 295 -23 255 -23 c 0,14,15
 220.946 -23 220.946 -23 187.973 7.5 c 128,-1,0
 155 38 155 38 141 60.5 c 128,-1,1
EndSplineSet
EndChar

StartChar: slash
Encoding: 47 47 17
Width: 1197
Flags: HW
LayerCount: 2
Fore
SplineSet
1029 1672 m 1,0,-1
 1123 1627 l 1,1,-1
 168 -431 l 1,2,-1
 73 -389 l 1,3,-1
 1029 1672 l 1,0,-1
EndSplineSet
EndChar

StartChar: colon
Encoding: 58 58 18
Width: 512
Flags: HW
LayerCount: 2
Fore
SplineSet
141 60.5 m 128,-1,1
 127 83 127 83 127 102 c 128,-1,2
 127 121 127 121 139.5 143.5 c 128,-1,3
 152 166 152 166 171 186 c 0,4,5
 215.65 233 215.65 233 255 233 c 256,6,7
 295.667 233 295.667 233 327.333 200.5 c 0,8,9
 384 142.342 384 142.342 384 103 c 256,10,11
 384 66 384 66 352 34 c 0,12,13
 295 -23 295 -23 255 -23 c 0,14,15
 220.946 -23 220.946 -23 187.973 7.5 c 128,-1,0
 155 38 155 38 141 60.5 c 128,-1,1
141 840.5 m 128,-1,17
 127 863 127 863 127 882 c 128,-1,18
 127 901 127 901 139.5 923.5 c 128,-1,19
 152 946 152 946 171 966 c 0,20,21
 215.65 1013 215.65 1013 255 1013 c 256,22,23
 295.667 1013 295.667 1013 327.333 980.5 c 0,24,25
 384 922.342 384 922.342 384 892.671 c 128,-1,26
 384 863 384 863 371 841 c 128,-1,27
 358 819 358 819 339 800 c 0,28,29
 295 756 295 756 255 756 c 0,30,31
 220.263 756 220.263 756 187.632 787 c 128,-1,16
 155 818 155 818 141 840.5 c 128,-1,17
EndSplineSet
EndChar

StartChar: semicolon
Encoding: 59 59 19
Width: 512
Flags: HW
LayerCount: 2
Fore
SplineSet
172 840.5 m 128,-1,1
 158 863 158 863 158 882 c 128,-1,2
 158 901 158 901 170.5 923.5 c 128,-1,3
 183 946 183 946 202.5 966 c 0,4,5
 248.325 1013 248.325 1013 286 1013 c 256,6,7
 326.667 1013 326.667 1013 358.333 980.5 c 0,8,9
 415 922.342 415 922.342 415 892.671 c 128,-1,10
 415 863 415 863 402 841 c 128,-1,11
 389 819 389 819 370 800 c 0,12,13
 326 756 326 756 286 756 c 0,14,15
 251.263 756 251.263 756 218.632 787 c 128,-1,0
 186 818 186 818 172 840.5 c 128,-1,1
266.5 -114 m 0,16,17
 274 -87 274 -87 274 -58 c 128,-1,18
 274 -29 274 -29 256 -13 c 128,-1,19
 238 3 238 3 216 16 c 128,-1,20
 194 29 194 29 176 43 c 128,-1,21
 158 57 158 57 158 76 c 128,-1,22
 158 95 158 95 170 117 c 128,-1,23
 182 139 182 139 200.5 159.5 c 0,24,25
 245.171 209 245.171 209 290 209 c 0,26,27
 328 209 328 209 359.5 177.5 c 0,28,29
 415 122 415 122 415 70.5 c 128,-1,30
 415 19 415 19 402.5 -32 c 128,-1,31
 390 -83 390 -83 370 -125 c 0,32,33
 333.943 -200.719 333.943 -200.719 270.972 -259.86 c 128,-1,34
 208 -319 208 -319 128 -355 c 1,35,-1
 97 -301 l 1,36,37
 233.068 -234.354 233.068 -234.354 266.5 -114 c 0,16,17
EndSplineSet
EndChar

StartChar: less
Encoding: 60 60 20
Width: 1198
Flags: HW
LayerCount: 2
Fore
SplineSet
278 669 m 1,0,-1
 1072 135 l 1,1,-1
 1015 45 l 1,2,-1
 137 645 l 1,3,-1
 137 692 l 1,4,-1
 1015 1293 l 1,5,-1
 1072 1204 l 1,6,-1
 278 669 l 1,0,-1
EndSplineSet
EndChar

StartChar: equal
Encoding: 61 61 21
Width: 1362
Flags: HW
LayerCount: 2
Fore
SplineSet
1223 612 m 1,0,-1
 1223 506 l 1,1,-1
 139 506 l 1,2,-1
 139 612 l 1,3,-1
 1223 612 l 1,0,-1
1223 1013 m 1,4,-1
 1223 906 l 1,5,-1
 139 906 l 1,6,-1
 139 1013 l 1,7,-1
 1223 1013 l 1,4,-1
EndSplineSet
EndChar

StartChar: greater
Encoding: 62 62 22
Width: 1198
Flags: HW
LayerCount: 2
Fore
SplineSet
126 1204 m 1,0,-1
 182 1293 l 1,1,-1
 1061 692 l 1,2,-1
 1061 645 l 1,3,-1
 182 45 l 1,4,-1
 126 135 l 1,5,-1
 919 669 l 1,6,-1
 126 1204 l 1,0,-1
EndSplineSet
EndChar

StartChar: question
Encoding: 63 63 23
Width: 1025
Flags: HW
LayerCount: 2
Fore
SplineSet
497 559 m 0,0,1
 492 526 492 526 492 464 c 128,-1,2
 492 402 492 402 506 353 c 1,3,-1
 387 335 l 1,4,5
 355 438.111 355 438.111 355 499.056 c 128,-1,6
 355 560 355 560 364 605 c 128,-1,7
 373 650 373 650 395.5 693 c 0,8,9
 441.13 780.205 441.13 780.205 553 867 c 1,10,11
 665.27 952.733 665.27 952.733 694.135 996.367 c 0,12,13
 741 1067.21 741 1067.21 741 1164 c 0,14,15
 741 1425 741 1425 459 1425 c 0,16,17
 246.243 1425 246.243 1425 221.5 1248.5 c 0,18,19
 214 1195 214 1195 214 1133 c 1,20,-1
 126 1133 l 1,21,-1
 88 1449 l 1,22,23
 227.043 1531 227.043 1531 479 1531 c 0,24,25
 802.929 1531 802.929 1531 903 1323.5 c 0,26,27
 937 1253 937 1253 937 1178 c 128,-1,28
 937 1103 937 1103 920.5 1053.5 c 128,-1,29
 904 1004 904 1004 869 956 c 0,30,31
 800.88 862.579 800.88 862.579 654 766 c 0,32,33
 514.532 674.712 514.532 674.712 497 559 c 0,0,1
336 60.5 m 128,-1,35
 322 83 322 83 322 102 c 128,-1,36
 322 121 322 121 334.5 143.5 c 128,-1,37
 347 166 347 166 366 186 c 0,38,39
 410.65 233 410.65 233 439.825 233 c 128,-1,40
 469 233 469 233 492 220 c 128,-1,41
 515 207 515 207 534 187.5 c 0,42,43
 578 142.342 578 142.342 578 103 c 256,44,45
 578 66 578 66 546 34 c 0,46,47
 489 -23 489 -23 449 -23 c 0,48,49
 415.946 -23 415.946 -23 382.973 7.5 c 128,-1,34
 350 38 350 38 336 60.5 c 128,-1,35
EndSplineSet
EndChar

StartChar: at
Encoding: 64 64 24
Width: 1707
Flags: HW
LayerCount: 2
Fore
SplineSet
1284 -147 m 1,0,1
 1092.21 -250 1092.21 -250 872 -250 c 0,2,3
 537.277 -250 537.277 -250 320 -41 c 0,4,5
 94 176.39 94 176.39 94 528 c 0,6,7
 94 758.565 94 758.565 216.5 953.5 c 0,8,9
 332.766 1138.51 332.766 1138.51 525 1246 c 0,10,11
 719.942 1355 719.942 1355 932 1355 c 0,12,13
 1247.63 1355 1247.63 1355 1433.5 1175.5 c 0,14,15
 1613 1002.15 1613 1002.15 1613 721 c 0,16,17
 1613 597.895 1613 597.895 1553.5 469.5 c 0,18,19
 1493.63 340.308 1493.63 340.308 1391.5 259 c 0,20,21
 1280.96 171 1280.96 171 1150 171 c 0,22,23
 1057.09 171 1057.09 171 1017.5 204.5 c 0,24,25
 988.55 228.996 988.55 228.996 963 301 c 1,26,27
 852.684 170 852.684 170 717 170 c 0,28,29
 613.266 170 613.266 170 553.5 276 c 0,30,31
 501 369.113 501 369.113 501 473.557 c 128,-1,32
 501 578 501 578 531.5 653.5 c 128,-1,33
 562 729 562 729 615.5 785.5 c 0,34,35
 731.496 908 731.496 908 899 908 c 0,36,37
 959 908 959 908 1022 890 c 1,38,-1
 1033 930 l 1,39,-1
 1165 931 l 1,40,-1
 1084 435 l 2,41,42
 1075 381 1075 381 1075 352 c 256,43,44
 1075 257 1075 257 1172 257 c 0,45,46
 1289.1 257 1289.1 257 1375.5 385 c 0,47,48
 1464 516.111 1464 516.111 1464 710 c 0,49,50
 1464 943.267 1464 943.267 1327.5 1101 c 0,51,52
 1179.52 1272 1179.52 1272 931 1272 c 0,53,54
 793 1272 793 1272 668.5 1221 c 128,-1,55
 544 1170 544 1170 449.5 1076.5 c 128,-1,56
 355 983 355 983 299.5 849.5 c 128,-1,57
 244 716 244 716 244 550 c 128,-1,58
 244 384 244 384 295 250.5 c 128,-1,59
 346 117 346 117 434.5 24 c 0,60,61
 618.161 -169 618.161 -169 900 -169 c 0,62,63
 1115.36 -169 1115.36 -169 1243 -91 c 1,64,-1
 1284 -147 l 1,0,1
665.5 651 m 128,-1,66
 644 585 644 585 644 510.5 c 128,-1,67
 644 436 644 436 653 394 c 128,-1,68
 662 352 662 352 678 320 c 0,69,70
 712.5 251 712.5 251 759 251 c 256,71,72
 813 251 813 251 853.5 284 c 0,73,74
 929.328 345.785 929.328 345.785 946 431 c 1,75,-1
 1000 751 l 1,76,77
 1009.51 815.665 1009.51 815.665 960 823 c 0,78,79
 932 827 932 827 892 827 c 128,-1,80
 852 827 852 827 805.5 811 c 128,-1,81
 759 795 759 795 723 756 c 128,-1,65
 687 717 687 717 665.5 651 c 128,-1,66
EndSplineSet
EndChar

StartChar: A
Encoding: 65 65 25
Width: 1537
Flags: HW
LayerCount: 2
Fore
SplineSet
1058 85 m 1,0,-1
 1196 108 l 1,1,-1
 1038 497 l 1,2,-1
 438 497 l 1,3,-1
 281 108 l 1,4,-1
 422 85 l 1,5,-1
 422 0 l 1,6,-1
 -7 0 l 1,7,-1
 -7 85 l 1,8,-1
 151 108 l 1,9,-1
 676 1406 l 1,10,-1
 634 1505 l 1,11,-1
 796 1573 l 1,12,-1
 1394 108 l 1,13,-1
 1555 85 l 1,14,-1
 1555 0 l 1,15,-1
 1058 0 l 1,16,-1
 1058 85 l 1,0,-1
485 618 m 1,17,-1
 994 618 l 1,18,-1
 739 1260 l 1,19,-1
 485 618 l 1,17,-1
EndSplineSet
EndChar

StartChar: B
Encoding: 66 66 26
Width: 1365
Flags: HW
LayerCount: 2
Fore
SplineSet
1230 1158.5 m 0,0,1
 1230 1080 1230 1080 1202.5 1023 c 128,-1,2
 1175 966 1175 966 1133.5 925 c 0,3,4
 1061.3 853.67 1061.3 853.67 952 813 c 1,5,6
 1127.71 779.302 1127.71 779.302 1210 707.5 c 0,7,8
 1322 609.775 1322 609.775 1322 416 c 0,9,10
 1322 241.711 1322 241.711 1188.5 127 c 0,11,12
 1040.7 -2.80134e-05 1040.7 -2.80134e-05 776 0 c 2,13,-1
 82 0 l 1,14,-1
 82 85 l 1,15,-1
 234 108 l 1,16,-1
 234 1400 l 1,17,-1
 82 1423 l 1,18,-1
 82 1508 l 1,19,-1
 749 1508 l 2,20,21
 985.066 1508 985.066 1508 1111 1412.5 c 0,22,23
 1230 1322.26 1230 1322.26 1230 1158.5 c 0,0,1
422 739 m 1,24,-1
 422 120 l 1,25,-1
 705 120 l 2,26,27
 1037.14 120 1037.14 120 1107 301 c 0,28,29
 1129 358 1129 358 1129 425.5 c 128,-1,30
 1129 493 1129 493 1105.5 549.5 c 128,-1,31
 1082 606 1082 606 1035 648 c 0,32,33
 933.167 739 933.167 739 754 739 c 2,34,-1
 422 739 l 1,24,-1
422 1387 m 1,35,-1
 422 848 l 1,36,-1
 707 848 l 2,37,38
 918.743 848 918.743 848 1003 991.5 c 0,39,40
 1035 1046 1035 1046 1035 1130 c 0,41,42
 1035 1264 1035 1264 961 1325.5 c 128,-1,43
 887 1387 887 1387 726 1387 c 2,44,-1
 422 1387 l 1,35,-1
EndSplineSet
EndChar

StartChar: C
Encoding: 67 67 27
Width: 1538
Flags: HW
LayerCount: 2
Fore
SplineSet
898 1531 m 0,0,1
 1100.89 1531 1100.89 1531 1270 1480 c 0,2,3
 1344 1457 1344 1457 1394 1429 c 1,4,-1
 1371 1162 l 1,5,-1
 1305 1162 l 1,6,7
 1305 1273.39 1305 1273.39 1196 1340 c 0,8,9
 1079.82 1411 1079.82 1411 877 1411 c 0,10,11
 613.623 1411 613.623 1411 442.5 1233.5 c 0,12,13
 271 1055.61 271 1055.61 271 789 c 0,14,15
 271 506.5 271 506.5 429 309 c 0,16,17
 535.51 175.862 535.51 175.862 700.5 123.5 c 0,18,19
 784 97 784 97 891 97 c 128,-1,20
 998 97 998 97 1081 109.5 c 128,-1,21
 1164 122 1164 122 1217 150 c 0,22,23
 1321 204.943 1321 204.943 1321 336 c 1,24,-1
 1387 336 l 1,25,-1
 1401 78 l 1,26,27
 1226.86 -23 1226.86 -23 888 -23 c 0,28,29
 514.446 -23 514.446 -23 291 194 c 0,30,31
 78 400.856 78 400.856 78 728 c 0,32,33
 78 1090.01 78 1090.01 329.5 1318.5 c 0,34,35
 563.403 1531 563.403 1531 898 1531 c 0,0,1
EndSplineSet
EndChar

StartChar: D
Encoding: 68 68 28
Width: 1708
Flags: HW
LayerCount: 2
Fore
SplineSet
286 1400 m 1,0,-1
 131 1423 l 1,1,-1
 131 1508 l 1,2,-1
 773 1508 l 2,3,4
 1170.5 1508 1170.5 1508 1391 1313.5 c 0,5,6
 1607 1122.97 1607 1122.97 1607 791 c 0,7,8
 1607 551.846 1607 551.846 1496 364 c 0,9,10
 1393.51 190.55 1393.51 190.55 1213 94 c 0,11,12
 1037.26 -4.33155e-06 1037.26 -4.33155e-06 834 0 c 2,13,-1
 131 0 l 1,14,-1
 131 85 l 1,15,-1
 286 108 l 1,16,-1
 286 1400 l 1,0,-1
471 1387 m 1,17,-1
 471 120 l 1,18,-1
 832 120 l 2,19,20
 1082.78 120 1082.78 120 1247.5 278.5 c 0,21,22
 1418 442.566 1418 442.566 1418 709 c 0,23,24
 1418 1217.6 1418 1217.6 1062 1343.5 c 0,25,26
 939 1387 939 1387 768 1387 c 2,27,-1
 471 1387 l 1,17,-1
EndSplineSet
EndChar

StartChar: E
Encoding: 69 69 29
Width: 1196
Flags: HW
LayerCount: 2
Fore
SplineSet
790 723 m 1,0,-1
 422 723 l 1,1,-1
 422 120 l 1,2,-1
 979 120 l 1,3,-1
 1051 297 l 1,4,-1
 1127 297 l 1,5,-1
 1094 0 l 1,6,-1
 82 0 l 1,7,-1
 82 85 l 1,8,-1
 234 108 l 1,9,-1
 234 1400 l 1,10,-1
 82 1423 l 1,11,-1
 82 1508 l 1,12,-1
 1050 1508 l 1,13,-1
 1073 1211 l 1,14,-1
 985 1211 l 1,15,-1
 931 1387 l 1,16,-1
 422 1387 l 1,17,-1
 422 843 l 1,18,-1
 790 843 l 1,19,-1
 820 949 l 1,20,-1
 891 949 l 1,21,-1
 891 618 l 1,22,-1
 820 618 l 1,23,-1
 790 723 l 1,0,-1
EndSplineSet
EndChar

StartChar: F
Encoding: 70 70 30
Width: 1196
Flags: HW
LayerCount: 2
Fore
SplineSet
799 699 m 1,0,-1
 412 699 l 1,1,-1
 412 108 l 1,2,-1
 639 85 l 1,3,-1
 639 0 l 1,4,-1
 72 0 l 1,5,-1
 72 85 l 1,6,-1
 224 108 l 1,7,-1
 224 1400 l 1,8,-1
 72 1423 l 1,9,-1
 72 1508 l 1,10,-1
 1090 1508 l 1,11,-1
 1113 1211 l 1,12,-1
 1025 1211 l 1,13,-1
 971 1387 l 1,14,-1
 412 1387 l 1,15,-1
 412 820 l 1,16,-1
 799 820 l 1,17,-1
 829 926 l 1,18,-1
 891 926 l 1,19,-1
 891 593 l 1,20,-1
 829 593 l 1,21,-1
 799 699 l 1,0,-1
EndSplineSet
EndChar

StartChar: G
Encoding: 71 71 31
Width: 1707
Flags: HW
LayerCount: 2
Fore
SplineSet
1002 679 m 1,0,-1
 1593 679 l 1,1,-1
 1593 571 l 1,2,-1
 1537 571 l 2,3,4
 1507 571 1507 571 1491.5 561.5 c 128,-1,5
 1476 552 1476 552 1476 526 c 2,6,-1
 1476 94 l 1,7,8
 1403.53 94 1403.53 94 1315.76 64.5 c 2,9,-1
 1188.5 22.5 l 1,10,11
 1044.72 -23 1044.72 -23 879.36 -23 c 128,-1,12
 714 -23 714 -23 566.5 36.5 c 128,-1,13
 419 96 419 96 315 199 c 128,-1,14
 211 302 211 302 154.5 441 c 128,-1,15
 98 580 98 580 98 720.5 c 128,-1,16
 98 861 98 861 127.5 968 c 128,-1,17
 157 1075 157 1075 210 1163 c 128,-1,18
 263 1251 263 1251 336.5 1319.5 c 128,-1,19
 410 1388 410 1388 498.5 1435 c 0,20,21
 679.266 1531 679.266 1531 892 1531 c 0,22,23
 1220.93 1531 1220.93 1531 1414 1429 c 1,24,-1
 1391 1182 l 1,25,-1
 1325 1182 l 1,26,27
 1325 1273.86 1325 1273.86 1211 1339 c 0,28,29
 1085 1411 1085 1411 887 1411 c 0,30,31
 630.061 1411 630.061 1411 460 1226.5 c 0,32,33
 294 1046.41 294 1046.41 294 789 c 0,34,35
 294 506.524 294 506.524 450.5 309 c 0,36,37
 618.469 97 618.469 97 903 97 c 0,38,39
 1217.49 97 1217.49 97 1273 232.5 c 0,40,41
 1290 274 1290 274 1290 323 c 2,42,-1
 1290 526 l 2,43,44
 1290 553 1290 553 1274.5 562 c 128,-1,45
 1259 571 1259 571 1233 571 c 2,46,-1
 1002 571 l 1,47,-1
 1002 679 l 1,0,-1
EndSplineSet
EndChar

StartChar: I
Encoding: 73 73 32
Width: 682
Flags: HW
LayerCount: 2
Fore
SplineSet
96 1508 m 1,0,-1
 586 1508 l 1,1,-1
 586 1423 l 1,2,-1
 435 1400 l 1,3,-1
 435 108 l 1,4,-1
 586 85 l 1,5,-1
 586 0 l 1,6,-1
 96 0 l 1,7,-1
 96 85 l 1,8,-1
 250 108 l 1,9,-1
 250 1400 l 1,10,-1
 96 1423 l 1,11,-1
 96 1508 l 1,0,-1
EndSplineSet
EndChar

StartChar: J
Encoding: 74 74 33
Width: 682
Flags: HW
LayerCount: 2
Fore
SplineSet
450 89 m 2,0,1
 450 -170.18 450 -170.18 345.5 -329.5 c 0,2,3
 282.27 -425.9 282.27 -425.9 237.635 -463.45 c 128,-1,4
 193 -501 193 -501 161.5 -520 c 0,5,6
 95.1842 -560 95.1842 -560 48.5921 -560 c 0,7,8
 -76.5 -560 -76.5 -560 -157 -497 c 1,9,-1
 -94 -300 l 1,10,-1
 -29 -300 l 1,11,12
 -29 -356.884 -29 -356.884 24.5 -385.5 c 0,13,14
 46 -397 46 -397 80.5 -397 c 128,-1,15
 115 -397 115 -397 148 -380.5 c 128,-1,16
 181 -364 181 -364 206.5 -329.5 c 0,17,18
 263 -253.059 263 -253.059 263 -118 c 2,19,-1
 263 1400 l 1,20,-1
 111 1423 l 1,21,-1
 111 1508 l 1,22,-1
 601 1508 l 1,23,-1
 601 1423 l 1,24,-1
 450 1400 l 1,25,-1
 450 89 l 2,0,1
EndSplineSet
EndChar

StartChar: K
Encoding: 75 75 34
Width: 1534
Flags: HW
LayerCount: 2
Fore
SplineSet
1113 1402 m 1,0,-1
 1000 1423 l 1,1,-1
 1000 1508 l 1,2,-1
 1469 1508 l 1,3,-1
 1469 1423 l 1,4,-1
 1290 1402 l 1,5,-1
 654 791 l 1,6,-1
 1264 139 l 1,7,-1
 1342 101 l 1,8,-1
 1472 85 l 1,9,-1
 1472 0 l 1,10,-1
 1120 0 l 1,11,-1
 443 753 l 1,12,-1
 1113 1402 l 1,0,-1
95 1508 m 1,13,-1
 585 1508 l 1,14,-1
 585 1423 l 1,15,-1
 435 1400 l 1,16,-1
 435 108 l 1,17,-1
 585 85 l 1,18,-1
 585 0 l 1,19,-1
 95 0 l 1,20,-1
 95 85 l 1,21,-1
 250 108 l 1,22,-1
 250 1400 l 1,23,-1
 95 1423 l 1,24,-1
 95 1508 l 1,13,-1
EndSplineSet
EndChar

StartChar: L
Encoding: 76 76 35
Width: 1194
Flags: HW
LayerCount: 2
Fore
SplineSet
562 1508 m 1,0,-1
 562 1423 l 1,1,-1
 412 1400 l 1,2,-1
 412 120 l 1,3,-1
 960 120 l 1,4,-1
 1019 344 l 1,5,-1
 1101 344 l 1,6,-1
 1092 0 l 1,7,-1
 72 0 l 1,8,-1
 72 85 l 1,9,-1
 224 108 l 1,10,-1
 224 1400 l 1,11,-1
 72 1423 l 1,12,-1
 72 1508 l 1,13,-1
 562 1508 l 1,0,-1
EndSplineSet
EndChar

StartChar: M
Encoding: 77 77 36
Width: 2052
Flags: HW
LayerCount: 2
Fore
SplineSet
405 1258 m 1,0,1
 363 108 l 1,2,-1
 502 85 l 1,3,-1
 502 0 l 1,4,-1
 87 0 l 1,5,-1
 87 85 l 1,6,-1
 229 108 l 1,7,-1
 301 1400 l 1,8,-1
 160 1423 l 1,9,-1
 160 1508 l 1,10,-1
 502 1508 l 1,11,-1
 1039 337 l 1,12,-1
 1580 1508 l 1,13,-1
 1893 1508 l 1,14,-1
 1893 1423 l 1,15,-1
 1743 1400 l 1,16,17
 1759 1074 1759 1074 1777 751 c 128,-1,18
 1795 428 1795 428 1810 108 c 1,19,-1
 1964 85 l 1,20,-1
 1964 0 l 1,21,-1
 1475 0 l 1,22,-1
 1475 85 l 1,23,-1
 1625 108 l 1,24,-1
 1580 1243 l 1,25,-1
 998 0 l 1,26,-1
 405 1258 l 1,0,1
EndSplineSet
EndChar

StartChar: N
Encoding: 78 78 37
Width: 1707
Flags: HW
LayerCount: 2
Fore
SplineSet
365 1218 m 1,0,-1
 365 108 l 1,1,-1
 517 85 l 1,2,-1
 517 0 l 1,3,-1
 95 0 l 1,4,-1
 95 85 l 1,5,-1
 250 108 l 1,6,-1
 250 1400 l 1,7,-1
 95 1423 l 1,8,-1
 95 1508 l 1,9,-1
 371 1508 l 1,10,-1
 1340 290 l 1,11,-1
 1340 1400 l 1,12,-1
 1189 1423 l 1,13,-1
 1189 1508 l 1,14,-1
 1608 1508 l 1,15,-1
 1608 1423 l 1,16,-1
 1457 1400 l 1,17,-1
 1457 0 l 1,18,-1
 1333 0 l 1,19,-1
 365 1218 l 1,0,-1
EndSplineSet
EndChar

StartChar: O
Encoding: 79 79 38
Width: 1711
Flags: HW
LayerCount: 2
Fore
SplineSet
127.5 432.5 m 128,-1,1
 77 570 77 570 77 710.5 c 128,-1,2
 77 851 77 851 105 959 c 128,-1,3
 133 1067 133 1067 182.5 1156 c 128,-1,4
 232 1245 232 1245 301.5 1315 c 128,-1,5
 371 1385 371 1385 454 1433 c 0,6,7
 623.458 1531 623.458 1531 816.229 1531 c 128,-1,8
 1009 1531 1009 1531 1151 1474.5 c 128,-1,9
 1293 1418 1293 1418 1390 1319 c 0,10,11
 1587 1117.94 1587 1117.94 1587 791 c 0,12,13
 1587 426.667 1587 426.667 1366 197 c 0,14,15
 1264 91 1264 91 1128.5 34 c 128,-1,16
 993 -23 993 -23 825.5 -23 c 128,-1,17
 658 -23 658 -23 515.5 35 c 128,-1,18
 373 93 373 93 275.5 194 c 128,-1,0
 178 295 178 295 127.5 432.5 c 128,-1,1
309.5 1028 m 128,-1,20
 270 915 270 915 270 807 c 128,-1,21
 270 699 270 699 286 613 c 128,-1,22
 302 527 302 527 333.5 450.5 c 128,-1,23
 365 374 365 374 412.5 309 c 128,-1,24
 460 244 460 244 523 197 c 0,25,26
 657.043 97 657.043 97 839 97 c 0,27,28
 1087.72 97 1087.72 97 1243.5 265.5 c 0,29,30
 1397 431.531 1397 431.531 1397 699 c 0,31,32
 1397 993.337 1397 993.337 1264 1188.5 c 0,33,34
 1112.37 1411 1112.37 1411 820 1411 c 0,35,36
 579.294 1411 579.294 1411 421.5 1226 c 0,37,19
 349 1141 349 1141 309.5 1028 c 128,-1,20
EndSplineSet
EndChar

StartChar: P
Encoding: 80 80 39
Width: 1196
Flags: HW
LayerCount: 2
Fore
SplineSet
72 0 m 1,0,-1
 72 85 l 1,1,-1
 224 108 l 1,2,-1
 224 1400 l 1,3,-1
 72 1423 l 1,4,-1
 72 1508 l 1,5,-1
 565 1508 l 2,6,7
 990.701 1508 990.701 1508 1109 1278.5 c 0,8,9
 1153 1193.14 1153 1193.14 1153 1073.57 c 128,-1,10
 1153 954 1153 954 1113.5 862 c 128,-1,11
 1074 770 1074 770 996 705.5 c 0,12,13
 834.558 572 834.558 572 532 572 c 2,14,-1
 412 572 l 1,15,-1
 412 108 l 1,16,-1
 609 85 l 1,17,-1
 609 0 l 1,18,-1
 72 0 l 1,0,-1
412 1387 m 1,19,-1
 412 678 l 1,20,-1
 560 678 l 2,21,22
 759.151 678 759.151 678 863.5 784.5 c 0,23,24
 957 879.928 957 879.928 957 1043 c 0,25,26
 957 1210.56 957 1210.56 868 1294 c 0,27,28
 768.8 1387 768.8 1387 541 1387 c 2,29,-1
 412 1387 l 1,19,-1
EndSplineSet
EndChar

StartChar: Q
Encoding: 81 81 40
Width: 1707
Flags: HW
LayerCount: 2
Fore
SplineSet
1873.87 -185 m 128,-1,1
 1912.74 -185 1912.74 -185 2010 -119 c 1,2,-1
 2064 -173 l 1,3,4
 1868 -362 1868 -362 1783 -362 c 0,5,6
 1713.38 -362 1713.38 -362 1520.5 -263 c 1,7,-1
 1279 -135 l 1,8,9
 1064.07 -22.5733 1064.07 -22.5733 891 38 c 1,10,-1
 1115 59 l 1,11,12
 1280.05 33.6077 1280.05 33.6077 1461 -49 c 1,13,-1
 1540 -86 l 1,14,15
 1694.45 -156.51 1694.45 -156.51 1764.73 -170.755 c 128,-1,0
 1835 -185 1835 -185 1873.87 -185 c 128,-1,1
127.5 432.5 m 128,-1,17
 77 570 77 570 77 710.5 c 128,-1,18
 77 851 77 851 105 959 c 128,-1,19
 133 1067 133 1067 182.5 1156 c 128,-1,20
 232 1245 232 1245 301.5 1315 c 128,-1,21
 371 1385 371 1385 454 1433 c 0,22,23
 623.458 1531 623.458 1531 816.229 1531 c 128,-1,24
 1009 1531 1009 1531 1151 1474.5 c 128,-1,25
 1293 1418 1293 1418 1390 1319 c 0,26,27
 1587 1117.94 1587 1117.94 1587 791 c 0,28,29
 1587 426.667 1587 426.667 1366 197 c 0,30,31
 1264 91 1264 91 1128.5 34 c 128,-1,32
 993 -23 993 -23 825.5 -23 c 128,-1,33
 658 -23 658 -23 515.5 35 c 128,-1,34
 373 93 373 93 275.5 194 c 128,-1,16
 178 295 178 295 127.5 432.5 c 128,-1,17
309.5 1028 m 128,-1,36
 270 915 270 915 270 807 c 128,-1,37
 270 699 270 699 286 613 c 128,-1,38
 302 527 302 527 333.5 450.5 c 128,-1,39
 365 374 365 374 412.5 309 c 128,-1,40
 460 244 460 244 523 197 c 0,41,42
 657.043 97 657.043 97 839 97 c 0,43,44
 1087.72 97 1087.72 97 1243.5 265.5 c 0,45,46
 1397 431.531 1397 431.531 1397 699 c 0,47,48
 1397 993.337 1397 993.337 1264 1188.5 c 0,49,50
 1112.37 1411 1112.37 1411 820 1411 c 0,51,52
 579.294 1411 579.294 1411 421.5 1226 c 0,53,35
 349 1141 349 1141 309.5 1028 c 128,-1,36
EndSplineSet
EndChar

StartChar: R
Encoding: 82 82 41
Width: 1366
Flags: HW
LayerCount: 2
Fore
SplineSet
1135.5 1279 m 0,0,1
 1163 1210 1163 1210 1163 1122 c 128,-1,2
 1163 1034 1163 1034 1135.5 962 c 128,-1,3
 1108 890 1108 890 1056 838 c 0,4,5
 956.562 738.562 956.562 738.562 765 699 c 1,6,-1
 783 732 l 1,7,-1
 1178 132 l 1,8,-1
 1248 101 l 1,9,-1
 1389 85 l 1,10,-1
 1389 0 l 1,11,-1
 1046 0 l 1,12,-1
 596 719 l 1,13,-1
 680 683 l 1,14,-1
 412 683 l 1,15,-1
 412 108 l 1,16,-1
 562 85 l 1,17,-1
 562 0 l 1,18,-1
 72 0 l 1,19,-1
 72 85 l 1,20,-1
 227 108 l 1,21,-1
 227 1400 l 1,22,-1
 72 1423 l 1,23,-1
 72 1508 l 1,24,-1
 565 1508 l 2,25,26
 1044.23 1508 1044.23 1508 1135.5 1279 c 0,0,1
412 1387 m 1,27,-1
 412 791 l 1,28,-1
 560 791 l 2,29,30
 883.743 791 883.743 791 952.5 980.5 c 0,31,32
 973 1037 973 1037 973 1103.5 c 128,-1,33
 973 1170 973 1170 954 1223 c 128,-1,34
 935 1276 935 1276 889.5 1312.5 c 0,35,36
 796.63 1387 796.63 1387 575 1387 c 2,37,-1
 412 1387 l 1,27,-1
EndSplineSet
EndChar

StartChar: S
Encoding: 83 83 42
Width: 1200
Flags: HW
LayerCount: 2
Fore
SplineSet
589.5 96 m 0,0,1
 664 96 664 96 724.5 110.5 c 128,-1,2
 785 125 785 125 829 155.5 c 0,3,4
 923 220.659 923 220.659 923 346 c 0,5,6
 923 451.805 923 451.805 853.5 519.5 c 0,7,8
 781.447 589.681 781.447 589.681 617.724 661.341 c 128,-1,9
 454 733 454 733 368.5 789.5 c 128,-1,10
 283 846 283 846 233.5 903.5 c 0,11,12
 145 1006.3 145 1006.3 145 1151 c 0,13,14
 145 1319.3 145 1319.3 289.5 1428.5 c 0,15,16
 425.131 1531 425.131 1531 617 1531 c 0,17,18
 767.75 1531 767.75 1531 919 1476 c 1,19,20
 982 1451 982 1451 1033 1421 c 1,21,-1
 998 1154 l 1,22,-1
 914 1154 l 1,23,24
 914 1292 914 1292 839 1354.5 c 128,-1,25
 764 1417 764 1417 622 1417 c 0,26,27
 426.119 1417 426.119 1417 354.5 1289 c 0,28,29
 331 1247 331 1247 331 1195 c 128,-1,30
 331 1143 331 1143 346 1101.5 c 128,-1,31
 361 1060 361 1060 403.5 1019.5 c 0,32,33
 487.987 938.989 487.987 938.989 720 842 c 1,34,35
 1044.28 704.18 1044.28 704.18 1097.5 515.5 c 0,36,37
 1114 457 1114 457 1114 390.5 c 128,-1,38
 1114 324 1114 324 1091.5 264.5 c 128,-1,39
 1069 205 1069 205 1030 158.5 c 128,-1,40
 991 112 991 112 939.5 78 c 128,-1,41
 888 44 888 44 830 21.5 c 0,42,43
 573.379 -78.0511 573.379 -78.0511 290 38.5 c 0,44,45
 187.175 80.7908 187.175 80.7908 108 143 c 1,46,-1
 150 430 l 1,47,-1
 235 430 l 1,48,49
 235 228.582 235 228.582 362.5 149.5 c 0,50,51
 448.755 96 448.755 96 589.5 96 c 0,0,1
EndSplineSet
EndChar

StartChar: T
Encoding: 84 84 43
Width: 1537
Flags: HW
LayerCount: 2
Fore
SplineSet
1406 1508 m 1,0,-1
 1430 1187 l 1,1,-1
 1340 1187 l 1,2,-1
 1289 1387 l 1,3,-1
 862 1387 l 1,4,-1
 862 108 l 1,5,-1
 1082 85 l 1,6,-1
 1082 0 l 1,7,-1
 457 0 l 1,8,-1
 457 85 l 1,9,-1
 675 108 l 1,10,-1
 675 1387 l 1,11,-1
 250 1387 l 1,12,-1
 196 1187 l 1,13,-1
 108 1187 l 1,14,-1
 132 1508 l 1,15,-1
 1406 1508 l 1,0,-1
EndSplineSet
EndChar

StartChar: U
Encoding: 85 85 44
Width: 1537
Flags: HW
LayerCount: 2
Fore
SplineSet
789 -23 m 0,0,1
 190 -23 190 -23 190 541 c 2,2,-1
 190 1400 l 1,3,-1
 35 1423 l 1,4,-1
 35 1508 l 1,5,-1
 535 1508 l 1,6,-1
 535 1423 l 1,7,-1
 375 1400 l 1,8,-1
 375 571 l 2,9,10
 375 201.702 375 201.702 609.5 122.5 c 0,11,12
 685 97 685 97 791.5 97 c 128,-1,13
 898 97 898 97 983 124 c 128,-1,14
 1068 151 1068 151 1124 209 c 0,15,16
 1235 323.964 1235 323.964 1235 571 c 2,17,-1
 1235 1400 l 1,18,-1
 1082 1423 l 1,19,-1
 1082 1508 l 1,20,-1
 1501 1508 l 1,21,-1
 1501 1423 l 1,22,-1
 1350 1400 l 1,23,-1
 1350 541 l 2,24,25
 1350 271.042 1350 271.042 1205 124 c 128,-1,26
 1060.04 -23 1060.04 -23 789 -23 c 0,0,1
EndSplineSet
EndChar

StartChar: V
Encoding: 86 86 45
Width: 1366
Flags: HW
LayerCount: 2
Fore
SplineSet
716 247 m 1,0,-1
 1174 1400 l 1,1,-1
 1025 1423 l 1,2,-1
 1025 1508 l 1,3,-1
 1419 1508 l 1,4,-1
 1419 1423 l 1,5,-1
 1306 1404 l 1,6,-1
 749 0 l 1,7,-1
 641 0 l 1,8,-1
 66 1400 l 1,9,-1
 -53 1423 l 1,10,-1
 -53 1508 l 1,11,-1
 410 1508 l 1,12,-1
 410 1423 l 1,13,-1
 256 1400 l 1,14,-1
 716 247 l 1,0,-1
EndSplineSet
EndChar

StartChar: W
Encoding: 87 87 46
Width: 2048
Flags: HW
LayerCount: 2
Fore
SplineSet
757 240 m 1,0,-1
 1014 1076 l 1,1,-1
 1004 943 l 1,2,-1
 830 1400 l 1,3,-1
 705 1423 l 1,4,-1
 705 1508 l 1,5,-1
 1173 1508 l 1,6,-1
 1174 1423 l 1,7,-1
 1028 1400 l 1,8,-1
 1417 247 l 1,9,10
 1470 389 1470 389 1515.5 534 c 2,11,-1
 1696 1113.5 l 2,12,13
 1742 1258 1742 1258 1795 1400 c 1,14,-1
 1651 1423 l 1,15,-1
 1651 1508 l 1,16,-1
 2035 1508 l 1,17,-1
 2035 1423 l 1,18,-1
 1924 1404 l 1,19,-1
 1440 0 l 1,20,-1
 1332 0 l 1,21,-1
 1016 908 l 1,22,-1
 1065 897 l 1,23,-1
 780 0 l 1,24,-1
 672 0 l 1,25,-1
 121 1400 l 1,26,-1
 7 1423 l 1,27,-1
 7 1508 l 1,28,-1
 445 1508 l 1,29,-1
 452 1423 l 1,30,-1
 319 1400 l 1,31,-1
 757 240 l 1,0,-1
EndSplineSet
EndChar

StartChar: X
Encoding: 88 88 47
Width: 1537
Flags: HW
LayerCount: 2
Fore
SplineSet
49 1508 m 1,0,-1
 590 1508 l 1,1,-1
 590 1423 l 1,2,-1
 443 1400 l 1,3,-1
 778 912 l 1,4,-1
 1117 1400 l 1,5,-1
 969 1423 l 1,6,-1
 969 1508 l 1,7,-1
 1433 1508 l 1,8,-1
 1433 1423 l 1,9,-1
 1263 1400 l 1,10,-1
 848 813 l 1,11,-1
 1352 108 l 1,12,-1
 1512 85 l 1,13,-1
 1512 0 l 1,14,-1
 962 0 l 1,15,-1
 962 85 l 1,16,-1
 1126 108 l 1,17,-1
 721 695 l 1,18,-1
 337 108 l 1,19,-1
 508 85 l 1,20,-1
 508 0 l 1,21,-1
 25 0 l 1,22,-1
 25 85 l 1,23,-1
 191 108 l 1,24,-1
 651 793 l 1,25,-1
 219 1400 l 1,26,-1
 49 1423 l 1,27,-1
 49 1508 l 1,0,-1
EndSplineSet
EndChar

StartChar: Y
Encoding: 89 89 48
Width: 1364
Flags: HW
LayerCount: 2
Fore
SplineSet
9 1508 m 1,0,-1
 552 1508 l 1,1,-1
 552 1423 l 1,2,-1
 379 1400 l 1,3,-1
 743 735 l 1,4,-1
 1055 1400 l 1,5,-1
 890 1423 l 1,6,-1
 890 1508 l 1,7,-1
 1354 1508 l 1,8,-1
 1354 1423 l 1,9,-1
 1200 1404 l 1,10,-1
 806 613 l 1,11,-1
 806 108 l 1,12,-1
 980 85 l 1,13,-1
 980 0 l 1,14,-1
 449 0 l 1,15,-1
 449 85 l 1,16,-1
 620 108 l 1,17,-1
 620 612 l 1,18,-1
 146 1400 l 1,19,-1
 9 1423 l 1,20,-1
 9 1508 l 1,0,-1
EndSplineSet
EndChar

StartChar: Z
Encoding: 90 90 49
Width: 1363
Flags: HW
LayerCount: 2
Fore
SplineSet
1019 1382 m 1,0,-1
 330 1382 l 1,1,-1
 207 1191 l 1,2,-1
 125 1191 l 1,3,-1
 202 1508 l 1,4,-1
 1241 1508 l 1,5,-1
 1241 1383 l 1,6,-1
 324 120 l 1,7,-1
 1088 120 l 1,8,-1
 1212 339 l 1,9,-1
 1298 339 l 1,10,-1
 1230 0 l 1,11,-1
 102 0 l 1,12,-1
 102 125 l 1,13,-1
 1019 1382 l 1,0,-1
EndSplineSet
EndChar

StartChar: bracketleft
Encoding: 91 91 50
Width: 684
Flags: HW
LayerCount: 2
Fore
SplineSet
334 -405 m 1,0,-1
 532 -427 l 1,1,-1
 532 -511 l 1,2,-1
 172 -511 l 1,3,-1
 172 1663 l 1,4,-1
 532 1663 l 1,5,-1
 532 1578 l 1,6,-1
 334 1557 l 1,7,-1
 334 -405 l 1,0,-1
EndSplineSet
EndChar

StartChar: backslash
Encoding: 92 92 51
Width: 1197
Flags: HW
LayerCount: 2
Fore
SplineSet
1124 -389 m 1,0,-1
 1029 -431 l 1,1,-1
 74 1627 l 1,2,-1
 168 1672 l 1,3,-1
 1124 -389 l 1,0,-1
EndSplineSet
EndChar

StartChar: bracketright
Encoding: 93 93 52
Width: 684
Flags: HW
LayerCount: 2
Fore
SplineSet
350 1557 m 1,0,-1
 152 1578 l 1,1,-1
 152 1663 l 1,2,-1
 512 1663 l 1,3,-1
 512 -511 l 1,4,-1
 152 -511 l 1,5,-1
 152 -427 l 1,6,-1
 350 -405 l 1,7,-1
 350 1557 l 1,0,-1
EndSplineSet
EndChar

StartChar: underscore
Encoding: 95 95 53
Width: 1178
Flags: HW
LayerCount: 2
Fore
SplineSet
-5 -164 m 1,0,-1
 1184 -164 l 1,1,-1
 1184 -271 l 1,2,-1
 -5 -271 l 1,3,-1
 -5 -164 l 1,0,-1
EndSplineSet
EndChar

StartChar: grave
Encoding: 96 96 54
Width: 575
Flags: HW
LayerCount: 2
Fore
SplineSet
236 1561 m 1,0,-1
 478 1231 l 1,1,-1
 431 1191 l 1,2,-1
 76 1511 l 1,3,-1
 236 1561 l 1,0,-1
EndSplineSet
EndChar

StartChar: a
Encoding: 97 97 55
Width: 1025
Flags: HW
LayerCount: 2
Fore
SplineSet
1019 52 m 1,0,1
 872.571 -23 872.571 -23 807.786 -23 c 0,2,3
 662 -23 662 -23 662 101 c 2,4,-1
 662 132 l 1,5,6
 647.905 110.857 647.905 110.857 585.452 70.9286 c 128,-1,7
 523 31 523 31 488 15 c 0,8,9
 404.875 -23 404.875 -23 361.938 -23 c 128,-1,10
 319 -23 319 -23 291 -19.5 c 128,-1,11
 263 -16 263 -16 233 -6 c 128,-1,12
 203 4 203 4 174 22 c 128,-1,13
 145 40 145 40 122 69 c 0,14,15
 71 133.304 71 133.304 71 236 c 0,16,17
 71 377.879 71 377.879 172 434.5 c 0,18,19
 236.498 470.658 236.498 470.658 307.749 479.829 c 128,-1,20
 379 489 379 489 437.5 494 c 0,21,22
 550.026 503.618 550.026 503.618 662 506 c 1,23,-1
 662 716 l 2,24,25
 662 803.219 662 803.219 640.5 832.109 c 0,26,27
 602.628 883 602.628 883 524.814 883 c 0,28,29
 350.677 883 350.677 883 183 770 c 1,30,-1
 125 857 l 1,31,32
 359 1013 359 1013 544 1013 c 0,33,34
 705.099 1013 705.099 1013 772.5 923.5 c 0,35,36
 824 855.115 824 855.115 824 728 c 2,37,-1
 824 202 l 2,38,39
 824 127.667 824 127.667 851.5 118.5 c 0,40,41
 862 115 862 115 878 115 c 256,42,43
 918.333 115 918.333 115 1001 146 c 1,44,-1
 1019 52 l 1,0,1
662 422 m 1,45,46
 377.857 411.071 377.857 411.071 298 365 c 0,47,48
 237 329.808 237 329.808 237 252 c 0,49,50
 237 139.064 237 139.064 324.5 113 c 0,51,52
 348 106 348 106 382.5 106 c 128,-1,53
 417 106 417 106 463 120 c 128,-1,54
 509 134 509 134 548.5 153.5 c 0,55,56
 622.194 189.881 622.194 189.881 662 224 c 1,57,-1
 662 422 l 1,45,46
EndSplineSet
Substitution2: "'smcp' Lowercase to Small Capitals in Latin lookup 6 subtable" .notdef
EndChar

StartChar: b
Encoding: 98 98 56
Width: 1195
Flags: HW
LayerCount: 2
Fore
SplineSet
169 1483 m 1,0,-1
 39 1508 l 1,1,-1
 39 1589 l 1,2,-1
 332 1663 l 1,3,-1
 332 883 l 1,4,5
 429.988 952.168 429.988 952.168 520.494 982.584 c 128,-1,6
 611 1013 611 1013 692.5 1013 c 128,-1,7
 774 1013 774 1013 852 975.5 c 128,-1,8
 930 938 930 938 984.5 871.5 c 0,9,10
 1097 734.229 1097 734.229 1097 519 c 256,11,12
 1097 296.229 1097 296.229 964.5 143.5 c 0,13,14
 820.053 -23 820.053 -23 574 -23 c 0,15,16
 415.897 -23 415.897 -23 277 53 c 0,17,18
 215 86 215 86 169 130 c 1,19,-1
 169 1483 l 1,0,-1
621 883 m 0,20,21
 486.5 883 486.5 883 332 780 c 1,22,-1
 332 209 l 1,23,24
 418.25 94 418.25 94 605 94 c 0,25,26
 748.8 94 748.8 94 839 204 c 0,27,28
 923 306.439 923 306.439 923 459 c 0,29,30
 923 740.842 923 740.842 758 846.5 c 0,31,32
 701 883 701 883 621 883 c 0,20,21
EndSplineSet
Substitution2: "'smcp' Lowercase to Small Capitals in Latin lookup 6 subtable" .notdef
EndChar

StartChar: c
Encoding: 99 99 57
Width: 1022
Flags: HW
LayerCount: 2
Fore
SplineSet
892 229 m 1,0,-1
 949 164 l 1,1,2
 789.926 21.1034 789.926 21.1034 641 -15 c 0,3,4
 608 -23 608 -23 576 -23 c 0,5,6
 356.771 -23 356.771 -23 222.5 115.5 c 0,7,8
 91 251.142 91 251.142 91 471 c 0,9,10
 91 691.42 91 691.42 222.5 844 c 0,11,12
 368.151 1013 368.151 1013 614 1013 c 0,13,14
 778 1013 778 1013 904 959 c 1,15,-1
 880 758 l 1,16,-1
 817 758 l 1,17,18
 817 858.96 817 858.96 695.5 886.5 c 0,19,20
 658 895 658 895 590 895 c 128,-1,21
 522 895 522 895 456.5 863.5 c 128,-1,22
 391 832 391 832 349 780 c 0,23,24
 266 677.238 266 677.238 266 528 c 0,25,26
 266 345 266 345 356 235 c 0,27,28
 452.545 117 452.545 117 605.434 117 c 128,-1,29
 758.323 117 758.323 117 892 229 c 1,0,-1
EndSplineSet
Substitution2: "'smcp' Lowercase to Small Capitals in Latin lookup 6 subtable" .notdef
EndChar

StartChar: d
Encoding: 100 100 58
Width: 1196
Flags: HW
LayerCount: 2
Fore
SplineSet
599.605 1013 m 0,0,1
 725.211 1013 725.211 1013 849 964 c 1,2,-1
 849 1477 l 1,3,-1
 696 1508 l 1,4,-1
 696 1589 l 1,5,-1
 1011 1663 l 1,6,-1
 1011 160 l 2,7,8
 1011 115 1011 115 1061.61 115 c 128,-1,9
 1112.22 115 1112.22 115 1188 146 c 1,10,-1
 1209 52 l 1,11,12
 1066.14 -23 1066.14 -23 995 -23 c 0,13,14
 891.596 -23 891.596 -23 860 44.5 c 0,15,16
 849 68 849 68 849 101 c 1,17,18
 773.593 35.0185 773.593 35.0185 688.796 6.00926 c 128,-1,19
 604 -23 604 -23 512.5 -23 c 128,-1,20
 421 -23 421 -23 336 12 c 128,-1,21
 251 47 251 47 194.5 111.5 c 0,22,23
 83 238.788 83 238.788 83 471 c 0,24,25
 83 692.58 83 692.58 213.5 844 c 0,26,27
 359.151 1013 359.151 1013 599.605 1013 c 0,0,1
599.611 117 m 0,28,29
 701.222 117 701.222 117 849 212 c 1,30,-1
 849 780 l 1,31,32
 762.75 895 762.75 895 575 895 c 0,33,34
 429.972 895 429.972 895 340.5 777.5 c 0,35,36
 256 666.53 256 666.53 256 492 c 0,37,38
 256 333.074 256 333.074 335.5 231 c 0,39,40
 424.288 117 424.288 117 599.611 117 c 0,28,29
EndSplineSet
Substitution2: "'smcp' Lowercase to Small Capitals in Latin lookup 6 subtable" .notdef
EndChar

StartChar: e
Encoding: 101 101 59
Width: 1025
Flags: HW
LayerCount: 2
Fore
SplineSet
882 229 m 1,0,-1
 939 164 l 1,1,2
 779.926 21.1034 779.926 21.1034 631 -15 c 0,3,4
 598 -23 598 -23 566 -23 c 0,5,6
 346 -23 346 -23 207.5 115.5 c 0,7,8
 71 252 71 252 71 471 c 0,9,10
 71 689.008 71 689.008 200.5 844 c 0,11,12
 341.704 1013 341.704 1013 569 1013 c 0,13,14
 726.128 1013 726.128 1013 834.5 900.5 c 0,15,16
 949 781.638 949 781.638 949 593 c 1,17,-1
 902 551 l 1,18,-1
 250 504 l 1,19,20
 251.86 321.712 251.86 321.712 368.5 213 c 0,21,22
 471.5 117 471.5 117 609.911 117 c 128,-1,23
 748.323 117 748.323 117 882 229 c 1,0,-1
257 598 m 1,24,-1
 771 645 l 1,25,26
 763.609 811.293 763.609 811.293 643 873 c 0,27,28
 600 895 600 895 533 895 c 128,-1,29
 466 895 466 895 413.5 862 c 128,-1,30
 361 829 361 829 327 782 c 0,31,32
 262.412 692.717 262.412 692.717 257 598 c 1,24,-1
EndSplineSet
Substitution2: "'smcp' Lowercase to Small Capitals in Latin lookup 6 subtable" .notdef
EndChar

StartChar: g
Encoding: 103 103 60
Width: 1196
Flags: HW
LayerCount: 2
Fore
SplineSet
926 843 m 1,0,1
 973 767.077 973 767.077 973 654 c 0,2,3
 973 494.667 973 494.667 813 372 c 0,4,5
 743 318 743 318 649 282.5 c 2,6,-1
 496 224.5 l 2,7,8
 386.037 182.565 386.037 182.565 371.518 167.282 c 128,-1,9
 357 152 357 152 357 142.5 c 128,-1,10
 357 133 357 133 367 124 c 128,-1,11
 377 115 377 115 400 107 c 0,12,13
 454.625 88 454.625 88 553.812 88 c 128,-1,14
 653 88 653 88 739 77.5 c 128,-1,15
 825 67 825 67 891 37.5 c 0,16,17
 1035 -26.8636 1035 -26.8636 1035 -184 c 0,18,19
 1035 -289.909 1035 -289.909 951.5 -381 c 0,20,21
 836.828 -506.097 836.828 -506.097 626.5 -547.5 c 0,22,23
 563 -560 563 -560 487 -560 c 128,-1,24
 411 -560 411 -560 332 -544 c 128,-1,25
 253 -528 253 -528 194.5 -494.5 c 0,26,27
 69 -422.632 69 -422.632 69 -281 c 0,28,29
 69 -170.508 69 -170.508 161.5 -112.5 c 1,30,-1
 227 -73 l 1,31,32
 254 -59 254 -59 287.5 -52 c 128,-1,33
 321 -45 321 -45 355 -36 c 1,34,35
 246.791 -15.0562 246.791 -15.0562 206 50.5 c 0,36,37
 192 73 192 73 192 98.5 c 128,-1,38
 192 124 192 124 202 142 c 128,-1,39
 212 160 212 160 238 178 c 128,-1,40
 264 196 264 196 310.5 218 c 2,41,-1
 429 274 l 1,42,43
 334.859 291.932 334.859 291.932 253 361 c 0,44,45
 140 456.344 140 456.344 140 629 c 0,46,47
 140 795.264 140 795.264 285.5 910.5 c 0,48,49
 414.919 1013 414.919 1013 570.051 1013 c 128,-1,50
 725.182 1013 725.182 1013 838 940 c 1,51,52
 909.773 989.689 909.773 989.689 1076 1011 c 1,53,-1
 1103 980 l 1,54,-1
 1056 843 l 1,55,-1
 926 843 l 1,0,1
244 -293 m 128,-1,57
 244 -335 244 -335 275 -370.5 c 128,-1,58
 306 -406 306 -406 354 -425 c 0,59,60
 432.316 -456 432.316 -456 530.658 -456 c 128,-1,61
 629 -456 629 -456 681 -440 c 128,-1,62
 733 -424 733 -424 772.5 -394 c 0,63,64
 860 -327.544 860 -327.544 860 -222 c 0,65,66
 860 -89.2936 860 -89.2936 671.5 -72 c 0,67,68
 617 -67 617 -67 557 -67 c 0,69,70
 385 -67 385 -67 283.5 -168.5 c 0,71,72
 255.862 -196.138 255.862 -196.138 249.931 -223.569 c 128,-1,56
 244 -251 244 -251 244 -293 c 128,-1,57
326 776 m 0,73,74
 305 727 305 727 305 656.5 c 128,-1,75
 305 586 305 586 326 534 c 128,-1,76
 347 482 347 482 383 446 c 0,77,78
 456 373 456 373 571 373 c 0,79,80
 720.66 373 720.66 373 785 499 c 0,81,82
 809 546 809 546 809 615.5 c 128,-1,83
 809 685 809 685 788 739 c 128,-1,84
 767 793 767 793 731 831 c 0,85,86
 656.158 910 656.158 910 543 910 c 0,87,88
 383.429 910 383.429 910 326 776 c 0,73,74
EndSplineSet
Substitution2: "'smcp' Lowercase to Small Capitals in Latin lookup 6 subtable" .notdef
EndChar

StartChar: h
Encoding: 104 104 61
Width: 1196
Flags: HW
LayerCount: 2
Fore
SplineSet
673 883 m 0,0,1
 521.828 883 521.828 883 361 777 c 1,2,-1
 361 106 l 1,3,-1
 488 83 l 1,4,-1
 488 0 l 1,5,-1
 68 0 l 1,6,-1
 68 83 l 1,7,-1
 198 106 l 1,8,-1
 198 1483 l 1,9,-1
 68 1508 l 1,10,-1
 68 1589 l 1,11,-1
 361 1663 l 1,12,-1
 361 883 l 1,13,14
 460.735 952.047 460.735 952.047 557.367 982.524 c 128,-1,15
 654 1013 654 1013 722 1013 c 128,-1,16
 790 1013 790 1013 844 994 c 128,-1,17
 898 975 898 975 936 936.5 c 0,18,19
 1016 855.447 1016 855.447 1016 704 c 2,20,-1
 1016 106 l 1,21,-1
 1143 83 l 1,22,-1
 1143 0 l 1,23,-1
 724 0 l 1,24,-1
 724 83 l 1,25,-1
 853 106 l 1,26,-1
 853 685 l 2,27,28
 853 883 853 883 673 883 c 0,0,1
EndSplineSet
Substitution2: "'smcp' Lowercase to Small Capitals in Latin lookup 6 subtable" .notdef
Substitution2: "'ss01' Style Set 1 in Latin lookup 4 subtable" .notdef
EndChar

StartChar: i
Encoding: 105 105 62
Width: 513
Flags: HW
LayerCount: 2
Fore
SplineSet
342 106 m 1,0,-1
 470 83 l 1,1,-1
 470 0 l 1,2,-1
 50 0 l 1,3,-1
 50 83 l 1,4,-1
 180 106 l 1,5,-1
 180 834 l 1,6,-1
 50 857 l 1,7,-1
 50 940 l 1,8,-1
 342 1013 l 1,9,-1
 342 106 l 1,0,-1
148 1358 m 128,-1,11
 138 1380 138 1380 138 1401.5 c 128,-1,12
 138 1423 138 1423 148 1444.5 c 128,-1,13
 158 1466 158 1466 174.5 1484 c 0,14,15
 211.167 1524 211.167 1524 241.583 1524 c 128,-1,16
 272 1524 272 1524 293.5 1513 c 128,-1,17
 315 1502 315 1502 331.5 1484 c 0,18,19
 369 1443.09 369 1443.09 369 1411.55 c 128,-1,20
 369 1380 369 1380 358.5 1358 c 128,-1,21
 348 1336 348 1336 331.5 1318.5 c 0,22,23
 294.257 1279 294.257 1279 262.629 1279 c 128,-1,24
 231 1279 231 1279 211 1290 c 128,-1,25
 191 1301 191 1301 174.5 1318.5 c 128,-1,10
 158 1336 158 1336 148 1358 c 128,-1,11
EndSplineSet
Substitution2: "'smcp' Lowercase to Small Capitals in Latin lookup 6 subtable" .notdef
Substitution2: "'ss01' Style Set 1 in Latin lookup 4 subtable" .notdef
EndChar

StartChar: j
Encoding: 106 106 63
Width: 513
Flags: HW
LayerCount: 2
Fore
SplineSet
-5 -337 m 0,0,1
 176 -337 176 -337 176 9 c 2,2,-1
 176 834 l 1,3,-1
 46 857 l 1,4,-1
 46 940 l 1,5,-1
 338 1013 l 1,6,-1
 338 167 l 2,7,8
 338 -18.4615 338 -18.4615 310 -113.231 c 128,-1,9
 282 -208 282 -208 249.5 -265 c 128,-1,10
 217 -322 217 -322 167.5 -376 c 128,-1,11
 118 -430 118 -430 66.5 -458 c 128,-1,12
 15 -486 15 -486 -21 -486 c 0,13,14
 -118.143 -486 -118.143 -486 -174 -463 c 1,15,-1
 -120 -276 l 1,16,-1
 -80 -276 l 1,17,18
 -80 -310.536 -80 -310.536 -37 -330.5 c 0,19,20
 -23 -337 -23 -337 -5 -337 c 0,0,1
144.5 1358 m 128,-1,22
 134 1380 134 1380 134 1401.5 c 128,-1,23
 134 1423 134 1423 144.5 1444.5 c 128,-1,24
 155 1466 155 1466 171.5 1484 c 0,25,26
 208.167 1524 208.167 1524 249 1524 c 256,27,28
 290.833 1524 290.833 1524 317.417 1495 c 0,29,30
 365 1443.09 365 1443.09 365 1411.55 c 128,-1,31
 365 1380 365 1380 354.5 1358 c 128,-1,32
 344 1336 344 1336 327.5 1318.5 c 0,33,34
 290.257 1279 290.257 1279 249 1279 c 256,35,36
 208.743 1279 208.743 1279 181.871 1307.5 c 128,-1,21
 155 1336 155 1336 144.5 1358 c 128,-1,22
EndSplineSet
Substitution2: "'smcp' Lowercase to Small Capitals in Latin lookup 6 subtable" .notdef
EndChar

StartChar: k
Encoding: 107 107 64
Width: 1193
Flags: HW
LayerCount: 2
Fore
SplineSet
355 106 m 1,0,-1
 482 83 l 1,1,-1
 482 0 l 1,2,-1
 62 0 l 1,3,-1
 62 83 l 1,4,-1
 192 106 l 1,5,-1
 192 1483 l 1,6,-1
 62 1508 l 1,7,-1
 62 1589 l 1,8,-1
 355 1663 l 1,9,-1
 355 106 l 1,0,-1
810 885 m 1,10,-1
 721 906 l 1,11,-1
 721 989 l 1,12,-1
 1122 989 l 1,13,-1
 1122 906 l 1,14,-1
 966 883 l 1,15,-1
 543 558 l 1,16,-1
 963 132 l 1,17,-1
 1028 99 l 1,18,-1
 1136 83 l 1,19,-1
 1136 0 l 1,20,-1
 855 0 l 1,21,-1
 363 532 l 1,22,-1
 810 885 l 1,10,-1
EndSplineSet
Substitution2: "'smcp' Lowercase to Small Capitals in Latin lookup 6 subtable" .notdef
Substitution2: "'ss01' Style Set 1 in Latin lookup 4 subtable" .notdef
EndChar

StartChar: l
Encoding: 108 108 65
Width: 513
Flags: HW
LayerCount: 2
Fore
SplineSet
335 106 m 1,0,-1
 463 83 l 1,1,-1
 463 0 l 1,2,-1
 43 0 l 1,3,-1
 43 83 l 1,4,-1
 173 106 l 1,5,-1
 173 1483 l 1,6,-1
 43 1508 l 1,7,-1
 43 1589 l 1,8,-1
 335 1663 l 1,9,-1
 335 106 l 1,0,-1
EndSplineSet
Substitution2: "'smcp' Lowercase to Small Capitals in Latin lookup 6 subtable" .notdef
Substitution2: "'ss01' Style Set 1 in Latin lookup 4 subtable" .notdef
EndChar

StartChar: m
Encoding: 109 109 66
Width: 1878
Flags: HW
LayerCount: 2
Fore
SplineSet
708 883 m 0,0,1
 532.862 883 532.862 883 383 777 c 1,2,-1
 383 106 l 1,3,-1
 510 83 l 1,4,-1
 510 0 l 1,5,-1
 92 0 l 1,6,-1
 92 83 l 1,7,-1
 221 106 l 1,8,-1
 221 834 l 1,9,-1
 92 857 l 1,10,-1
 92 940 l 1,11,-1
 383 1013 l 1,12,-1
 383 883 l 1,13,14
 570.778 1013 570.778 1013 737 1013 c 0,15,16
 945.125 1013 945.125 1013 1007 881 c 1,17,18
 1109.19 952.343 1109.19 952.343 1206.1 982.672 c 128,-1,19
 1303 1013 1303 1013 1371 1013 c 0,20,21
 1523 1013 1523 1013 1597.5 937 c 128,-1,22
 1672 861 1672 861 1672 704 c 2,23,-1
 1672 106 l 1,24,-1
 1798 83 l 1,25,-1
 1798 0 l 1,26,-1
 1382 0 l 1,27,-1
 1382 83 l 1,28,-1
 1509 106 l 1,29,-1
 1509 704 l 2,30,31
 1509 793.553 1509 793.553 1455.5 842.5 c 0,32,33
 1411.23 883 1411.23 883 1344 883 c 0,34,35
 1172.46 883 1172.46 883 1029 780 c 1,36,37
 1034 730 1034 730 1034 704 c 2,38,-1
 1034 106 l 1,39,-1
 1149 83 l 1,40,-1
 1149 0 l 1,41,-1
 753 0 l 1,42,-1
 753 83 l 1,43,-1
 870 106 l 1,44,-1
 870 704 l 2,45,46
 870 794.244 870 794.244 819.5 842.5 c 0,47,48
 777.116 883 777.116 883 708 883 c 0,0,1
EndSplineSet
Substitution2: "'smcp' Lowercase to Small Capitals in Latin lookup 6 subtable" .notdef
Substitution2: "'ss01' Style Set 1 in Latin lookup 4 subtable" .notdef
EndChar

StartChar: n
Encoding: 110 110 67
Width: 1196
Flags: HW
LayerCount: 2
Fore
SplineSet
672 883 m 0,0,1
 518.517 883 518.517 883 365 777 c 1,2,-1
 365 106 l 1,3,-1
 492 83 l 1,4,-1
 492 0 l 1,5,-1
 72 0 l 1,6,-1
 72 83 l 1,7,-1
 202 106 l 1,8,-1
 202 834 l 1,9,-1
 72 857 l 1,10,-1
 72 940 l 1,11,-1
 348 1013 l 1,12,-1
 348 883 l 1,13,14
 550.222 1013 550.222 1013 723 1013 c 0,15,16
 931.362 1013 931.362 1013 994 840 c 0,17,18
 1015 782 1015 782 1015 704 c 2,19,-1
 1015 106 l 1,20,-1
 1142 83 l 1,21,-1
 1142 0 l 1,22,-1
 723 0 l 1,23,-1
 723 83 l 1,24,-1
 852 106 l 1,25,-1
 852 685 l 2,26,27
 852 883 852 883 672 883 c 0,0,1
EndSplineSet
Substitution2: "'smcp' Lowercase to Small Capitals in Latin lookup 6 subtable" .notdef
Substitution2: "'ss01' Style Set 1 in Latin lookup 4 subtable" .notdef
EndChar

StartChar: o
Encoding: 111 111 68
Width: 1194
Flags: HW
LayerCount: 2
Fore
SplineSet
101 486.5 m 0,0,1
 101 601 101 601 140.5 700 c 128,-1,2
 180 799 180 799 247.5 868.5 c 0,3,4
 387.842 1013 387.842 1013 593 1013 c 0,5,6
 830.947 1013 830.947 1013 965 871.5 c 0,7,8
 1092 737.444 1092 737.444 1092 519 c 0,9,10
 1092 276.022 1092 276.022 948 124.5 c 0,11,12
 807.823 -23 807.823 -23 602 -23 c 0,13,14
 367.007 -23 367.007 -23 230 121.5 c 0,15,16
 101 257.555 101 257.555 101 486.5 c 0,0,1
296.5 664 m 128,-1,18
 276 595 276 595 276 514.5 c 128,-1,19
 276 434 276 434 294.5 357.5 c 128,-1,20
 313 281 313 281 352 222.5 c 0,21,22
 437.667 94 437.667 94 600 94 c 0,23,24
 752.125 94 752.125 94 836.5 194 c 0,25,26
 919 291.778 919 291.778 919 459 c 0,27,28
 919 755.063 919 755.063 750 857 c 0,29,30
 687 895 687 895 601 895 c 128,-1,31
 515 895 515 895 456 865.5 c 128,-1,32
 397 836 397 836 357 784.5 c 128,-1,17
 317 733 317 733 296.5 664 c 128,-1,18
EndSplineSet
Substitution2: "'smcp' Lowercase to Small Capitals in Latin lookup 6 subtable" .notdef
EndChar

StartChar: p
Encoding: 112 112 69
Width: 1194
Flags: HW
LayerCount: 2
Fore
SplineSet
578.575 -23 m 0,0,1
 450.15 -23 450.15 -23 335 26 c 1,2,-1
 335 -454 l 1,3,-1
 462 -477 l 1,4,-1
 462 -560 l 1,5,-1
 42 -560 l 1,6,-1
 42 -477 l 1,7,-1
 172 -454 l 1,8,-1
 172 841 l 1,9,-1
 42 865 l 1,10,-1
 42 946 l 1,11,-1
 335 1013 l 1,12,-1
 335 881 l 1,13,14
 509.811 1013 509.811 1013 681 1013 c 0,15,16
 864.225 1013 864.225 1013 981 878.5 c 0,17,18
 1100 741.438 1100 741.438 1100 519 c 0,19,20
 1100 297.58 1100 297.58 968.5 145 c 0,21,22
 823.711 -23 823.711 -23 578.575 -23 c 0,0,1
335 780 m 1,23,-1
 335 209 l 1,24,25
 421.25 94 421.25 94 608 94 c 0,26,27
 751.641 94 751.641 94 842 207.5 c 0,28,29
 926 313.012 926 313.012 926 461 c 0,30,31
 926 643.5 926 643.5 850 758.5 c 0,32,33
 767.722 883 767.722 883 626.772 883 c 128,-1,34
 485.821 883 485.821 883 335 780 c 1,23,-1
EndSplineSet
Substitution2: "'smcp' Lowercase to Small Capitals in Latin lookup 6 subtable" .notdef
EndChar

StartChar: q
Encoding: 113 113 70
Width: 1196
Flags: HW
LayerCount: 2
Fore
SplineSet
613 1013 m 0,0,1
 797 1013 797 1013 932 923 c 1,2,-1
 986 1013 l 1,3,-1
 1020 1013 l 1,4,-1
 1020 -454 l 1,5,-1
 1147 -477 l 1,6,-1
 1147 -560 l 1,7,-1
 730 -560 l 1,8,-1
 730 -477 l 1,9,-1
 858 -454 l 1,10,-1
 858 106 l 1,11,12
 770.595 37.192 770.595 37.192 677.298 7.09601 c 128,-1,13
 584 -23 584 -23 494.5 -23 c 128,-1,14
 405 -23 405 -23 325 14.5 c 128,-1,15
 245 52 245 52 192.5 118 c 0,16,17
 89 248.114 89 248.114 89 471 c 0,18,19
 89 694.356 89 694.356 222 846.5 c 0,20,21
 367.55 1013 367.55 1013 613 1013 c 0,0,1
568 117 m 0,22,23
 706.704 117 706.704 117 858 212 c 1,24,-1
 858 775 l 1,25,26
 812.532 843.203 812.532 843.203 704.5 878.5 c 0,27,28
 654 895 654 895 581 895 c 128,-1,29
 508 895 508 895 449 867 c 128,-1,30
 390 839 390 839 349 786 c 0,31,32
 264 676.122 264 676.122 264 478 c 0,33,34
 264 228.026 264 228.026 430.5 145.5 c 0,35,36
 488 117 488 117 568 117 c 0,22,23
EndSplineSet
Substitution2: "'smcp' Lowercase to Small Capitals in Latin lookup 6 subtable" .notdef
EndChar

StartChar: r
Encoding: 114 114 71
Width: 853
Flags: HW
LayerCount: 2
Fore
SplineSet
170 834 m 1,0,-1
 42 857 l 1,1,-1
 42 940 l 1,2,-1
 332 1013 l 1,3,-1
 332 758 l 1,4,5
 561.859 1013 561.859 1013 678 1013 c 0,6,7
 773.381 1013 773.381 1013 853 937 c 1,8,-1
 801 775 l 1,9,-1
 754 775 l 1,10,11
 754 824.286 754 824.286 679 847.5 c 0,12,13
 658 854 658 854 637 854 c 256,14,15
 530.559 854 530.559 854 332 641 c 1,16,-1
 332 106 l 1,17,-1
 530 83 l 1,18,-1
 530 0 l 1,19,-1
 42 0 l 1,20,-1
 42 83 l 1,21,-1
 170 106 l 1,22,-1
 170 834 l 1,0,-1
EndSplineSet
Substitution2: "'smcp' Lowercase to Small Capitals in Latin lookup 6 subtable" .notdef
EndChar

StartChar: s
Encoding: 115 115 72
Width: 853
Flags: HW
LayerCount: 2
Fore
SplineSet
171 292 m 1,0,1
 171 83 171 83 427 83 c 0,2,3
 523.744 83 523.744 83 581.5 125.5 c 0,4,5
 635 164.868 635 164.868 635 224 c 0,6,7
 635 285.571 635 285.571 603.5 320.286 c 0,8,9
 542.692 387.299 542.692 387.299 427.346 427.15 c 128,-1,10
 312 467 312 467 254.5 503.5 c 128,-1,11
 197 540 197 540 164 579.5 c 0,12,13
 107 647.727 107 647.727 107 726.364 c 128,-1,14
 107 805 107 805 136.5 855 c 128,-1,15
 166 905 166 905 214.5 940 c 0,16,17
 315.657 1013 315.657 1013 450 1013 c 0,18,19
 611.421 1013 611.421 1013 731 942 c 1,20,-1
 708 749 l 1,21,-1
 654 749 l 1,22,23
 654 906 654 906 445 906 c 0,24,25
 354 906 354 906 307 870.5 c 128,-1,26
 260 835 260 835 260 782 c 0,27,28
 260 665.23 260 665.23 521 570 c 0,29,30
 765.452 479.939 765.452 479.939 795.5 335 c 0,31,32
 804 294 804 294 804 237.5 c 128,-1,33
 804 181 804 181 767.5 128 c 128,-1,34
 731 75 731 75 675.5 41.5 c 0,35,36
 568.642 -23 568.642 -23 429 -23 c 0,37,38
 292.25 -23 292.25 -23 173 30 c 0,39,40
 120 53 120 53 81 83 c 1,41,-1
 119 292 l 1,42,-1
 171 292 l 1,0,1
EndSplineSet
Substitution2: "'smcp' Lowercase to Small Capitals in Latin lookup 6 subtable" .notdef
EndChar

StartChar: t
Encoding: 116 116 73
Width: 684
Flags: HW
LayerCount: 2
Fore
SplineSet
335 306 m 2,0,1
 335 106 335 106 497.25 106 c 0,2,3
 581.5 106 581.5 106 662 176 c 1,4,-1
 716 110 l 1,5,6
 631.066 39.8375 631.066 39.8375 559.033 8.41873 c 128,-1,7
 487 -23 487 -23 432 -23 c 128,-1,8
 377 -23 377 -23 325.5 1 c 128,-1,9
 274 25 274 25 240 69.5 c 0,10,11
 173 157.191 173 157.191 173 317 c 2,12,-1
 173 872 l 1,13,-1
 46 872 l 1,14,-1
 46 959 l 1,15,-1
 173 989 l 1,16,-1
 173 1123 l 1,17,-1
 291 1241 l 1,18,-1
 335 1241 l 1,19,-1
 335 989 l 1,20,-1
 665 989 l 1,21,-1
 665 872 l 1,22,-1
 335 872 l 1,23,-1
 335 306 l 2,0,1
EndSplineSet
Substitution2: "'smcp' Lowercase to Small Capitals in Latin lookup 6 subtable" .notdef
EndChar

StartChar: u
Encoding: 117 117 74
Width: 1194
Flags: HW
LayerCount: 2
Fore
SplineSet
1128 42 m 1,0,1
 1018.53 -23 1018.53 -23 954 -23 c 0,2,3
 892.25 -23 892.25 -23 861.625 1.5 c 0,4,5
 808 44.4 808 44.4 808 101 c 2,6,-1
 808 115 l 1,7,8
 721.527 41.6856 721.527 41.6856 629.763 9.3428 c 128,-1,9
 538 -23 538 -23 469 -23 c 0,10,11
 329 -23 329 -23 249.5 53.5 c 128,-1,12
 170 130 170 130 170 285 c 2,13,-1
 170 834 l 1,14,-1
 51 854 l 1,15,-1
 51 942 l 1,16,-1
 332 1013 l 1,17,-1
 332 285 l 2,18,19
 332 194.582 332 194.582 393.5 146.5 c 0,20,21
 445.302 106 445.302 106 514.151 106 c 0,22,23
 626.87 106 626.87 106 726 166 c 1,24,25
 771 192 771 192 808 227 c 1,26,-1
 808 834 l 1,27,-1
 657 854 l 1,28,-1
 657 937 l 1,29,-1
 970 1013 l 1,30,-1
 970 169 l 2,31,32
 970 115 970 115 1024 115 c 0,33,34
 1062 115 1062 115 1107 136 c 1,35,-1
 1128 42 l 1,0,1
EndSplineSet
Substitution2: "'smcp' Lowercase to Small Capitals in Latin lookup 6 subtable" .notdef
EndChar

StartChar: v
Encoding: 118 118 75
Width: 1024
Flags: HW
LayerCount: 2
Fore
SplineSet
574 0 m 1,0,-1
 435 0 l 1,1,-1
 60 883 l 1,2,-1
 -30 906 l 1,3,-1
 -30 989 l 1,4,-1
 359 989 l 1,5,-1
 359 906 l 1,6,-1
 244 883 l 1,7,-1
 542 162 l 1,8,-1
 823 888 l 1,9,-1
 710 906 l 1,10,-1
 710 989 l 1,11,-1
 1035 989 l 1,12,-1
 1035 906 l 1,13,-1
 945 883 l 1,14,-1
 574 0 l 1,0,-1
EndSplineSet
Substitution2: "'smcp' Lowercase to Small Capitals in Latin lookup 6 subtable" .notdef
EndChar

StartChar: w
Encoding: 119 119 76
Width: 1708
Flags: HW
LayerCount: 2
Fore
SplineSet
1252 0 m 1,0,-1
 1113 0 l 1,1,-1
 861 707 l 1,2,-1
 600 0 l 1,3,-1
 461 0 l 1,4,-1
 110 883 l 1,5,-1
 -4 906 l 1,6,-1
 -4 989 l 1,7,-1
 409 989 l 1,8,-1
 409 906 l 1,9,-1
 293 883 l 1,10,-1
 567 162 l 1,11,-1
 803 834 l 1,12,-1
 774 883 l 1,13,-1
 647 906 l 1,14,-1
 647 989 l 1,15,-1
 1083 989 l 1,16,-1
 1083 906 l 1,17,-1
 960 883 l 1,18,-1
 1219 162 l 1,19,20
 1481 888 l 1,21,-1
 1365 906 l 1,22,-1
 1365 989 l 1,23,-1
 1713 989 l 1,24,-1
 1713 906 l 1,25,-1
 1601 883 l 1,26,-1
 1252 0 l 1,0,-1
EndSplineSet
Substitution2: "'smcp' Lowercase to Small Capitals in Latin lookup 6 subtable" .notdef
EndChar

StartChar: x
Encoding: 120 120 77
Width: 1024
Flags: HW
LayerCount: 2
Fore
SplineSet
18 906 m 1,0,-1
 18 989 l 1,1,-1
 501 989 l 1,2,-1
 501 906 l 1,3,-1
 359 883 l 1,4,-1
 562 595 l 1,5,-1
 769 883 l 1,6,-1
 666 906 l 1,7,-1
 666 989 l 1,8,-1
 1035 989 l 1,9,-1
 1035 906 l 1,10,-1
 901 885 l 1,11,-1
 623 521 l 1,12,-1
 920 106 l 1,13,-1
 1061 83 l 1,14,-1
 1061 0 l 1,15,-1
 599 0 l 1,16,-1
 599 83 l 1,17,-1
 725 106 l 1,18,-1
 497 422 l 1,19,-1
 270 106 l 1,20,-1
 374 83 l 1,21,-1
 374 0 l 1,22,-1
 -6 0 l 1,23,-1
 -6 83 l 1,24,-1
 138 106 l 1,25,-1
 435 499 l 1,26,-1
 164 883 l 1,27,-1
 18 906 l 1,0,-1
EndSplineSet
Substitution2: "'smcp' Lowercase to Small Capitals in Latin lookup 6 subtable" .notdef
Substitution2: "'ss01' Style Set 1 in Latin lookup 4 subtable" .notdef
EndChar

StartChar: y
Encoding: 121 121 78
Width: 1030
Flags: HW
LayerCount: 2
Fore
SplineSet
131 -247 m 1,0,1
 131 -345 131 -345 218 -345 c 0,2,3
 270.364 -345 270.364 -345 309.5 -283.5 c 0,4,5
 320 -267 320 -267 326 -250 c 1,6,-1
 438 -2 l 1,7,8
 104.476 782.866 104.476 782.866 65 883 c 1,9,-1
 -72 906 l 1,10,-1
 -72 989 l 1,11,-1
 374 989 l 1,12,-1
 374 906 l 1,13,-1
 250 883 l 1,14,-1
 528 209 l 1,15,-1
 822 888 l 1,16,-1
 688 906 l 1,17,-1
 688 989 l 1,18,-1
 1081 989 l 1,19,-1
 1081 906 l 1,20,-1
 944 883 l 1,21,-1
 442 -260 l 1,22,23
 420.426 -331.913 420.426 -331.913 373.213 -384.456 c 0,24,25
 282.87 -485 282.87 -485 218 -485 c 0,26,27
 121.75 -485 121.75 -485 25 -442 c 1,28,-1
 79 -247 l 1,29,-1
 131 -247 l 1,0,1
EndSplineSet
Substitution2: "'smcp' Lowercase to Small Capitals in Latin lookup 6 subtable" .notdef
EndChar

StartChar: z
Encoding: 122 122 79
Width: 1024
Flags: HW
LayerCount: 2
Fore
SplineSet
661 895 m 1,0,-1
 240 895 l 1,1,-1
 151 789 l 1,2,-1
 85 789 l 1,3,-1
 139 989 l 1,4,-1
 872 989 l 1,5,-1
 872 897 l 1,6,-1
 283 94 l 1,7,-1
 746 94 l 1,8,-1
 836 200 l 1,9,-1
 902 200 l 1,10,-1
 848 0 l 1,11,-1
 72 0 l 1,12,-1
 72 92 l 1,13,-1
 661 895 l 1,0,-1
EndSplineSet
Substitution2: "'smcp' Lowercase to Small Capitals in Latin lookup 6 subtable" .notdef
Substitution2: "'ss01' Style Set 1 in Latin lookup 4 subtable" .notdef
EndChar

StartChar: bar
Encoding: 124 124 80
Width: 512
Flags: HW
LayerCount: 2
Fore
SplineSet
197 1766 m 1,0,-1
 315 1766 l 1,1,-1
 315 -559 l 1,2,-1
 197 -559 l 1,3,-1
 197 1766 l 1,0,-1
EndSplineSet
EndChar

StartChar: exclamdown
Encoding: 161 161 81
Width: 512
Flags: HW
LayerCount: 2
Fore
SplineSet
371 925.5 m 128,-1,1
 385 903 385 903 385 884 c 128,-1,2
 385 865 385 865 372.5 842.5 c 128,-1,3
 360 820 360 820 340.5 800 c 0,4,5
 294.675 753 294.675 753 265.837 753 c 128,-1,6
 237 753 237 753 214 766 c 128,-1,7
 191 779 191 779 171.5 798.5 c 0,8,9
 127 843 127 843 127 872.5 c 128,-1,10
 127 902 127 902 140 924.5 c 128,-1,11
 153 947 153 947 172.5 966.5 c 0,12,13
 217 1011 217 1011 257 1011 c 0,14,15
 290.684 1011 290.684 1011 323.842 979.5 c 128,-1,0
 357 948 357 948 371 925.5 c 128,-1,1
174 -560 m 1,16,17
 174 -153.4 174 -153.4 192 -49 c 1,18,19
 192 -16.5714 192 -16.5714 198 77.7143 c 2,20,-1
 208 234.5 l 2,21,22
 224 484.5 224 484.5 224 598 c 1,23,-1
 302 598 l 1,24,25
 302 458.5 302 458.5 313.5 314.75 c 128,-1,26
 325 171 325 171 329 116.5 c 0,27,28
 338 -6.125 338 -6.125 338 -49 c 1,29,30
 356 -146.2 356 -146.2 356 -513 c 1,31,-1
 174 -560 l 1,16,17
EndSplineSet
EndChar

StartChar: yen
Encoding: 165 165 82
Width: 1364
Flags: HW
LayerCount: 2
Fore
SplineSet
1110 624 m 1,0,-1
 1110 506 l 1,1,-1
 787 506 l 1,2,-1
 787 373 l 1,3,-1
 1110 373 l 1,4,-1
 1110 252 l 1,5,-1
 787 252 l 1,6,-1
 787 106 l 1,7,-1
 937 83 l 1,8,-1
 937 0 l 1,9,-1
 450 0 l 1,10,-1
 450 83 l 1,11,-1
 600 106 l 1,12,-1
 600 252 l 1,13,-1
 267 252 l 1,14,-1
 267 373 l 1,15,-1
 600 373 l 1,16,-1
 600 506 l 1,17,-1
 267 506 l 1,18,-1
 267 624 l 1,19,-1
 591 624 l 1,20,-1
 169 1400 l 1,21,-1
 169 1394 l 1,22,-1
 5 1416 l 1,23,-1
 5 1501 l 1,24,-1
 535 1501 l 1,25,-1
 535 1416 l 1,26,-1
 402 1394 l 1,27,-1
 711 777 l 1,28,-1
 1052 1394 l 1,29,-1
 921 1416 l 1,30,-1
 921 1501 l 1,31,-1
 1362 1501 l 1,32,-1
 1362 1416 l 1,33,-1
 1196 1394 l 1,34,-1
 1196 1400 l 1,35,36
 787 681 l 1,37,-1
 787 624 l 1,38,-1
 1110 624 l 1,0,-1
EndSplineSet
EndChar

StartChar: section
Encoding: 167 167 83
Width: 1024
Flags: HW
LayerCount: 2
Fore
SplineSet
409 989 m 1,0,1
 303 921.867 303 921.867 303 836 c 0,2,3
 303 718.169 303 718.169 611 562 c 1,4,5
 726 625.065 726 625.065 726 708 c 0,6,7
 726 804.43 726 804.43 553.5 908.5 c 0,8,9
 493 945 493 945 409 989 c 1,0,1
712 513 m 1,10,11
 872 421 872 421 872 263 c 0,12,13
 872 124.486 872 124.486 750.5 45 c 0,14,15
 646.557 -23 646.557 -23 503 -23 c 0,16,17
 281.185 -23 281.185 -23 151 72 c 1,18,-1
 182 306 l 1,19,-1
 234 306 l 1,20,21
 234 83 234 83 501 83 c 0,22,23
 598.818 83 598.818 83 654.5 133 c 0,24,25
 703 176.551 703 176.551 703 219.276 c 128,-1,26
 703 262 703 262 695 283 c 128,-1,27
 687 304 687 304 662 325.5 c 128,-1,28
 637 347 637 347 591.5 372.5 c 2,29,-1
 470 438 l 2,30,31
 296.829 530.77 296.829 530.77 234.5 601 c 0,32,33
 168 675.93 168 675.93 168 787 c 0,34,35
 168 886.571 168 886.571 241 970 c 0,36,37
 273 1008 273 1008 314 1036 c 1,38,39
 250 1075 250 1075 216 1125.5 c 128,-1,40
 182 1176 182 1176 182 1245.5 c 128,-1,41
 182 1315 182 1315 206.5 1365 c 128,-1,42
 231 1415 231 1415 275 1450.5 c 0,43,44
 366.099 1524 366.099 1524 515 1524 c 0,45,46
 696 1524 696 1524 804 1470 c 1,47,-1
 778 1245 l 1,48,-1
 724 1245 l 1,49,50
 724 1336 724 1336 677 1376 c 128,-1,51
 630 1416 630 1416 553 1416 c 128,-1,52
 476 1416 476 1416 439.5 1406 c 128,-1,53
 403 1396 403 1396 379.5 1378.5 c 0,54,55
 335 1345.36 335 1345.36 335 1293 c 0,56,57
 335 1237.88 335 1237.88 450.5 1165.5 c 0,58,59
 488 1142 488 1142 563.5 1099 c 128,-1,60
 639 1056 639 1056 702.5 1011.5 c 128,-1,61
 766 967 766 967 801.5 928 c 0,62,63
 863 860.437 863 860.437 863 785.218 c 128,-1,64
 863 710 863 710 839.5 663.5 c 0,65,66
 792.5 570.5 792.5 570.5 712 513 c 1,10,11
EndSplineSet
EndChar

StartChar: dieresis
Encoding: 168 168 84
Width: 902
Flags: HW
LayerCount: 2
Fore
SplineSet
154.5 1195.5 m 128,-1,1
 141 1217 141 1217 141 1235 c 128,-1,2
 141 1253 141 1253 153 1274.5 c 128,-1,3
 165 1296 165 1296 183 1314.5 c 0,4,5
 226.297 1359 226.297 1359 253.149 1359 c 128,-1,6
 280 1359 280 1359 302 1347 c 128,-1,7
 324 1335 324 1335 342 1316.5 c 0,8,9
 384 1273.33 384 1273.33 384 1245.67 c 128,-1,10
 384 1218 384 1218 371.5 1197 c 128,-1,11
 359 1176 359 1176 340.5 1158 c 0,12,13
 297.333 1116 297.333 1116 271.667 1116 c 128,-1,14
 246 1116 246 1116 225.5 1127.5 c 128,-1,15
 205 1139 205 1139 186.5 1156.5 c 128,-1,0
 168 1174 168 1174 154.5 1195.5 c 128,-1,1
532 1195.5 m 128,-1,17
 519 1217 519 1217 519 1235 c 128,-1,18
 519 1253 519 1253 530.5 1274.5 c 128,-1,19
 542 1296 542 1296 560 1314.5 c 0,20,21
 603.297 1359 603.297 1359 630.149 1359 c 128,-1,22
 657 1359 657 1359 679 1347 c 128,-1,23
 701 1335 701 1335 719 1316.5 c 0,24,25
 761 1273.33 761 1273.33 761 1245.67 c 128,-1,26
 761 1218 761 1218 749 1197 c 128,-1,27
 737 1176 737 1176 718.5 1158 c 0,28,29
 675.333 1116 675.333 1116 649.167 1116 c 128,-1,30
 623 1116 623 1116 602.5 1127.5 c 128,-1,31
 582 1139 582 1139 563.5 1156.5 c 128,-1,16
 545 1174 545 1174 532 1195.5 c 128,-1,17
EndSplineSet
EndChar

StartChar: copyright
Encoding: 169 169 85
Width: 1882
Flags: HW
LayerCount: 2
Fore
SplineSet
188.5 546.5 m 128,-1,1
 162 645 162 645 162 751.5 c 128,-1,2
 162 858 162 858 188.5 957 c 128,-1,3
 215 1056 215 1056 264.5 1143 c 128,-1,4
 314 1230 314 1230 384.5 1301.5 c 128,-1,5
 455 1373 455 1373 542 1424 c 0,6,7
 724.529 1531 724.529 1531 944 1531 c 256,8,9
 1276.42 1531 1276.42 1531 1499.5 1301.5 c 0,10,11
 1638.59 1158.41 1638.59 1158.41 1692.5 957 c 0,12,13
 1719 858 1719 858 1719 725 c 128,-1,14
 1719 592 1719 592 1661 451.5 c 128,-1,15
 1603 311 1603 311 1499.5 205.5 c 128,-1,16
 1396 100 1396 100 1254 38.5 c 128,-1,17
 1112 -23 1112 -23 972 -23 c 128,-1,18
 832 -23 832 -23 730.5 5 c 128,-1,19
 629 33 629 33 542 83.5 c 128,-1,20
 455 134 455 134 384.5 205 c 128,-1,21
 314 276 314 276 264.5 362 c 128,-1,0
 215 448 215 448 188.5 546.5 c 128,-1,1
299 751 m 256,22,23
 299 468.714 299 468.714 486.5 278 c 0,24,25
 674.281 87 674.281 87 944 87 c 256,26,27
 1213.72 87 1213.72 87 1401.5 278 c 0,28,29
 1589 468.714 1589 468.714 1589 751 c 256,30,31
 1589 892 1589 892 1539 1014.5 c 128,-1,32
 1489 1137 1489 1137 1401.5 1227 c 0,33,34
 1213.86 1420 1213.86 1420 944 1420 c 256,35,36
 674.139 1420 674.139 1420 486.5 1227 c 0,37,38
 399 1137 399 1137 349 1014.5 c 128,-1,39
 299 892 299 892 299 751 c 256,22,23
1295 365 m 1,40,41
 1170.8 296 1170.8 296 972 296 c 0,42,43
 767.705 296 767.705 296 631.5 409 c 0,44,45
 484 531.37 484 531.37 484 739 c 0,46,47
 484 949.427 484 949.427 628.5 1084 c 0,48,49
 762.721 1209 762.721 1209 962.138 1209 c 128,-1,50
 1161.56 1209 1161.56 1209 1286 1145 c 1,51,-1
 1272 916 l 1,52,-1
 1223 916 l 1,53,54
 1223 1114 1223 1114 951 1114 c 0,55,56
 813.659 1114 813.659 1114 736 1018.5 c 0,57,58
 661 926.27 661 926.27 661 770 c 0,59,60
 661 510.92 661 510.92 828.5 420.5 c 0,61,62
 885 390 885 390 959 390 c 128,-1,63
 1033 390 1033 390 1083.5 406.5 c 128,-1,64
 1134 423 1134 423 1167 450.5 c 0,65,66
 1232 504.667 1232 504.667 1232 590 c 1,67,-1
 1279 590 l 1,68,-1
 1295 365 l 1,40,41
EndSplineSet
EndChar

StartChar: ordfeminine
Encoding: 170 170 86
Width: 853
Flags: HW
LayerCount: 2
Fore
SplineSet
649 806 m 0,0,1
 548 806 548 806 548 893 c 2,2,-1
 548 914 l 1,3,4
 494.261 860.261 494.261 860.261 428.13 833.13 c 128,-1,5
 362 806 362 806 331 806 c 128,-1,6
 300 806 300 806 268 812 c 128,-1,7
 236 818 236 818 206 837.5 c 0,8,9
 134 884.3 134 884.3 134 987 c 0,10,11
 134 1057 134 1057 158 1085.5 c 0,12,13
 208.119 1145.02 208.119 1145.02 314.5 1160 c 0,14,15
 428.1 1176 428.1 1176 548 1176 c 1,16,-1
 548 1323 l 2,17,18
 548 1384.87 548 1384.87 533 1404.43 c 0,19,20
 505.733 1440 505.733 1440 442 1440 c 0,21,22
 337.143 1440 337.143 1440 213 1361 c 1,23,-1
 172 1422 l 1,24,25
 339.133 1531 339.133 1531 466 1531 c 0,26,27
 662 1531 662 1531 662 1332 c 2,28,-1
 662 963 l 2,29,30
 662 926 662 926 669.5 914 c 128,-1,31
 677 902 677 902 706.357 902 c 128,-1,32
 735.714 902 735.714 902 786 924 c 1,33,-1
 799 858 l 1,34,35
 698.467 806 698.467 806 649 806 c 0,0,1
548 1117 m 1,36,37
 433.4 1117 433.4 1117 372.2 1102.5 c 128,-1,38
 311 1088 311 1088 293 1077.5 c 128,-1,39
 275 1067 275 1067 265.5 1054 c 0,40,41
 250 1032.79 250 1032.79 250 1000.39 c 128,-1,42
 250 968 250 968 259 948.5 c 128,-1,43
 268 929 268 929 281.5 917.5 c 0,44,45
 306.739 896 306.739 896 341.87 896 c 128,-1,46
 377 896 377 896 409 906 c 128,-1,47
 441 916 441 916 469 929.5 c 0,48,49
 512.101 950.281 512.101 950.281 548 979 c 1,50,-1
 548 1117 l 1,36,37
EndSplineSet
EndChar

StartChar: guillemotleft
Encoding: 171 171 87
Width: 1200
Flags: HW
LayerCount: 2
Fore
SplineSet
524 906 m 1,0,-1
 598 831 l 1,1,-1
 387 596 l 1,2,-1
 265 474 l 1,3,-1
 384 355 l 1,4,-1
 603 117 l 1,5,-1
 524 38 l 1,6,-1
 135 474 l 1,7,-1
 524 906 l 1,0,-1
985 906 m 1,8,-1
 1060 831 l 1,9,-1
 848 596 l 1,10,-1
 725 474 l 1,11,-1
 846 355 l 1,12,-1
 1065 117 l 1,13,-1
 985 38 l 1,14,-1
 597 474 l 1,15,-1
 985 906 l 1,8,-1
EndSplineSet
EndChar

StartChar: logicalnot
Encoding: 172 172 88
Width: 1362
Flags: HW
LayerCount: 2
Fore
SplineSet
204 940 m 1,0,-1
 1158 940 l 1,1,-1
 1158 358 l 1,2,-1
 1043 358 l 1,3,-1
 1043 834 l 1,4,-1
 204 834 l 1,5,-1
 204 940 l 1,0,-1
EndSplineSet
EndChar

StartChar: registered
Encoding: 174 174 89
Width: 1028
Flags: HW
LayerCount: 2
Fore
SplineSet
192 1146.5 m 0,0,1
 192 1076 192 1076 217 1015.5 c 128,-1,2
 242 955 242 955 285.5 910.5 c 0,3,4
 378.854 815 378.854 815 515 815 c 0,5,6
 650.146 815 650.146 815 743.5 910.5 c 0,7,8
 838 1007.17 838 1007.17 838 1147 c 0,9,10
 838 1286.24 838 1286.24 743.5 1384 c 0,11,12
 649.733 1481 649.733 1481 515 1481 c 0,13,14
 379.267 1481 379.267 1481 285.5 1384 c 0,15,16
 192 1287.28 192 1287.28 192 1146.5 c 0,0,1
666 1260 m 0,17,18
 666 1168.85 666 1168.85 571 1142 c 1,19,-1
 670 973 l 1,20,-1
 715 966 l 1,21,-1
 715 949 l 1,22,-1
 628 949 l 1,23,-1
 519 1133 l 1,24,-1
 434 1133 l 1,25,-1
 434 973 l 1,26,-1
 477 966 l 1,27,-1
 477 949 l 1,28,-1
 338 949 l 1,29,-1
 338 966 l 1,30,-1
 380 973 l 1,31,-1
 380 1337 l 1,32,-1
 338 1342 l 1,33,-1
 338 1364 l 1,34,-1
 513 1364 l 2,35,36
 666 1364 666 1364 666 1260 c 0,17,18
513 1159 m 2,37,38
 611 1159 611 1159 611 1253 c 256,39,40
 611 1296 611 1296 588 1315.5 c 128,-1,41
 565 1335 565 1335 503 1335 c 2,42,-1
 434 1335 l 1,43,-1
 434 1159 l 1,44,-1
 513 1159 l 2,37,38
131 1147.5 m 0,45,46
 131 1226 131 1226 160 1295.5 c 128,-1,47
 189 1365 189 1365 241 1417.5 c 0,48,49
 353.419 1531 353.419 1531 517 1531 c 0,50,51
 678.743 1531 678.743 1531 789 1417.5 c 0,52,53
 897 1306.32 897 1306.32 897 1147 c 0,54,55
 897 989.118 897 989.118 789 879 c 0,56,57
 678.173 766 678.173 766 517 766 c 0,58,59
 354 766 354 766 241 879 c 0,60,61
 131 989 131 989 131 1147.5 c 0,45,46
EndSplineSet
EndChar

StartChar: degree
Encoding: 176 176 90
Width: 853
Flags: HW
LayerCount: 2
Fore
SplineSet
108 1220 m 256,0,1
 108 1358.52 108 1358.52 202.5 1446.5 c 0,2,3
 293.259 1531 293.259 1531 426 1531 c 128,-1,4
 558.741 1531 558.741 1531 649.5 1446.5 c 0,5,6
 744 1358.52 744 1358.52 744 1220 c 0,7,8
 744 1080.07 744 1080.07 649.5 991 c 0,9,10
 559.317 906 559.317 906 426 906 c 0,11,12
 293.744 906 293.744 906 202.5 992 c 0,13,14
 108 1081.07 108 1081.07 108 1220 c 256,0,1
243 1307 m 0,15,16
 228 1268 228 1268 228 1219 c 128,-1,17
 228 1170 228 1170 243 1130 c 128,-1,18
 258 1090 258 1090 284 1061.5 c 0,19,20
 337.368 1003 337.368 1003 426 1003 c 256,21,22
 511.661 1003 511.661 1003 567.5 1062 c 0,23,24
 624 1121.7 624 1121.7 624 1220 c 0,25,26
 624 1313.74 624 1313.74 567.5 1374.5 c 0,27,28
 512.175 1434 512.175 1434 426 1434 c 256,29,30
 291.846 1434 291.846 1434 243 1307 c 0,15,16
EndSplineSet
EndChar

StartChar: plusminus
Encoding: 177 177 91
Width: 1362
Flags: HW
LayerCount: 2
Fore
SplineSet
735 1382 m 1,0,-1
 735 906 l 1,1,-1
 1223 906 l 1,2,-1
 1223 800 l 1,3,-1
 735 800 l 1,4,-1
 735 299 l 1,5,-1
 629 299 l 1,6,-1
 629 800 l 1,7,-1
 139 800 l 1,8,-1
 139 906 l 1,9,-1
 629 906 l 1,10,-1
 629 1382 l 1,11,-1
 735 1382 l 1,0,-1
1223 106 m 1,12,-1
 1223 0 l 1,13,-1
 139 0 l 1,14,-1
 139 106 l 1,15,-1
 1223 106 l 1,12,-1
EndSplineSet
EndChar

StartChar: acute
Encoding: 180 180 92
Width: 575
Flags: HW
LayerCount: 2
Fore
SplineSet
526 1510 m 1,0,-1
 169 1190 l 1,1,-1
 122 1230 l 1,2,-1
 365 1560 l 1,3,-1
 526 1510 l 1,0,-1
EndSplineSet
EndChar

StartChar: paragraph
Encoding: 182 182 93
Width: 1371
Flags: HW
LayerCount: 2
Fore
SplineSet
1284 1501 m 1,0,-1
 1284 1416 l 1,1,-1
 1154 1394 l 1,2,-1
 1154 -308 l 1,3,-1
 1284 -332 l 1,4,-1
 1284 -416 l 1,5,-1
 1039 -416 l 1,6,-1
 1039 1382 l 1,7,-1
 843 1382 l 1,8,-1
 843 -416 l 1,9,-1
 504 -416 l 1,10,-1
 504 -332 l 1,11,-1
 723 -308 l 1,12,-1
 723 481 l 1,13,-1
 688 481 l 2,14,15
 415.601 481 415.601 481 249.5 627 c 0,16,17
 86 770.713 86 770.713 86 996 c 0,18,19
 86 1214 86 1214 220.5 1348.5 c 0,20,21
 373 1501 373 1501 655 1501 c 2,22,-1
 1284 1501 l 1,0,-1
EndSplineSet
EndChar

StartChar: periodcentered
Encoding: 183 183 94
Width: 512
Flags: HW
LayerCount: 2
Fore
SplineSet
141 550.5 m 128,-1,1
 127 573 127 573 127 592 c 128,-1,2
 127 611 127 611 139.5 633.5 c 128,-1,3
 152 656 152 656 171 676 c 0,4,5
 215.65 723 215.65 723 255 723 c 256,6,7
 295.667 723 295.667 723 327.333 690.5 c 0,8,9
 384 632.342 384 632.342 384 593 c 256,10,11
 384 556 384 556 352 524 c 0,12,13
 295 467 295 467 255 467 c 0,14,15
 220.946 467 220.946 467 187.973 497.5 c 128,-1,0
 155 528 155 528 141 550.5 c 128,-1,1
EndSplineSet
EndChar

StartChar: cedilla
Encoding: 184 184 95
Width: 629
Flags: HW
LayerCount: 2
Fore
SplineSet
373 9 m 1,0,-1
 306 -135 l 1,1,2
 451.136 -135 451.136 -135 512.5 -225 c 0,3,4
 535 -258 535 -258 535 -299.5 c 0,5,6
 535 -370.912 535 -370.912 454 -440 c 1,7,8
 355 -528 355 -528 292 -528 c 0,9,10
 186.368 -528 186.368 -528 94 -463 c 1,11,-1
 128 -337 l 1,12,-1
 167 -337 l 1,13,14
 167 -400.111 167 -400.111 254.5 -421.5 c 0,15,16
 277 -427 277 -427 300 -427 c 0,17,18
 365.318 -427 365.318 -427 387.659 -404 c 128,-1,19
 410 -381 410 -381 413 -362.5 c 128,-1,20
 416 -344 416 -344 416 -319 c 128,-1,21
 416 -294 416 -294 401 -272 c 128,-1,22
 386 -250 386 -250 358.5 -235 c 0,23,24
 305.7 -206.2 305.7 -206.2 207 -202 c 1,25,-1
 189 -158 l 1,26,-1
 310 31 l 1,27,-1
 373 9 l 1,0,-1
EndSplineSet
EndChar

StartChar: ordmasculine
Encoding: 186 186 96
Width: 853
Flags: HW
LayerCount: 2
Fore
SplineSet
57 1162.5 m 0,0,1
 57 1243 57 1243 84.5 1312.5 c 128,-1,2
 112 1382 112 1382 159.5 1430.5 c 0,3,4
 257.928 1531 257.928 1531 402 1531 c 0,5,6
 567.849 1531 567.849 1531 662 1431.5 c 0,7,8
 751 1337.44 751 1337.44 751 1185 c 0,9,10
 751 1014.87 751 1014.87 650 908.5 c 0,11,12
 552.677 806 552.677 806 408 806 c 0,13,14
 243.128 806 243.128 806 147.5 907 c 0,15,16
 57 1002.58 57 1002.58 57 1162.5 c 0,0,1
194.5 1286.5 m 128,-1,18
 180 1238 180 1238 180 1182 c 128,-1,19
 180 1126 180 1126 193 1072.5 c 128,-1,20
 206 1019 206 1019 233.5 978 c 0,21,22
 293.866 888 293.866 888 407 888 c 0,23,24
 512.522 888 512.522 888 572.5 958.5 c 0,25,26
 630 1026.09 630 1026.09 630 1143 c 256,27,28
 630 1350.93 630 1350.93 511.5 1421.5 c 0,29,30
 467 1448 467 1448 407 1448 c 128,-1,31
 347 1448 347 1448 306 1427.5 c 128,-1,32
 265 1407 265 1407 237 1371 c 128,-1,17
 209 1335 209 1335 194.5 1286.5 c 128,-1,18
EndSplineSet
EndChar

StartChar: AE
Encoding: 198 198 105
Width: 1877
Flags: HW
LayerCount: 2
Fore
SplineSet
1786 1211 m 1,0,-1
 1701 1211 l 1,1,-1
 1647 1387 l 1,2,-1
 1135 1387 l 1,3,-1
 1135 843 l 1,4,-1
 1492 843 l 1,5,-1
 1522 949 l 1,6,-1
 1593 949 l 1,7,-1
 1593 618 l 1,8,-1
 1522 618 l 1,9,-1
 1492 723 l 1,10,-1
 1135 723 l 1,11,-1
 1135 120 l 1,12,-1
 1663 120 l 1,13,-1
 1737 297 l 1,14,-1
 1809 297 l 1,15,-1
 1779 0 l 1,16,-1
 798 0 l 1,17,-1
 798 85 l 1,18,-1
 949 108 l 1,19,-1
 949 577 l 1,20,-1
 555 577 l 1,21,-1
 281 108 l 1,22,-1
 386 85 l 1,23,-1
 386 0 l 1,24,-1
 -7 0 l 1,25,-1
 -7 85 l 1,26,-1
 155 108 l 1,27,-1
 917 1404 l 1,28,-1
 800 1423 l 1,29,-1
 800 1508 l 1,30,-1
 1764 1508 l 1,31,-1
 1786 1211 l 1,0,-1
949 695 m 1,32,-1
 949 1260 l 1,33,34
 620 695 l 1,35,-1
 949 695 l 1,32,-1
EndSplineSet
EndChar

StartChar: Oslash
Encoding: 216 216 121
Width: 1711
Flags: HW
LayerCount: 2
Fore
SplineSet
440 80 m 1,0,-1
 440 83 l 1,1,-1
 321 -85 l 1,2,-1
 244 -31 l 1,3,-1
 357 135 l 1,4,5
 226 238 226 238 157.5 391.5 c 128,-1,6
 89 545 89 545 89 698 c 128,-1,7
 89 851 89 851 117.5 959 c 128,-1,8
 146 1067 146 1067 197 1156 c 128,-1,9
 248 1245 248 1245 318.5 1315 c 128,-1,10
 389 1385 389 1385 473.5 1433 c 0,11,12
 646.021 1531 646.021 1531 861.782 1531 c 128,-1,13
 1077.54 1531 1077.54 1531 1261 1434 c 1,14,-1
 1261 1432 l 1,15,-1
 1361 1580 l 1,16,-1
 1440 1526 l 1,17,-1
 1342 1382 l 1,18,19
 1547.21 1239.24 1547.21 1239.24 1604 969.5 c 0,20,21
 1622 884 1622 884 1622 775 c 128,-1,22
 1622 666 1622 666 1594 557.5 c 128,-1,23
 1566 449 1566 449 1515.5 358.5 c 128,-1,24
 1465 268 1465 268 1395 197 c 128,-1,25
 1325 126 1325 126 1240.5 77 c 0,26,27
 1068.05 -23 1068.05 -23 843.635 -23 c 128,-1,28
 619.22 -23 619.22 -23 440 80 c 1,0,-1
532 214 m 1,29,30
 665.56 108 665.56 108 861 108 c 0,31,32
 1110.72 108 1110.72 108 1268.5 271 c 0,33,34
 1429 436.815 1429 436.815 1429 699 c 0,35,36
 1429 942.786 1429 942.786 1325 1128.5 c 0,37,38
 1290 1191 1290 1191 1243 1241 c 1,39,-1
 532 214 l 1,29,30
1170 1303 m 1,40,41
 1032.04 1400 1032.04 1400 842 1400 c 0,42,43
 601.59 1400 601.59 1400 442 1221 c 0,44,45
 285 1044.91 285 1044.91 285 789 c 0,46,47
 285 563.8 285 563.8 383.5 386.5 c 0,48,49
 416 328 416 328 458 281 c 1,50,-1
 1170 1303 l 1,40,41
EndSplineSet
EndChar

StartChar: germandbls
Encoding: 223 223 126
Width: 1196
Flags: HW
LayerCount: 2
Fore
SplineSet
202 876 m 1,0,-1
 72 876 l 1,1,-1
 72 959 l 1,2,-1
 202 989 l 1,3,-1
 202 1169 l 2,4,5
 202 1293.69 202 1293.69 303 1462.5 c 0,6,7
 377.602 1587.19 377.602 1587.19 499 1645 c 0,8,9
 562 1675 562 1675 644.5 1675 c 128,-1,10
 727 1675 727 1675 796.5 1655 c 128,-1,11
 866 1635 866 1635 914.5 1598.5 c 0,12,13
 1016 1522.11 1016 1522.11 1016 1402 c 0,14,15
 1016 1293.47 1016 1293.47 896.5 1160 c 0,16,17
 858 1117 858 1117 817.5 1077 c 2,18,-1
 754.5 1013.5 l 1,19,20
 708.521 965.477 708.521 965.477 698.76 925.739 c 128,-1,21
 689 886 689 886 689 850.5 c 128,-1,22
 689 815 689 815 703 784.5 c 128,-1,23
 717 754 717 754 747.5 721 c 0,24,25
 808.644 654.845 808.644 654.845 947 573 c 0,26,27
 1166 442 1166 442 1166 256 c 0,28,29
 1166 119.01 1166 119.01 1048 41.5 c 0,30,31
 949.806 -23 949.806 -23 827 -23 c 0,32,33
 677 -23 677 -23 582 72 c 1,34,-1
 605 243 l 1,35,-1
 657 243 l 1,36,37
 657 133.762 657 133.762 748.5 96 c 0,38,39
 780 83 780 83 822.5 83 c 128,-1,40
 865 83 865 83 897.5 96 c 128,-1,41
 930 109 930 109 952 129.5 c 0,42,43
 997 171.432 997 171.432 997 231.216 c 0,44,45
 997 343.434 997 343.434 830 438 c 0,46,47
 583.887 577.107 583.887 577.107 547.5 710 c 0,48,49
 536 752 536 752 536 802.5 c 128,-1,50
 536 853 536 853 550.5 895 c 128,-1,51
 565 937 565 937 588 970.5 c 128,-1,52
 611 1004 611 1004 640 1031.5 c 2,53,-1
 698 1086 l 2,54,55
 863 1240.69 863 1240.69 863 1352 c 0,56,57
 863 1446.16 863 1446.16 792 1501.5 c 0,58,59
 722.076 1556 722.076 1556 609 1556 c 0,60,61
 509.448 1556 509.448 1556 437 1460.5 c 0,62,63
 365 1365.59 365 1365.59 365 1239 c 2,64,-1
 365 106 l 1,65,-1
 469 83 l 1,66,-1
 469 0 l 1,67,-1
 72 0 l 1,68,-1
 72 83 l 1,69,-1
 202 106 l 1,70,-1
 202 876 l 1,0,-1
EndSplineSet
EndChar

StartChar: ae
Encoding: 230 230 133
Width: 1702
Flags: HW
LayerCount: 2
Fore
SplineSet
1508 229 m 1,0,-1
 1562 164 l 1,1,2
 1411.66 21.7172 1411.66 21.7172 1262.5 -15 c 0,3,4
 1230 -23 1230 -23 1181 -23 c 128,-1,5
 1132 -23 1132 -23 1071 -7.5 c 128,-1,6
 1010 8 1010 8 957.5 36 c 0,7,8
 851.562 92.5 851.562 92.5 790 191 c 1,9,-1
 765.5 161.5 l 1,10,11
 655.641 31.6667 655.641 31.6667 505 -10 c 0,12,13
 458 -23 458 -23 422 -23 c 128,-1,14
 386 -23 386 -23 358.5 -19.5 c 128,-1,15
 331 -16 331 -16 301.5 -6 c 128,-1,16
 272 4 272 4 243 22 c 128,-1,17
 214 40 214 40 191 69 c 0,18,19
 140 133.304 140 133.304 140 236.152 c 0,20,21
 140 439.716 140 439.716 317 490 c 0,22,23
 379.916 506.939 379.916 506.939 426.458 515.969 c 2,24,-1
 508 531.5 l 2,25,26
 582.59 545.352 582.59 545.352 729 566 c 1,27,-1
 729 716 l 2,28,29
 729 802.742 729 802.742 708 831.871 c 0,30,31
 671.14 883 671.14 883 580 883 c 0,32,33
 420.677 883 420.677 883 253 770 c 1,34,-1
 194 857 l 1,35,36
 428 1013 428 1013 614 1013 c 0,37,38
 763.672 1013 763.672 1013 824.5 941 c 0,39,40
 861 897.796 861 897.796 861 838 c 1,41,42
 908.277 932.554 908.277 932.554 1048 988 c 0,43,44
 1111 1013 1111 1013 1186 1013 c 128,-1,45
 1261 1013 1261 1013 1325 987 c 128,-1,46
 1389 961 1389 961 1441.5 908 c 0,47,48
 1562 786.352 1562 786.352 1562 589 c 1,49,-1
 1518 546 l 1,50,-1
 891 490 l 1,51,52
 893.041 322.607 893.041 322.607 987 221.5 c 0,53,54
 1084.11 117 1084.11 117 1232.83 117 c 128,-1,55
 1381.55 117 1381.55 117 1508 229 c 1,0,-1
1266.5 875.5 m 0,56,57
 1226 895 1226 895 1173.5 895 c 128,-1,58
 1121 895 1121 895 1081.5 877 c 128,-1,59
 1042 859 1042 859 1012 830.5 c 128,-1,60
 982 802 982 802 960.5 767 c 128,-1,61
 939 732 939 732 925 697.5 c 0,62,63
 897.547 629.848 897.547 629.848 895 584 c 1,64,-1
 1391 634 l 1,65,66
 1387.73 817.128 1387.73 817.128 1266.5 875.5 c 0,56,57
536.5 439 m 128,-1,68
 486 427 486 427 440 413.5 c 128,-1,69
 394 400 394 400 368 381.5 c 128,-1,70
 342 363 342 363 328.5 341.5 c 0,71,72
 307 307.259 307 307.259 307 258.63 c 128,-1,73
 307 210 307 210 319 181.5 c 128,-1,74
 331 153 331 153 350 136.5 c 0,75,76
 385.121 106 385.121 106 436.561 106 c 128,-1,77
 488 106 488 106 539.5 121 c 128,-1,78
 591 136 591 136 633 160.5 c 0,79,80
 729 216.5 729 216.5 729 276 c 2,81,-1
 729 478 l 1,82,83
 724 477 724 477 696.5 472.5 c 128,-1,84
 669 468 669 468 628 459.5 c 128,-1,67
 587 451 587 451 536.5 439 c 128,-1,68
EndSplineSet
Substitution2: "'smcp' Lowercase to Small Capitals in Latin lookup 6 subtable" .notdef
EndChar

StartChar: oslash
Encoding: 248 248 150
Width: 1194
Flags: HW
LayerCount: 2
Fore
SplineSet
575.25 -23 m 0,0,1
 447.5 -23 447.5 -23 332 40 c 1,2,-1
 244 -83 l 1,3,-1
 167 -31 l 1,4,-1
 252 94 l 1,5,6
 89 232.852 89 232.852 89 478 c 0,7,8
 89 716 89 716 241.5 868.5 c 0,9,10
 386 1013 386 1013 594 1013 c 0,11,12
 730.231 1013 730.231 1013 853 956 c 1,13,-1
 925 1063 l 1,14,-1
 1005 1009 l 1,15,-1
 932 906 l 1,16,17
 1104 774 1104 774 1104 519 c 0,18,19
 1104 277.761 1104 277.761 954 124.5 c 0,20,21
 809.638 -23 809.638 -23 575.25 -23 c 0,0,1
405 158 m 1,22,23
 488.862 94 488.862 94 582.931 94 c 128,-1,24
 677 94 677 94 739 120 c 128,-1,25
 801 146 801 146 844 194 c 0,26,27
 934 294.465 934 294.465 934 459 c 0,28,29
 934 583.529 934 583.529 878 712 c 0,30,31
 861 751 861 751 841 782 c 1,32,-1
 405 158 l 1,22,23
779 841 m 1,33,34
 696.826 895 696.826 895 605.413 895 c 128,-1,35
 514 895 514 895 453 865.5 c 128,-1,36
 392 836 392 836 349 784.5 c 0,37,38
 259 676.709 259 676.709 259 516 c 0,39,40
 259 347.263 259 347.263 345 216 c 1,41,-1
 779 841 l 1,33,34
EndSplineSet
Substitution2: "'smcp' Lowercase to Small Capitals in Latin lookup 6 subtable" .notdef
EndChar

StartChar: dotlessi
Encoding: 305 305 156
Width: 513
Flags: HW
LayerCount: 2
Fore
SplineSet
342 106 m 1,0,-1
 470 83 l 1,1,-1
 470 0 l 1,2,-1
 50 0 l 1,3,-1
 50 83 l 1,4,-1
 180 106 l 1,5,-1
 180 834 l 1,6,-1
 50 857 l 1,7,-1
 50 940 l 1,8,-1
 342 1013 l 1,9,-1
 342 106 l 1,0,-1
EndSplineSet
EndChar

StartChar: OE
Encoding: 338 338 157
Width: 2218
Flags: HW
LayerCount: 2
Fore
SplineSet
1764 723 m 1,0,-1
 1429 723 l 1,1,-1
 1429 120 l 1,2,-1
 1995 120 l 1,3,-1
 2069 297 l 1,4,-1
 2143 297 l 1,5,-1
 2111 0 l 1,6,-1
 1429 0 l 2,7,8
 1211.33 0 1211.33 0 1088.67 -8 c 128,-1,9
 966 -16 966 -16 934 -18 c 128,-1,10
 902 -20 902 -20 881 -21.5 c 128,-1,11
 860 -23 860 -23 843 -23 c 0,12,13
 487.98 -23 487.98 -23 278.5 194 c 0,14,15
 80 399.626 80 399.626 80 728 c 0,16,17
 80 1087.75 80 1087.75 304 1315 c 0,18,19
 516.914 1531 516.914 1531 827 1531 c 0,20,21
 870.333 1531 870.333 1531 959.667 1525 c 0,22,23
 1212.78 1508 1212.78 1508 1429 1508 c 2,24,-1
 2036 1508 l 1,25,-1
 2060 1211 l 1,26,-1
 1973 1211 l 1,27,-1
 1919 1387 l 1,28,-1
 1429 1387 l 1,29,-1
 1429 843 l 1,30,-1
 1764 843 l 1,31,-1
 1794 949 l 1,32,-1
 1865 949 l 1,33,-1
 1865 618 l 1,34,-1
 1794 618 l 1,35,-1
 1764 723 l 1,0,-1
313.5 1028 m 128,-1,37
 274 915 274 915 274 807 c 128,-1,38
 274 699 274 699 289.5 613 c 128,-1,39
 305 527 305 527 336.5 450.5 c 128,-1,40
 368 374 368 374 415.5 309 c 128,-1,41
 463 244 463 244 526 197 c 0,42,43
 660.043 97 660.043 97 841 97 c 0,44,45
 1098.65 97 1098.65 97 1174 158 c 0,46,47
 1216 192 1216 192 1228.5 251 c 128,-1,48
 1241 310 1241 310 1241 402 c 2,49,-1
 1241 1067 l 2,50,51
 1241 1176 1241 1176 1223.5 1243 c 128,-1,52
 1206 1310 1206 1310 1159.5 1347.5 c 128,-1,53
 1113 1385 1113 1385 1031.5 1398 c 128,-1,54
 950 1411 950 1411 824.5 1411 c 128,-1,55
 699 1411 699 1411 598 1361 c 128,-1,56
 497 1311 497 1311 425 1226 c 128,-1,36
 353 1141 353 1141 313.5 1028 c 128,-1,37
EndSplineSet
EndChar

StartChar: oe
Encoding: 339 339 158
Width: 1882
Flags: HW
LayerCount: 2
Fore
SplineSet
1778 164 m 1,0,1
 1566.3 -23 1566.3 -23 1406 -23 c 0,2,3
 1198.88 -23 1198.88 -23 1068 111 c 0,4,5
 1026 154 1026 154 1001 209 c 1,6,7
 904.175 42.5828 904.175 42.5828 720 -7.5 c 0,8,9
 663 -23 663 -23 573.5 -23 c 128,-1,10
 484 -23 484 -23 390 15.5 c 128,-1,11
 296 54 296 54 232 121.5 c 0,12,13
 103 257.555 103 257.555 103 478 c 0,14,15
 103 717.659 103 717.659 249.5 868.5 c 0,16,17
 389.842 1013 389.842 1013 595 1013 c 0,18,19
 814.209 1013 814.209 1013 949 875 c 0,20,21
 991 832 991 832 1020 780 c 1,22,23
 1114.66 943.2 1114.66 943.2 1286.5 995.5 c 0,24,25
 1344 1013 1344 1013 1413 1013 c 128,-1,26
 1482 1013 1482 1013 1549 979.5 c 128,-1,27
 1616 946 1616 946 1667 889 c 0,28,29
 1778 764.941 1778 764.941 1778 593 c 1,30,-1
 1730 551 l 1,31,-1
 1100 504 l 1,32,33
 1101.87 320.645 1101.87 320.645 1214 213 c 0,34,35
 1314 117 1314 117 1451 117 c 0,36,37
 1590.32 117 1590.32 117 1724 229 c 1,38,-1
 1778 164 l 1,0,1
299 664 m 128,-1,40
 278 595 278 595 278 514.5 c 128,-1,41
 278 434 278 434 296.5 357.5 c 128,-1,42
 315 281 315 281 354 222.5 c 0,43,44
 439.667 94 439.667 94 602 94 c 0,45,46
 754.125 94 754.125 94 838.5 194 c 0,47,48
 921 291.778 921 291.778 921 459 c 0,49,50
 921 764.176 921 764.176 746.5 860.5 c 0,51,52
 684 895 684 895 600.5 895 c 128,-1,53
 517 895 517 895 458.5 865.5 c 128,-1,54
 400 836 400 836 360 784.5 c 128,-1,39
 320 733 320 733 299 664 c 128,-1,40
1374.5 895 m 0,55,56
 1311 895 1311 895 1260 862 c 128,-1,57
 1209 829 1209 829 1176 782 c 0,58,59
 1112.33 691.322 1112.33 691.322 1107 598 c 1,60,-1
 1604 645 l 1,61,62
 1599.19 736.403 1599.19 736.403 1548 807.5 c 0,63,64
 1485 895 1485 895 1374.5 895 c 0,55,56
EndSplineSet
EndChar

StartChar: circumflex
Encoding: 710 710 160
Width: 829
Flags: HW
LayerCount: 2
Fore
SplineSet
420 1529 m 1,0,-1
 746 1261 l 1,1,-1
 690 1190 l 1,2,-1
 412 1392 l 1,3,-1
 137 1190 l 1,4,-1
 83 1254 l 1,5,-1
 420 1529 l 1,0,-1
EndSplineSet
EndChar

StartChar: caron
Encoding: 711 711 161
Width: 829
Flags: HW
LayerCount: 2
Fore
SplineSet
409 1239 m 1,0,-1
 94 1460 l 1,1,-1
 139 1531 l 1,2,-1
 416 1375 l 1,3,-1
 692 1531 l 1,4,-1
 735 1467 l 1,5,-1
 409 1239 l 1,0,-1
EndSplineSet
EndChar

StartChar: dotaccent
Encoding: 729 729 162
Width: 325
Flags: HW
LayerCount: 2
Fore
SplineSet
67 1358 m 128,-1,1
 57 1380 57 1380 57 1401.5 c 128,-1,2
 57 1423 57 1423 67 1444.5 c 128,-1,3
 77 1466 77 1466 93.5 1484 c 0,4,5
 130.167 1524 130.167 1524 160.583 1524 c 128,-1,6
 191 1524 191 1524 212.5 1513 c 128,-1,7
 234 1502 234 1502 250.5 1484 c 0,8,9
 288 1443.09 288 1443.09 288 1411.55 c 128,-1,10
 288 1380 288 1380 277.5 1358 c 128,-1,11
 267 1336 267 1336 250.5 1318.5 c 0,12,13
 213.257 1279 213.257 1279 181.629 1279 c 128,-1,14
 150 1279 150 1279 130 1290 c 128,-1,15
 110 1301 110 1301 93.5 1318.5 c 128,-1,0
 77 1336 77 1336 67 1358 c 128,-1,1
EndSplineSet
EndChar

StartChar: ring
Encoding: 730 730 163
Width: 537
Flags: HW
LayerCount: 2
Fore
SplineSet
23 1400.5 m 0,0,1
 23 1451 23 1451 42.5 1495 c 128,-1,2
 62 1539 62 1539 95.5 1572 c 0,3,4
 167.576 1643 167.576 1643 268 1643 c 256,5,6
 369 1643 369 1643 440 1572 c 128,-1,7
 511 1501 511 1501 511 1400 c 0,8,9
 511 1299.58 511 1299.58 440 1227.5 c 0,10,11
 368.582 1155 368.582 1155 268 1155 c 256,12,13
 168 1155 168 1155 95.5 1227.5 c 128,-1,14
 23 1300 23 1300 23 1400.5 c 0,0,1
140.5 1455.5 m 128,-1,16
 130 1429 130 1429 130 1399.5 c 128,-1,17
 130 1370 130 1370 140.5 1343.5 c 128,-1,18
 151 1317 151 1317 169.5 1297 c 0,19,20
 209.275 1254 209.275 1254 253.137 1254 c 128,-1,21
 297 1254 297 1254 322 1265.5 c 128,-1,22
 347 1277 347 1277 365.5 1297 c 0,23,24
 405 1339.7 405 1339.7 405 1384.35 c 128,-1,25
 405 1429 405 1429 394.5 1455.5 c 128,-1,26
 384 1482 384 1482 365.5 1501.5 c 0,27,28
 325.179 1544 325.179 1544 281.59 1544 c 128,-1,29
 238 1544 238 1544 213 1532.5 c 128,-1,30
 188 1521 188 1521 169.5 1501.5 c 128,-1,15
 151 1482 151 1482 140.5 1455.5 c 128,-1,16
EndSplineSet
EndChar

StartChar: tilde
Encoding: 732 732 164
Width: 850
Flags: HW
LayerCount: 2
Fore
SplineSet
266 1346 m 0,0,1
 189.955 1346 189.955 1346 120 1265 c 1,2,-1
 70 1296 l 1,3,4
 132.824 1384.35 132.824 1384.35 208 1433.5 c 0,5,6
 247 1459 247 1459 289 1459 c 128,-1,7
 331 1459 331 1459 370 1445 c 128,-1,8
 409 1431 409 1431 446.5 1414 c 0,9,10
 545.765 1369 545.765 1369 608.61 1369 c 128,-1,11
 671.455 1369 671.455 1369 726 1449 c 1,12,-1
 780 1423 l 1,13,14
 729.897 1332.43 729.897 1332.43 656 1281.5 c 0,15,16
 619 1256 619 1256 576 1256 c 128,-1,17
 533 1256 533 1256 493.5 1270 c 128,-1,18
 454 1284 454 1284 415.5 1301 c 0,19,20
 313.588 1346 313.588 1346 266 1346 c 0,0,1
EndSplineSet
EndChar

StartChar: endash
Encoding: 8211 8211 165
Width: 1367
Flags: HW
LayerCount: 2
Fore
SplineSet
175 660 m 1,0,-1
 1184 660 l 1,1,-1
 1184 530 l 1,2,-1
 174 530 l 1,3,-1
 175 660 l 1,0,-1
EndSplineSet
EndChar

StartChar: emdash
Encoding: 8212 8212 166
Width: 2557
Flags: HW
LayerCount: 2
Fore
SplineSet
176 660 m 1,0,-1
 2381 660 l 1,1,-1
 2381 530 l 1,2,-1
 175 530 l 1,3,-1
 176 660 l 1,0,-1
EndSplineSet
EndChar

StartChar: quoteleft
Encoding: 8216 8216 167
Width: 512
Flags: HW
LayerCount: 2
Fore
SplineSet
266.5 1652 m 128,-1,1
 239 1606 239 1606 239 1561.5 c 128,-1,2
 239 1517 239 1517 257 1501 c 128,-1,3
 275 1485 275 1485 296.5 1472.5 c 128,-1,4
 318 1460 318 1460 336 1446 c 128,-1,5
 354 1432 354 1432 354 1413 c 128,-1,6
 354 1394 354 1394 342.5 1371.5 c 128,-1,7
 331 1349 331 1349 312 1328.5 c 0,8,9
 266.122 1279 266.122 1279 221 1279 c 0,10,11
 181.718 1279 181.718 1279 151.359 1311 c 0,12,13
 97 1368.3 97 1368.3 97 1418.65 c 128,-1,14
 97 1469 97 1469 109.5 1520 c 128,-1,15
 122 1571 122 1571 142 1613 c 0,16,17
 176.886 1686.26 176.886 1686.26 240.443 1747.63 c 128,-1,18
 304 1809 304 1809 385 1845 c 1,19,-1
 415 1789 l 1,20,21
 366 1764 366 1764 330 1731 c 128,-1,0
 294 1698 294 1698 266.5 1652 c 128,-1,1
EndSplineSet
EndChar

StartChar: quoteright
Encoding: 8217 8217 168
Width: 512
Flags: HW
LayerCount: 2
Fore
SplineSet
266.5 1209 m 0,0,1
 274 1236 274 1236 274 1265 c 128,-1,2
 274 1294 274 1294 256 1310.5 c 128,-1,3
 238 1327 238 1327 216 1340 c 128,-1,4
 194 1353 194 1353 176 1367 c 128,-1,5
 158 1381 158 1381 158 1400 c 128,-1,6
 158 1419 158 1419 170 1441 c 128,-1,7
 182 1463 182 1463 200.5 1483.5 c 0,8,9
 245.171 1533 245.171 1533 290 1533 c 0,10,11
 328 1533 328 1533 359.5 1501.5 c 0,12,13
 415 1446 415 1446 415 1394.5 c 128,-1,14
 415 1343 415 1343 402.5 1292.5 c 128,-1,15
 390 1242 390 1242 370 1200 c 0,16,17
 335.114 1126.74 335.114 1126.74 271.557 1065.37 c 128,-1,18
 208 1004 208 1004 128 968 c 1,19,-1
 97 1022 l 1,20,21
 233.967 1091.88 233.967 1091.88 266.5 1209 c 0,0,1
EndSplineSet
EndChar

StartChar: quotesinglbase
Encoding: 8218 8218 169
Width: 512
Flags: HW
LayerCount: 2
Fore
SplineSet
266.5 -114 m 0,0,1
 274 -87 274 -87 274 -58 c 128,-1,2
 274 -29 274 -29 256 -13 c 128,-1,3
 238 3 238 3 216 16 c 128,-1,4
 194 29 194 29 176 43 c 128,-1,5
 158 57 158 57 158 76 c 128,-1,6
 158 95 158 95 170 117 c 128,-1,7
 182 139 182 139 200.5 159.5 c 0,8,9
 245.171 209 245.171 209 290 209 c 0,10,11
 328 209 328 209 359.5 177.5 c 0,12,13
 415 122 415 122 415 70.5 c 128,-1,14
 415 19 415 19 402.5 -32 c 128,-1,15
 390 -83 390 -83 370 -125 c 0,16,17
 333.943 -200.719 333.943 -200.719 270.972 -259.86 c 128,-1,18
 208 -319 208 -319 128 -355 c 1,19,-1
 97 -301 l 1,20,21
 233.068 -234.354 233.068 -234.354 266.5 -114 c 0,0,1
EndSplineSet
EndChar

StartChar: quotedblleft
Encoding: 8220 8220 170
Width: 1028
Flags: HW
LayerCount: 2
Fore
SplineSet
734.5 1652 m 128,-1,1
 707 1606 707 1606 707 1561.5 c 128,-1,2
 707 1517 707 1517 725 1501 c 128,-1,3
 743 1485 743 1485 765 1472.5 c 128,-1,4
 787 1460 787 1460 805 1446 c 128,-1,5
 823 1432 823 1432 823 1413 c 128,-1,6
 823 1394 823 1394 811 1371.5 c 128,-1,7
 799 1349 799 1349 780.5 1328.5 c 0,8,9
 735.829 1279 735.829 1279 691 1279 c 0,10,11
 652.359 1279 652.359 1279 621.179 1311 c 0,12,13
 566 1367.63 566 1367.63 566 1418.32 c 128,-1,14
 566 1469 566 1469 578 1520 c 128,-1,15
 590 1571 590 1571 610.5 1613 c 0,16,17
 687.929 1771.64 687.929 1771.64 853 1845 c 1,18,-1
 884 1789 l 1,19,20
 834 1764 834 1764 798 1731 c 128,-1,0
 762 1698 762 1698 734.5 1652 c 128,-1,1
313.5 1652 m 128,-1,22
 286 1606 286 1606 286 1561.5 c 128,-1,23
 286 1517 286 1517 304 1501 c 128,-1,24
 322 1485 322 1485 343.5 1472.5 c 128,-1,25
 365 1460 365 1460 383 1446 c 128,-1,26
 401 1432 401 1432 401 1413 c 128,-1,27
 401 1394 401 1394 389.5 1371.5 c 128,-1,28
 378 1349 378 1349 359 1328.5 c 0,29,30
 313.122 1279 313.122 1279 268 1279 c 0,31,32
 228.718 1279 228.718 1279 198.359 1311 c 0,33,34
 144 1368.3 144 1368.3 144 1418.65 c 128,-1,35
 144 1469 144 1469 156.5 1520 c 128,-1,36
 169 1571 169 1571 189 1613 c 0,37,38
 223.886 1686.26 223.886 1686.26 287.443 1747.63 c 128,-1,39
 351 1809 351 1809 432 1845 c 1,40,-1
 462 1789 l 1,41,42
 413 1764 413 1764 377 1731 c 128,-1,21
 341 1698 341 1698 313.5 1652 c 128,-1,22
EndSplineSet
EndChar

StartChar: quotedblright
Encoding: 8221 8221 171
Width: 1028
Flags: HW
LayerCount: 2
Fore
SplineSet
313.5 1209 m 0,0,1
 321 1236 321 1236 321 1265 c 128,-1,2
 321 1294 321 1294 303 1310.5 c 128,-1,3
 285 1327 285 1327 263 1340 c 128,-1,4
 241 1353 241 1353 223 1367 c 128,-1,5
 205 1381 205 1381 205 1400 c 128,-1,6
 205 1419 205 1419 217 1441 c 128,-1,7
 229 1463 229 1463 247.5 1483.5 c 0,8,9
 292.171 1533 292.171 1533 337 1533 c 0,10,11
 375 1533 375 1533 406.5 1501.5 c 0,12,13
 462 1446 462 1446 462 1394.5 c 128,-1,14
 462 1343 462 1343 449.5 1292.5 c 128,-1,15
 437 1242 437 1242 417 1200 c 0,16,17
 382.114 1126.74 382.114 1126.74 318.557 1065.37 c 128,-1,18
 255 1004 255 1004 175 968 c 1,19,-1
 144 1022 l 1,20,21
 280.967 1091.88 280.967 1091.88 313.5 1209 c 0,0,1
734.5 1209 m 0,22,23
 742 1236 742 1236 742 1265 c 128,-1,24
 742 1294 742 1294 724 1310.5 c 128,-1,25
 706 1327 706 1327 684.5 1340 c 128,-1,26
 663 1353 663 1353 645 1367 c 128,-1,27
 627 1381 627 1381 627 1400 c 128,-1,28
 627 1419 627 1419 638.5 1441 c 128,-1,29
 650 1463 650 1463 669 1483.5 c 0,30,31
 714.878 1533 714.878 1533 758 1533 c 0,32,33
 797 1533 797 1533 828.5 1501.5 c 0,34,35
 884 1446 884 1446 884 1394.5 c 128,-1,36
 884 1343 884 1343 871.5 1292.5 c 128,-1,37
 859 1242 859 1242 839 1200 c 0,38,39
 804.114 1126.74 804.114 1126.74 740.557 1065.37 c 128,-1,40
 677 1004 677 1004 596 968 c 1,41,-1
 566 1022 l 1,42,43
 701.802 1091.29 701.802 1091.29 734.5 1209 c 0,22,23
EndSplineSet
EndChar

StartChar: quotedblbase
Encoding: 8222 8222 172
Width: 1028
Flags: HW
LayerCount: 2
Fore
SplineSet
313.5 -114 m 0,0,1
 321 -87 321 -87 321 -58 c 128,-1,2
 321 -29 321 -29 303 -13 c 128,-1,3
 285 3 285 3 263 16 c 128,-1,4
 241 29 241 29 223 43 c 128,-1,5
 205 57 205 57 205 76 c 128,-1,6
 205 95 205 95 217 117 c 128,-1,7
 229 139 229 139 247.5 159.5 c 0,8,9
 292.171 209 292.171 209 337 209 c 0,10,11
 375 209 375 209 406.5 177.5 c 0,12,13
 462 122 462 122 462 70.5 c 128,-1,14
 462 19 462 19 449.5 -32 c 128,-1,15
 437 -83 437 -83 417 -125 c 0,16,17
 380.943 -200.719 380.943 -200.719 317.972 -259.86 c 128,-1,18
 255 -319 255 -319 175 -355 c 1,19,-1
 144 -301 l 1,20,21
 280.068 -234.354 280.068 -234.354 313.5 -114 c 0,0,1
714.5 -164.5 m 0,22,23
 742 -118 742 -118 742 -73.5 c 128,-1,24
 742 -29 742 -29 724 -13 c 128,-1,25
 706 3 706 3 684.5 16 c 128,-1,26
 663 29 663 29 645 43 c 128,-1,27
 627 57 627 57 627 76 c 128,-1,28
 627 95 627 95 638.5 117 c 128,-1,29
 650 139 650 139 669 159.5 c 0,30,31
 714.878 209 714.878 209 758 209 c 0,32,33
 797 209 797 209 828.5 177.5 c 0,34,35
 884 122 884 122 884 70.5 c 128,-1,36
 884 19 884 19 871.5 -32 c 128,-1,37
 859 -83 859 -83 839 -125 c 0,38,39
 802.943 -200.719 802.943 -200.719 739.972 -259.86 c 128,-1,40
 677 -319 677 -319 596 -355 c 1,41,-1
 566 -301 l 1,42,43
 661.411 -254.268 661.411 -254.268 714.5 -164.5 c 0,22,23
EndSplineSet
EndChar

StartChar: dagger
Encoding: 8224 8224 173
Width: 853
Flags: HW
LayerCount: 2
Fore
SplineSet
46 777 m 1,0,-1
 378 784 l 1,1,-1
 367 1295 l 1,2,-1
 484 1295 l 1,3,-1
 473 789 l 1,4,-1
 835 827 l 1,5,-1
 807 697 l 1,6,-1
 473 690 l 1,7,-1
 484 -367 l 1,8,-1
 367 -367 l 1,9,-1
 378 685 l 1,10,-1
 17 650 l 1,11,-1
 46 777 l 1,0,-1
EndSplineSet
EndChar

StartChar: daggerdbl
Encoding: 8225 8225 174
Width: 853
Flags: HW
LayerCount: 2
Fore
SplineSet
46 777 m 1,0,-1
 376 784 l 1,1,-1
 367 1295 l 1,2,-1
 484 1295 l 1,3,-1
 475 789 l 1,4,-1
 835 827 l 1,5,-1
 807 697 l 1,6,-1
 475 690 l 1,7,-1
 477 386 l 1,8,-1
 812 424 l 1,9,-1
 783 294 l 1,10,-1
 477 287 l 1,11,-1
 484 -367 l 1,12,-1
 367 -367 l 1,13,-1
 371 283 l 1,14,-1
 41 247 l 1,15,-1
 69 375 l 1,16,-1
 374 382 l 1,17,-1
 376 685 l 1,18,-1
 17 650 l 1,19,-1
 46 777 l 1,0,-1
EndSplineSet
EndChar

StartChar: bullet
Encoding: 8226 8226 175
Width: 512
Flags: HW
LayerCount: 2
Fore
SplineSet
91 558 m 256,0,1
 91 624.578 91 624.578 139.5 672 c 0,2,3
 187.568 719 187.568 719 256 719 c 0,4,5
 323.432 719 323.432 719 371.5 672 c 0,6,7
 421 623.6 421 623.6 421 558 c 256,8,9
 421 491.8 421 491.8 371.5 444.5 c 0,10,11
 322.837 398 322.837 398 272.419 398 c 128,-1,12
 222 398 222 398 192 410.5 c 128,-1,13
 162 423 162 423 139.5 444.5 c 0,14,15
 91 490.844 91 490.844 91 558 c 256,0,1
EndSplineSet
AlternateSubs2: "'ornm' Ornaments in Latin lookup 1 subtable" .notdef
EndChar

StartChar: perthousand
Encoding: 8240 8240 176
Width: 2392
Flags: HW
LayerCount: 2
Fore
SplineSet
1470 1531 m 1,0,-1
 1548 1463 l 1,1,-1
 252 -23 l 1,2,-1
 172 45 l 1,3,-1
 1470 1531 l 1,0,-1
117 1163 m 0,4,5
 117 1243 117 1243 143.5 1312.5 c 128,-1,6
 170 1382 170 1382 213.5 1430.5 c 0,7,8
 303.639 1531 303.639 1531 429 1531 c 0,9,10
 568.699 1531 568.699 1531 657.5 1431.5 c 0,11,12
 744 1334.58 744 1334.58 744 1184 c 0,13,14
 744 1017.31 744 1017.31 647.5 907.5 c 0,15,16
 557.424 805 557.424 805 434 805 c 0,17,18
 293.179 805 293.179 805 204.5 906.5 c 0,19,20
 117 1006.65 117 1006.65 117 1163 c 0,4,5
243 1181 m 0,21,22
 243 1123 243 1123 253.5 1068.5 c 128,-1,23
 264 1014 264 1014 286.5 972 c 0,24,25
 336.321 879 336.321 879 431 879 c 0,26,27
 565.423 879 565.423 879 605.5 1034.5 c 0,28,29
 618 1083 618 1083 618 1141.5 c 128,-1,30
 618 1200 618 1200 609 1256.5 c 128,-1,31
 600 1313 600 1313 578 1357 c 0,32,33
 528.5 1456 528.5 1456 427 1456 c 0,34,35
 341.311 1456 341.311 1456 290.5 1376 c 0,36,37
 243 1301.21 243 1301.21 243 1181 c 0,21,22
966 334 m 0,38,39
 966 414 966 414 992.5 483 c 128,-1,40
 1019 552 1019 552 1062.5 600.5 c 0,41,42
 1152.64 701 1152.64 701 1276 701 c 0,43,44
 1416.59 701 1416.59 701 1504.5 602.5 c 0,45,46
 1592 504.458 1592 504.458 1592 355 c 0,47,48
 1592 190.448 1592 190.448 1494.5 79.5 c 0,49,50
 1404.42 -23.0001 1404.42 -23.0001 1281 -23 c 0,51,52
 1141.68 -23 1141.68 -23 1052.5 78 c 0,53,54
 966 175.964 966 175.964 966 334 c 0,38,39
1102.5 460 m 128,-1,56
 1090 410 1090 410 1090 352 c 128,-1,57
 1090 294 1090 294 1100.5 239 c 128,-1,58
 1111 184 1111 184 1134 142 c 0,59,60
 1184.93 49 1184.93 49 1279 49 c 0,61,62
 1368.12 49 1368.12 49 1417.5 121.5 c 0,63,64
 1465 191.234 1465 191.234 1465 313 c 0,65,66
 1465 528.487 1465 528.487 1367 600 c 0,67,68
 1330 627 1330 627 1280 627 c 128,-1,69
 1230 627 1230 627 1196 605.5 c 128,-1,70
 1162 584 1162 584 1138.5 547 c 128,-1,55
 1115 510 1115 510 1102.5 460 c 128,-1,56
1728 334 m 0,71,72
 1728 414 1728 414 1754.5 483 c 128,-1,73
 1781 552 1781 552 1824.5 600.5 c 0,74,75
 1914.64 701 1914.64 701 2040 701 c 0,76,77
 2181.15 701 2181.15 701 2268 602.5 c 128,-1,78
 2355 503.829 2355 503.829 2355 355 c 0,79,80
 2355 189.31 2355 189.31 2258.5 79.5 c 0,81,82
 2168.42 -22.9999 2168.42 -22.9999 2045 -23 c 0,83,84
 1904.68 -23 1904.68 -23 1815.5 78 c 0,85,86
 1728 177.096 1728 177.096 1728 334 c 0,71,72
1866 460 m 128,-1,88
 1854 410 1854 410 1854 352 c 128,-1,89
 1854 294 1854 294 1864.5 239 c 128,-1,90
 1875 184 1875 184 1897.5 142 c 0,91,92
 1947.32 49 1947.32 49 2042 49 c 0,93,94
 2129.57 49 2129.57 49 2180 121.5 c 0,95,96
 2228 190.5 2228 190.5 2228 313 c 0,97,98
 2228 528.487 2228 528.487 2130 600 c 0,99,100
 2093 627 2093 627 2043 627 c 128,-1,101
 1993 627 1993 627 1959 605.5 c 128,-1,102
 1925 584 1925 584 1901.5 547 c 128,-1,87
 1878 510 1878 510 1866 460 c 128,-1,88
EndSplineSet
EndChar

StartChar: guilsinglleft
Encoding: 8249 8249 177
Width: 682
Flags: HW
LayerCount: 2
Fore
SplineSet
496 906 m 1,0,-1
 570 831 l 1,1,-1
 359 596 l 1,2,-1
 237 474 l 1,3,-1
 356 355 l 1,4,-1
 575 117 l 1,5,-1
 496 38 l 1,6,-1
 107 474 l 1,7,-1
 496 906 l 1,0,-1
EndSplineSet
EndChar

StartChar: guilsinglright
Encoding: 8250 8250 178
Width: 682
Flags: HW
LayerCount: 2
Fore
SplineSet
575 474 m 1,0,-1
 187 38 l 1,1,-1
 107 117 l 1,2,-1
 325 355 l 1,3,-1
 446 474 l 1,4,-1
 323 596 l 1,5,-1
 111 831 l 1,6,-1
 187 906 l 1,7,-1
 575 474 l 1,0,-1
EndSplineSet
EndChar

StartChar: Euro
Encoding: 8364 8364 179
Width: 1366
Flags: HW
LayerCount: 2
Fore
SplineSet
184 665 m 1,0,1
 184 795.5 184 795.5 191 848 c 1,2,-1
 108 848 l 1,3,-1
 160 966 l 1,4,-1
 209 966 l 1,5,6
 268.329 1223.09 268.329 1223.09 444.5 1375 c 0,7,8
 617.299 1524 617.299 1524 839 1524 c 0,9,10
 1021.6 1524 1021.6 1524 1136 1472 c 0,11,12
 1187 1449 1187 1449 1216 1420 c 1,13,-1
 1192 1178 l 1,14,-1
 1126 1178 l 1,15,16
 1126 1331.02 1126 1331.02 975 1384 c 0,17,18
 918 1404 918 1404 830 1404 c 128,-1,19
 742 1404 742 1404 668.5 1370.5 c 128,-1,20
 595 1337 595 1337 540 1278.5 c 0,21,22
 430.548 1162.08 430.548 1162.08 393 966 c 1,23,-1
 909 966 l 1,24,-1
 855 848 l 1,25,-1
 380 848 l 1,26,27
 378 814 378 814 378 765.5 c 128,-1,28
 378 717 378 717 382 665 c 1,29,-1
 909 665 l 1,30,-1
 855 546 l 1,31,-1
 396 546 l 1,32,33
 452.697 225.83 452.697 225.83 653 128.5 c 0,34,35
 724 94 724 94 814 94 c 128,-1,36
 904 94 904 94 962 113.5 c 128,-1,37
 1020 133 1020 133 1055.5 165.5 c 0,38,39
 1121 225.465 1121 225.465 1121 323 c 1,40,-1
 1185 323 l 1,41,-1
 1208 80 l 1,42,43
 1065.93 -23 1065.93 -23 820 -23 c 0,44,45
 554.278 -23 554.278 -23 388.5 138.5 c 0,46,47
 235.998 287.067 235.998 287.067 196 546 c 1,48,-1
 88 546 l 1,49,-1
 139 665 l 1,50,-1
 184 665 l 1,0,1
EndSplineSet
EndChar

StartChar: braceleft
Encoding: 123 123 180
Width: 853
Flags: HW
LayerCount: 2
Fore
SplineSet
480 -238 m 0,0,1
 480 -447 480 -447 682 -447 c 1,2,-1
 682 -519 l 1,3,4
 484.158 -519 484.158 -519 392.5 -433 c 0,5,6
 320 -364.975 320 -364.975 320 -256 c 0,7,8
 320 -202 320 -202 325 -130.5 c 2,9,-1
 335.5 21 l 2,10,11
 351 246.455 351 246.455 351 311.227 c 128,-1,12
 351 376 351 376 343.5 404.5 c 128,-1,13
 336 433 336 433 323 455.5 c 0,14,15
 274.844 538.847 274.844 538.847 171 570 c 1,16,-1
 171 641 l 1,17,18
 310.741 677.333 310.741 677.333 343.5 804 c 0,19,20
 351 833 351 833 351 888.5 c 128,-1,21
 351 944 351 944 346 1015.5 c 128,-1,22
 341 1087 341 1087 335.5 1154 c 2,23,-1
 325 1281.5 l 2,24,25
 320 1342 320 1342 320 1394.5 c 128,-1,26
 320 1447 320 1447 339 1494 c 128,-1,27
 358 1541 358 1541 401 1577.5 c 0,28,29
 495.836 1658 495.836 1658 682 1658 c 1,30,-1
 682 1587 l 1,31,32
 480 1587 480 1587 480 1378 c 0,33,34
 480 1307 480 1307 490.5 1184.5 c 128,-1,35
 501 1062 501 1062 504.5 1014.5 c 0,36,37
 513 899.143 513 899.143 513 874 c 0,38,39
 513 692.833 513 692.833 296 605 c 1,40,41
 396.403 561.97 396.403 561.97 436.701 518.985 c 0,42,43
 513 437.6 513 437.6 513 337 c 0,44,45
 513 318 513 318 510.5 275.5 c 2,46,-1
 504.5 178 l 2,47,48
 501 123 501 123 496.5 61 c 128,-1,49
 492 -1 492 -1 488.5 -58.5 c 0,50,51
 480 -198.143 480 -198.143 480 -238 c 0,0,1
EndSplineSet
EndChar

StartChar: hungarumlaut
Encoding: 733 733 182
Width: 942
Flags: HW
LayerCount: 2
Fore
SplineSet
626 1563 m 1,0,-1
 269 1232 l 1,1,-1
 222 1272 l 1,2,-1
 465 1602 l 1,3,-1
 626 1563 l 1,0,-1
992 1542 m 1,4,-1
 637 1232 l 1,5,-1
 590 1272 l 1,6,-1
 833 1602 l 1,7,-1
 992 1542 l 1,4,-1
EndSplineSet
EndChar

StartChar: fraction
Encoding: 8260 8260 183
Width: 1026
Flags: HW
LayerCount: 2
Fore
SplineSet
838 1672 m 1,0,-1
 933 1627 l 1,1,-1
 164 -23 l 1,2,-1
 70 18 l 1,3,-1
 838 1672 l 1,0,-1
EndSplineSet
EndChar

StartChar: breve
Encoding: 728 728 184
Width: 838
Flags: HW
LayerCount: 2
Fore
SplineSet
420 1368 m 0,0,1
 582.703 1368 582.703 1368 636 1562 c 1,2,-1
 719 1544 l 1,3,4
 701.714 1433.8 701.714 1433.8 622 1350 c 0,5,6
 534.488 1258 534.488 1258 422 1258 c 0,7,8
 297.354 1258 297.354 1258 216.5 1345.5 c 0,9,10
 147.985 1419.65 147.985 1419.65 128 1544 c 1,11,-1
 212 1562 l 1,12,13
 239.012 1426.94 239.012 1426.94 338.5 1383.5 c 0,14,15
 374 1368 374 1368 420 1368 c 0,0,1
EndSplineSet
EndChar

StartChar: sterling
Encoding: 163 163 185
Width: 1193
Flags: HW
LayerCount: 2
Fore
SplineSet
78 -23 m 1,0,-1
 49 43 l 1,1,2
 95.2687 64.7735 95.2687 64.7735 119.634 95.3868 c 128,-1,3
 144 126 144 126 162 165 c 128,-1,4
 180 204 180 204 194 264.5 c 0,5,6
 224 394.143 224 394.143 224 612 c 2,7,-1
 224 742 l 1,8,-1
 74 742 l 1,9,-1
 74 818 l 1,10,-1
 224 848 l 1,11,-1
 224 1025 l 2,12,13
 224 1128.94 224 1128.94 294.5 1251.5 c 0,14,15
 361.029 1367.16 361.029 1367.16 468.5 1447.5 c 0,16,17
 580.195 1531 580.195 1531 679.097 1531 c 0,18,19
 912.125 1531 912.125 1531 1029 1446 c 1,20,-1
 961 1272 l 1,21,-1
 895 1272 l 1,22,23
 895 1379 895 1379 776.5 1413.5 c 0,24,25
 737 1425 737 1425 675 1425 c 128,-1,26
 613 1425 613 1425 561 1391.5 c 128,-1,27
 509 1358 509 1358 476 1308.5 c 0,28,29
 412 1212.5 412 1212.5 412 1095 c 2,30,-1
 412 848 l 1,31,-1
 776 848 l 1,32,-1
 776 742 l 1,33,-1
 412 742 l 1,34,-1
 412 641 l 2,35,36
 412 385.5 412 385.5 324 215 c 0,37,38
 285 141 285 141 236 99 c 1,39,40
 398.692 193 398.692 193 551 193 c 0,41,42
 632 193 632 193 690.5 170.5 c 128,-1,43
 749 148 749 148 782 138 c 128,-1,44
 815 128 815 128 862 128 c 0,45,46
 980.613 128 980.613 128 1089 240 c 1,47,-1
 1145 198 l 1,48,49
 1037.52 28.7111 1037.52 28.7111 882 -13.5 c 0,50,51
 847 -23 847 -23 806.5 -23 c 128,-1,52
 766 -23 766 -23 735.5 -12.5 c 2,53,-1
 669 10 l 2,54,55
 570 43 570 43 441.333 43 c 128,-1,56
 312.667 43 312.667 43 78 -23 c 1,0,-1
EndSplineSet
EndChar

StartChar: cent
Encoding: 162 162 186
Width: 1024
Flags: HW
LayerCount: 2
Fore
SplineSet
624 117 m 1,0,1
 756.074 124.337 756.074 124.337 886 229 c 1,2,-1
 938 164 l 1,3,4
 772.409 9.20829 772.409 9.20829 624 -18 c 1,5,-1
 624 -211 l 1,6,-1
 518 -211 l 1,7,-1
 518 -21 l 1,8,9
 321.251 -0.923556 321.251 -0.923556 203.5 133.5 c 0,10,11
 85 268.779 85 268.779 85 471 c 0,12,13
 85 659.928 85 659.928 199.5 809.5 c 0,14,15
 319.339 966.047 319.339 966.047 518 1005 c 1,16,-1
 518 1197 l 1,17,-1
 624 1197 l 1,18,-1
 624 1013 l 1,19,20
 772.622 1005.57 772.622 1005.57 898 959 c 1,21,-1
 874 758 l 1,22,-1
 811 758 l 1,23,24
 811 880.975 811 880.975 624 895 c 1,25,-1
 624 117 l 1,0,1
260 520 m 0,26,27
 260 454 260 454 277 389 c 128,-1,28
 294 324 294 324 327 272 c 0,29,30
 395.863 163.489 395.863 163.489 518 130 c 1,31,-1
 518 885 l 1,32,33
 394.728 854.182 394.728 854.182 325 748.5 c 0,34,35
 260 649.984 260 649.984 260 520 c 0,26,27
EndSplineSet
EndChar

StartChar: asciitilde
Encoding: 126 126 187
Width: 930
Flags: HW
LayerCount: 2
Fore
SplineSet
283 537 m 0,0,1
 207.545 537 207.545 537 113 457 c 1,2,-1
 70 495 l 1,3,4
 167.916 636.434 167.916 636.434 263.5 672 c 0,5,6
 285 680 285 680 316 680 c 128,-1,7
 347 680 347 680 393.5 666 c 128,-1,8
 440 652 440 652 486.5 635 c 0,9,10
 609.588 590 609.588 590 661 590 c 0,11,12
 739.043 590 739.043 590 813 671 c 1,13,-1
 860 638 l 1,14,15
 750.926 448 750.926 448 638 448 c 0,16,17
 582.758 448 582.758 448 495.879 478.5 c 128,-1,18
 409 509 409 509 364.5 523 c 128,-1,19
 320 537 320 537 283 537 c 0,0,1
EndSplineSet
EndChar

StartChar: ampersand
Encoding: 38 38 188
Width: 1366
Flags: HW
LayerCount: 2
Fore
SplineSet
857 1079 m 1,0,1
 857 1344 857 1344 634 1344 c 0,2,3
 536 1344 536 1344 473 1281 c 0,4,5
 409 1217 409 1217 409 1121 c 0,6,7
 409 1011.87 409 1011.87 594.5 814 c 1,8,-1
 821 574.5 l 1,9,10
 990.754 399.973 990.754 399.973 1060.38 335.487 c 128,-1,11
 1130 271 1130 271 1187 228.5 c 0,12,13
 1311.06 136 1311.06 136 1385.78 136 c 128,-1,14
 1460.5 136 1460.5 136 1522 177 c 1,15,-1
 1583 113 l 1,16,17
 1439.84 -22.9999 1439.84 -22.9999 1324 -23 c 0,18,19
 1246.04 -23 1246.04 -23 1167 29 c 0,20,21
 1129 54 1129 54 1088 87.5 c 2,22,-1
 998 162 l 1,23,24
 823.278 -23 823.278 -23 591 -23 c 0,25,26
 378.879 -23 378.879 -23 253 77.5 c 0,27,28
 122 182.089 122 182.089 122 365 c 0,29,30
 122 507.671 122 507.671 214 616.5 c 0,31,32
 291.038 707.63 291.038 707.63 409 753 c 1,33,34
 233 957.541 233 957.541 233 1110 c 0,35,36
 233 1266.93 233 1266.93 352.5 1364.5 c 0,37,38
 464.562 1456 464.562 1456 629 1456 c 0,39,40
 768.214 1456 768.214 1456 853.107 1427.5 c 128,-1,41
 938 1399 938 1399 973 1378 c 1,42,-1
 937 1079 l 1,43,-1
 857 1079 l 1,0,1
483 678 m 1,44,-1
 483 676 l 1,45,46
 408 637 408 637 361.5 563.5 c 128,-1,47
 315 490 315 490 315 411.5 c 128,-1,48
 315 333 315 333 333.5 280 c 128,-1,49
 352 227 352 227 391 185.5 c 0,50,51
 476.988 94 476.988 94 638 94 c 0,52,53
 787.118 94 787.118 94 933 218 c 1,54,55
 858 286 858 286 784.5 361 c 1,56,-1
 483 678 l 1,44,-1
EndSplineSet
Substitution2: "'ss01' Style Set 1 in Latin lookup 4 subtable" .notdef
EndChar

StartChar: mu
Encoding: 181 181 189
AltUni2: 0003bc.ffffffff.0
Width: 1366
Flags: HW
LayerCount: 2
Fore
SplineSet
1277 52 m 1,0,1
 1134.14 -23 1134.14 -23 1063 -23 c 0,2,3
 962.568 -23 962.568 -23 926.5 46 c 0,4,5
 915 68 915 68 915 97 c 2,6,-1
 915 130 l 1,7,8
 702.886 -23 702.886 -23 540 -23 c 0,9,10
 427.048 -23 427.048 -23 360 21 c 1,11,-1
 394 -503 l 1,12,-1
 281 -560 l 1,13,-1
 227 -537 l 1,14,15
 264.419 -92.9557 264.419 -92.9557 268 283 c 1,16,-1
 268 845 l 1,17,-1
 149 867 l 1,18,-1
 149 942 l 1,19,-1
 432 1013 l 1,20,-1
 432 283 l 2,21,22
 432 94 432 94 569 94 c 0,23,24
 681.8 94 681.8 94 915 200 c 1,25,-1
 915 845 l 1,26,-1
 762 867 l 1,27,-1
 762 937 l 1,28,-1
 1079 1013 l 1,29,-1
 1079 144 l 2,30,31
 1079 111.182 1079 111.182 1104 105.5 c 0,32,33
 1115 103 1115 103 1147.89 103 c 128,-1,34
 1180.78 103 1180.78 103 1259 135 c 1,35,-1
 1277 52 l 1,0,1
EndSplineSet
EndChar

StartChar: asciicircum
Encoding: 94 94 190
Width: 1366
Flags: HW
LayerCount: 2
Fore
SplineSet
683 1100 m 1,0,-1
 239 178 l 1,1,-1
 129 225 l 1,2,-1
 659 1311 l 1,3,-1
 706 1311 l 1,4,-1
 683 1100 l 1,0,-1
669 1281 m 1,5,-1
 706 1311 l 1,6,-1
 1236 225 l 1,7,-1
 1126 178 l 1,8,-1
 682 1100 l 1,9,-1
 669 1281 l 1,5,-1
EndSplineSet
EndChar

StartChar: f
Encoding: 102 102 191
Width: 690
Flags: HW
LayerCount: 2
Fore
SplineSet
347 110 m 1,0,-1
 564 83 l 1,1,-1
 564 0 l 1,2,-1
 47 0 l 1,3,-1
 47 83 l 1,4,-1
 185 106 l 1,5,-1
 185 876 l 1,6,-1
 47 876 l 1,7,-1
 47 959 l 1,8,-1
 185 989 l 1,9,-1
 185 1201 l 2,10,11
 185 1357.53 185 1357.53 282 1500 c 0,12,13
 392.979 1663 392.979 1663 573 1663 c 0,14,15
 687.941 1663 687.941 1663 761 1617 c 0,16,17
 793 1597 793 1597 809 1571 c 1,18,-1
 741 1394 l 1,19,-1
 676 1394 l 1,20,21
 676 1493.71 676 1493.71 606.5 1530.5 c 0,22,23
 581 1544 581 1544 542.5 1544 c 128,-1,24
 504 1544 504 1544 468.5 1527.5 c 128,-1,25
 433 1511 433 1511 406 1477 c 0,26,27
 347 1402.7 347 1402.7 347 1270 c 2,28,-1
 347 989 l 1,29,-1
 651 989 l 1,30,-1
 651 872 l 1,31,-1
 347 872 l 1,32,-1
 347 110 l 1,0,-1
EndSplineSet
Substitution2: "'smcp' Lowercase to Small Capitals in Latin lookup 6 subtable" .notdef
EndChar

StartChar: macron
Encoding: 175 175 193
Width: 1178
Flags: HW
LayerCount: 2
Fore
SplineSet
308 1335 m 1,0,-1
 885 1337 l 1,1,-1
 857 1209 l 1,2,-1
 281 1209 l 1,3,-1
 308 1335 l 1,0,-1
EndSplineSet
EndChar

StartChar: ogonek
Encoding: 731 731 194
Width: 1413
Flags: HW
LayerCount: 2
Fore
SplineSet
1243 -396 m 1,0,1
 1184.71 -420 1184.71 -420 1108.36 -420 c 128,-1,2
 1032 -420 1032 -420 988.5 -401 c 128,-1,3
 945 -382 945 -382 914.5 -350 c 0,4,5
 851 -283.377 851 -283.377 851 -189 c 0,6,7
 851 -125.548 851 -125.548 877 -82.7742 c 0,8,9
 919.14 -13.4476 919.14 -13.4476 955 0 c 1,10,-1
 1023 45 l 1,11,-1
 1049 -2 l 1,12,13
 966 -66.1364 966 -66.1364 966 -157 c 0,14,15
 966 -246.325 966 -246.325 1027 -287.5 c 0,16,17
 1047 -301 1047 -301 1068.5 -301 c 128,-1,18
 1090 -301 1090 -301 1104 -294.5 c 128,-1,19
 1118 -288 1118 -288 1128 -279 c 0,20,21
 1148 -261 1148 -261 1148 -239 c 1,22,-1
 1189 -239 l 1,23,-1
 1243 -396 l 1,0,1
EndSplineSet
EndChar

StartChar: zero
Encoding: 48 48 195
Width: 1366
Flags: HW
LayerCount: 2
Fore
SplineSet
193 277 m 128,-1,1
 150 368 150 368 150 460 c 128,-1,2
 150 552 150 552 172 621.5 c 128,-1,3
 194 691 194 691 231.5 750.5 c 128,-1,4
 269 810 269 810 320.5 858.5 c 128,-1,5
 372 907 372 907 430.5 941.5 c 0,6,7
 551.739 1013 551.739 1013 671.37 1013 c 128,-1,8
 791 1013 791 1013 889 979 c 128,-1,9
 987 945 987 945 1059.5 881.5 c 0,10,11
 1215 745.303 1215 745.303 1215 519 c 0,12,13
 1215 287.257 1215 287.257 1048.5 129 c 0,14,15
 888.583 -23 888.583 -23 687 -23 c 0,16,17
 463.716 -23 463.716 -23 309 119 c 0,18,0
 236 186 236 186 193 277 c 128,-1,1
318 517 m 0,19,20
 318 432 318 432 345 355.5 c 128,-1,21
 372 279 372 279 421 221 c 0,22,23
 528.293 94 528.293 94 685 94 c 0,24,25
 836.351 94 836.351 94 939.5 190 c 0,26,27
 1049 291.911 1049 291.911 1049 459 c 0,28,29
 1049 635.458 1049 635.458 951 760 c 0,30,31
 844.771 895 844.771 895 676 895 c 0,32,33
 520.364 895 520.364 895 420 791.5 c 0,34,35
 318 686.312 318 686.312 318 517 c 0,19,20
EndSplineSet
Substitution2: "'onum' Oldstyle Figures in Latin lookup 5 subtable" .notdef
EndChar

StartChar: one
Encoding: 49 49 196
Width: 855
Flags: HW
LayerCount: 2
Fore
SplineSet
660 989 m 1,0,-1
 660 906 l 1,1,-1
 509 883 l 1,2,-1
 509 106 l 1,3,-1
 660 83 l 1,4,-1
 660 0 l 1,5,-1
 194 0 l 1,6,-1
 194 83 l 1,7,-1
 347 106 l 1,8,-1
 347 883 l 1,9,-1
 194 906 l 1,10,-1
 194 989 l 1,11,-1
 660 989 l 1,0,-1
EndSplineSet
Substitution2: "'onum' Oldstyle Figures in Latin lookup 5 subtable" .notdef
EndChar

StartChar: two
Encoding: 50 50 197
Width: 1195
Flags: HW
LayerCount: 2
Fore
SplineSet
917.5 844.5 m 128,-1,1
 940 794 940 794 940 737.5 c 128,-1,2
 940 681 940 681 926 638 c 128,-1,3
 912 595 912 595 884 556 c 0,4,5
 836.322 489.591 836.322 489.591 719 400 c 1,6,-1
 366 123 l 1,7,-1
 900 153 l 1,8,-1
 959 256 l 1,9,-1
 1042 256 l 1,10,-1
 992 0 l 1,11,-1
 153 0 l 1,12,-1
 153 85 l 1,13,-1
 494 362 l 1,14,-1
 582.5 431 l 1,15,16
 687.245 515.228 687.245 515.228 741 604.5 c 0,17,18
 769 651 769 651 769 697 c 0,19,20
 769 786 769 786 714.5 839 c 128,-1,21
 660 892 660 892 554 892 c 0,22,23
 427 892 427 892 307 796 c 0,24,25
 277 772 277 772 261 753 c 1,26,-1
 194 822 l 1,27,28
 277.305 934.707 277.305 934.707 444.5 990 c 0,29,30
 508 1011 508 1011 589.5 1011 c 128,-1,31
 671 1011 671 1011 738 990 c 128,-1,32
 805 969 805 969 850 932 c 128,-1,0
 895 895 895 895 917.5 844.5 c 128,-1,1
EndSplineSet
Substitution2: "'onum' Oldstyle Figures in Latin lookup 5 subtable" .notdef
EndChar

StartChar: three
Encoding: 51 51 198
Width: 1195
Flags: HW
LayerCount: 2
Fore
SplineSet
203 -451 m 1,0,-1
 237 -452 l 1,1,2
 492.611 -452 492.611 -452 672.5 -334.5 c 0,3,4
 863 -210.069 863 -210.069 863 -16 c 0,5,6
 863 110.19 863 110.19 769 193 c 0,7,8
 681.595 270 681.595 270 562 270 c 0,9,10
 535.667 270 535.667 270 516.333 268 c 2,11,-1
 483 264.5 l 2,12,13
 469 263 469 263 459 260 c 1,14,-1
 418 360 l 1,15,16
 624.879 386.523 624.879 386.523 712.5 490.5 c 0,17,18
 774 563.48 774 563.48 774 667 c 0,19,20
 774 763.565 774 763.565 708 828.5 c 0,21,22
 642.443 893 642.443 893 541 893 c 0,23,24
 394.041 893 394.041 893 277 800.5 c 0,25,26
 246 776 246 776 227 755 c 1,27,-1
 157 828 l 1,28,29
 204.525 895.535 204.525 895.535 310.5 949 c 0,30,31
 441.321 1015 441.321 1015 562.161 1015 c 128,-1,32
 683 1015 683 1015 753 983.5 c 128,-1,33
 823 952 823 952 866.5 904.5 c 0,34,35
 948 815.506 948 815.506 948 692 c 0,36,37
 948 589.361 948 589.361 885.5 491 c 0,38,39
 817.308 383.681 817.308 383.681 715 342 c 1,40,41
 950.677 314.091 950.677 314.091 1016 130 c 0,42,43
 1038 68 1038 68 1038 -6 c 128,-1,44
 1038 -80 1038 -80 1016 -147 c 128,-1,45
 994 -214 994 -214 949.5 -275.5 c 128,-1,46
 905 -337 905 -337 838 -389 c 128,-1,47
 771 -441 771 -441 680.5 -479 c 0,48,49
 485.444 -560.902 485.444 -560.902 223 -559 c 1,50,-1
 203 -451 l 1,0,-1
EndSplineSet
Substitution2: "'onum' Oldstyle Figures in Latin lookup 5 subtable" .notdef
EndChar

StartChar: four
Encoding: 52 52 199
Width: 1365
Flags: HW
LayerCount: 2
Fore
SplineSet
924 989 m 1,0,-1
 998 973 l 1,1,-1
 998 130 l 1,2,-1
 1230 130 l 1,3,-1
 1230 0 l 1,4,-1
 998 0 l 1,5,-1
 998 -431 l 1,6,-1
 834 -431 l 1,7,-1
 834 0 l 1,8,-1
 174 0 l 1,9,-1
 135 106 l 1,10,-1
 924 989 l 1,0,-1
834 130 m 1,11,-1
 834 719 l 1,12,-1
 302 130 l 1,13,-1
 834 130 l 1,11,-1
EndSplineSet
Substitution2: "'onum' Oldstyle Figures in Latin lookup 5 subtable" .notdef
EndChar

StartChar: five
Encoding: 53 53 200
Width: 1194
Flags: HW
LayerCount: 2
Fore
SplineSet
361 471 m 1,0,1
 389 473 389 473 462.5 473 c 128,-1,2
 536 473 536 473 642.5 443.5 c 128,-1,3
 749 414 749 414 829.5 354 c 0,4,5
 1004 223.938 1004 223.938 1004 -10 c 0,6,7
 1004 -238.031 1004 -238.031 815.5 -390 c 0,8,9
 602.374 -561.823 602.374 -561.823 210 -559 c 1,10,-1
 190 -458 l 1,11,12
 491.348 -458 491.348 -458 658.5 -341.5 c 0,13,14
 829 -222.667 829 -222.667 829 -4 c 0,15,16
 829 133.635 829 133.635 701 221 c 0,17,18
 564.744 314 564.744 314 339 314 c 0,19,20
 296 314 296 314 248 310 c 1,21,-1
 330 989 l 1,22,-1
 809 989 l 1,23,-1
 844 1076 l 1,24,-1
 937 1076 l 1,25,-1
 910 836 l 1,26,-1
 405 836 l 1,27,-1
 361 471 l 1,0,1
EndSplineSet
Substitution2: "'onum' Oldstyle Figures in Latin lookup 5 subtable" .notdef
EndChar

StartChar: six
Encoding: 54 54 201
Width: 1366
Flags: HW
LayerCount: 2
Fore
SplineSet
1131 1463 m 1,0,1
 906.354 1422.68 906.354 1422.68 702.5 1247 c 0,2,3
 515.357 1085.72 515.357 1085.72 438 902 c 1,4,5
 528.543 992.543 528.543 992.543 681.5 1016.5 c 0,6,7
 723 1023 723 1023 787 1023 c 128,-1,8
 851 1023 851 1023 933 992 c 128,-1,9
 1015 961 1015 961 1076 900.5 c 0,10,11
 1206 771.566 1206 771.566 1206 538 c 0,12,13
 1206 307.429 1206 307.429 1056 143.5 c 0,14,15
 903.647 -23 903.647 -23 688 -23 c 0,16,17
 445.457 -23 445.457 -23 300 138.5 c 0,18,19
 159 295.051 159 295.051 159 538 c 0,20,21
 159 794.636 159 794.636 301 1027 c 0,22,23
 430.165 1238.36 430.165 1238.36 651 1387 c 0,24,25
 863.608 1530.1 863.608 1530.1 1097 1569 c 1,26,-1
 1131 1463 l 1,0,1
430.5 790 m 128,-1,28
 398 753 398 753 385.5 718 c 128,-1,29
 373 683 373 683 368 660 c 0,30,31
 356 604.8 356 604.8 356 540.4 c 128,-1,32
 356 476 356 476 373 391 c 128,-1,33
 390 306 390 306 429 240 c 0,34,35
 515.273 94 515.273 94 686 94 c 0,36,37
 842.721 94 842.721 94 934.5 209 c 0,38,39
 1017 312.374 1017 312.374 1017 469 c 0,40,41
 1017 788.233 1017 788.233 851 874 c 0,42,43
 791 905 791 905 720.5 905 c 128,-1,44
 650 905 650 905 599 891.5 c 128,-1,45
 548 878 548 878 505.5 852.5 c 128,-1,27
 463 827 463 827 430.5 790 c 128,-1,28
EndSplineSet
Substitution2: "'onum' Oldstyle Figures in Latin lookup 5 subtable" .notdef
EndChar

StartChar: seven
Encoding: 55 55 202
Width: 1365
Flags: HW
LayerCount: 2
Fore
SplineSet
1145 989 m 1,0,-1
 1179 841 l 1,1,2
 708.085 -133.039 708.085 -133.039 639.042 -285.02 c 1,3,-1
 518 -560 l 1,4,-1
 355 -476 l 1,5,-1
 1031 831 l 1,6,-1
 335 831 l 1,7,-1
 286 659 l 1,8,-1
 186 659 l 1,9,-1
 201 989 l 1,10,-1
 1145 989 l 1,0,-1
EndSplineSet
Substitution2: "'onum' Oldstyle Figures in Latin lookup 5 subtable" .notdef
EndChar

StartChar: eight
Encoding: 56 56 203
Width: 1365
Flags: HW
LayerCount: 2
Fore
SplineSet
445.5 1302.5 m 0,0,1
 425 1265 425 1265 425 1211 c 128,-1,2
 425 1157 425 1157 456.5 1106.5 c 128,-1,3
 488 1056 488 1056 540 1009.5 c 128,-1,4
 592 963 592 963 658 918.5 c 2,5,-1
 792.5 828 l 2,6,7
 970.962 708.157 970.962 708.157 1033.98 639.078 c 128,-1,8
 1097 570 1097 570 1128.5 504.5 c 128,-1,9
 1160 439 1160 439 1160 385.5 c 128,-1,10
 1160 332 1160 332 1151.5 292.5 c 128,-1,11
 1143 253 1143 253 1122.5 210.5 c 128,-1,12
 1102 168 1102 168 1066 126 c 128,-1,13
 1030 84 1030 84 975.5 51 c 0,14,15
 853.288 -23 853.288 -23 667 -23 c 0,16,17
 450.019 -23 450.019 -23 324.5 87.5 c 0,18,19
 205 192.701 205 192.701 205 360 c 0,20,21
 205 525.931 205 525.931 339 653 c 0,22,23
 397 708 397 708 465.5 748.5 c 1,24,25
 595 822 l 1,26,-1
 672 741 l 1,27,28
 523.6 662.6 523.6 662.6 471.8 610.8 c 0,29,30
 363 502 363 502 363 360 c 0,31,32
 363 255.462 363 255.462 440 175.5 c 0,33,34
 529.074 83 529.074 83 677 83 c 0,35,36
 821.324 83 821.324 83 905 169 c 0,37,38
 974 239.917 974 239.917 974 317.458 c 128,-1,39
 974 395 974 395 943 448.5 c 128,-1,40
 912 502 912 502 862 550.5 c 128,-1,41
 812 599 812 599 747.5 644 c 0,42,43
 526.177 794.902 526.177 794.902 472.588 833.951 c 128,-1,44
 419 873 419 873 369 925 c 0,45,46
 257 1041.48 257 1041.48 257 1166 c 0,47,48
 257 1322.9 257 1322.9 383 1425 c 0,49,50
 505.17 1524 505.17 1524 677 1524 c 0,51,52
 890.71 1524 890.71 1524 1002 1420.5 c 0,53,54
 1098 1331.22 1098 1331.22 1098 1194 c 0,55,56
 1098 993 1098 993 792 813 c 1,57,-1
 698 877 l 1,58,-1
 787 933 l 2,59,60
 888.962 996.443 888.962 996.443 929 1080 c 0,61,62
 952 1128 952 1128 952 1193 c 128,-1,63
 952 1258 952 1258 928 1299.5 c 128,-1,64
 904 1341 904 1341 866 1367 c 0,65,66
 794.385 1416 794.385 1416 687 1416 c 0,67,68
 507.547 1416 507.547 1416 445.5 1302.5 c 0,0,1
EndSplineSet
Substitution2: "'onum' Oldstyle Figures in Latin lookup 5 subtable" .notdef
EndChar

StartChar: nine
Encoding: 57 57 204
Width: 1365
Flags: HW
LayerCount: 2
Fore
SplineSet
334 -454 m 1,0,1
 776.654 -375.223 776.654 -375.223 937 88 c 1,2,3
 846.986 -2.01367 846.986 -2.01367 685 -26.5 c 0,4,5
 642 -33 642 -33 577.5 -33 c 128,-1,6
 513 -33 513 -33 431.5 -0.5 c 128,-1,7
 350 32 350 32 289 94.5 c 0,8,9
 159 227.697 159 227.697 159 462 c 0,10,11
 159 691.857 159 691.857 309 851.5 c 0,12,13
 460.745 1013 460.745 1013 677 1013 c 0,14,15
 919.543 1013 919.543 1013 1065 851.5 c 0,16,17
 1206 694.949 1206 694.949 1206 452 c 0,18,19
 1206 58.539 1206 58.539 958 -226.5 c 0,20,21
 718.689 -501.552 718.689 -501.552 368 -560 c 1,22,-1
 334 -454 l 1,0,1
949.5 200 m 128,-1,24
 985 237 985 237 997.5 272 c 128,-1,25
 1010 307 1010 307 1015 330 c 0,26,27
 1027 385.2 1027 385.2 1027 449.6 c 128,-1,28
 1027 514 1027 514 1007 599 c 128,-1,29
 987 684 987 684 945 750 c 0,30,31
 852.091 896 852.091 896 679 896 c 0,32,33
 519.4 896 519.4 896 421.5 786 c 0,34,35
 330 683.191 330 683.191 330 531 c 0,36,37
 330 210.873 330 210.873 511 117.5 c 0,38,39
 574 85 574 85 644.5 85 c 128,-1,40
 715 85 715 85 768.5 98.5 c 128,-1,41
 822 112 822 112 868 137.5 c 128,-1,23
 914 163 914 163 949.5 200 c 128,-1,24
EndSplineSet
Substitution2: "'onum' Oldstyle Figures in Latin lookup 5 subtable" .notdef
EndChar

StartChar: notequal
Encoding: 8800 8800 207
Width: 1362
Flags: HW
LayerCount: 2
Fore
SplineSet
862 1266 m 1,0,-1
 956 1221 l 1,1,-1
 496 240 l 1,2,-1
 401 282 l 1,3,-1
 862 1266 l 1,0,-1
1223 612 m 1,4,-1
 1223 506 l 1,5,-1
 139 506 l 1,6,-1
 139 612 l 1,7,-1
 1223 612 l 1,4,-1
1223 1013 m 1,8,-1
 1223 906 l 1,9,-1
 139 906 l 1,10,-1
 139 1013 l 1,11,-1
 1223 1013 l 1,8,-1
EndSplineSet
EndChar

StartChar: Delta
Encoding: 916 916 208
AltUni2: 002206.ffffffff.0
Width: 1707
Flags: HW
LayerCount: 2
Fore
SplineSet
117 22 m 1,0,-1
 805 1516 l 1,1,-1
 837 1516 l 1,2,-1
 1590 27 l 1,3,-1
 1574 1 l 1,4,-1
 131 1 l 1,5,-1
 117 22 l 1,0,-1
1374 130 m 1,6,-1
 819 1234 l 1,7,-1
 329 128 l 1,8,-1
 1374 130 l 1,6,-1
EndSplineSet
EndChar

StartChar: infinity
Encoding: 8734 8734 209
Width: 1877
Flags: HW
LayerCount: 2
Fore
SplineSet
670.5 197 m 0,0,1
 612 170 612 170 528.5 170 c 128,-1,2
 445 170 445 170 373.5 197 c 128,-1,3
 302 224 302 224 255.5 268.5 c 0,4,5
 164 356.065 164 356.065 164 490 c 0,6,7
 164 652.394 164 652.394 282.5 753.5 c 0,8,9
 395.602 850 395.602 850 558 850 c 0,10,11
 737.176 850 737.176 850 909.5 661 c 2,12,-1
 1001 561 l 1,13,-1
 875 455 l 1,14,15
 853 481 853 481 829 513 c 2,16,-1
 778.5 578 l 1,17,18
 713.087 659.457 713.087 659.457 672.044 690.729 c 0,19,20
 591.625 752 591.625 752 533.312 752 c 128,-1,21
 475 752 475 752 433.5 734.5 c 128,-1,22
 392 717 392 717 362.5 686.5 c 0,23,24
 301 622.915 301 622.915 301 524 c 256,25,26
 301 422.958 301 422.958 373.5 352.5 c 0,27,28
 452.217 276 452.217 276 574 276 c 0,29,30
 697.132 276 697.132 276 831.5 443.5 c 1,31,-1
 901 532 l 1,32,-1
 966 469 l 1,33,-1
 877.5 362.5 l 1,34,35
 779.554 247.333 779.554 247.333 670.5 197 c 0,0,1
1323 735 m 0,36,37
 1173.64 735 1173.64 735 978 486 c 1,38,-1
 914 549 l 1,39,-1
 1008.5 655 l 1,40,41
 1184.68 847.532 1184.68 847.532 1355 850 c 0,42,43
 1538.29 851.89 1538.29 851.89 1631.5 751 c 0,44,45
 1713 662.788 1713 662.788 1713 527 c 0,46,47
 1713 363.926 1713 363.926 1595 264.5 c 0,48,49
 1482.85 170 1482.85 170 1320 170 c 0,50,51
 1138.33 170 1138.33 170 966 357 c 2,52,-1
 875 456 l 1,53,-1
 1002 562 l 1,54,-1
 1076 470.5 l 2,55,56
 1239.59 269 1239.59 269 1372 269 c 0,57,58
 1523.34 269 1523.34 269 1572 402 c 0,59,60
 1587 443 1587 443 1587 491 c 128,-1,61
 1587 539 1587 539 1569.5 582.5 c 128,-1,62
 1552 626 1552 626 1518.5 660 c 0,63,64
 1444.6 735 1444.6 735 1323 735 c 0,36,37
EndSplineSet
EndChar

StartChar: partialdiff
Encoding: 8706 8706 210
Width: 1366
Flags: HW
LayerCount: 2
Fore
SplineSet
338 1569 m 1,0,1
 440.467 1598 440.467 1598 537 1598 c 0,2,3
 840.106 1598 840.106 1598 1021.5 1327.5 c 0,4,5
 1198 1064.3 1198 1064.3 1198 641 c 0,6,7
 1198 358.187 1198 358.187 1066.5 179 c 0,8,9
 918.258 -23 918.258 -23 637 -23 c 0,10,11
 437.13 -23 437.13 -23 302 125 c 0,12,13
 168 271.762 168 271.762 168 486 c 0,14,15
 168 727.121 168 727.121 337.5 879.5 c 0,16,17
 486 1013 486 1013 660 1013 c 0,18,19
 845.333 1013 845.333 1013 926 947 c 0,20,21
 948 929 948 929 976 911 c 1,22,23
 976 1108.51 976 1108.51 852.5 1278.5 c 0,24,25
 761.912 1403.19 761.912 1403.19 618 1455 c 0,26,27
 543 1482 543 1482 460 1482 c 128,-1,28
 377 1482 377 1482 297 1463 c 1,29,-1
 338 1569 l 1,0,1
513.5 121.5 m 0,30,31
 569 94 569 94 653.5 94 c 128,-1,32
 738 94 738 94 805.5 135.5 c 128,-1,33
 873 177 873 177 917.5 243.5 c 0,34,35
 1006 375.753 1006 375.753 1006 564 c 0,36,37
 1006 791 1006 791 842.5 869 c 0,38,39
 788 895 788 895 707 895 c 128,-1,40
 626 895 626 895 558.5 862.5 c 128,-1,41
 491 830 491 830 445 770 c 0,42,43
 353 650 353 650 353 431 c 0,44,45
 353 201.027 353 201.027 513.5 121.5 c 0,30,31
EndSplineSet
EndChar

StartChar: summation
Encoding: 8721 8721 211
Width: 1537
Flags: HW
LayerCount: 2
Fore
SplineSet
758 686 m 1,0,-1
 177 1472 l 1,1,-1
 175 1553 l 1,2,-1
 1270 1553 l 1,3,-1
 1303 1248 l 1,4,-1
 1200 1248 l 1,5,-1
 1143 1435 l 1,6,-1
 276 1451 l 1,7,-1
 407 1459 l 1,8,-1
 980 686 l 1,9,-1
 433 -100 l 1,10,-1
 350 -81 l 1,11,-1
 1185 -50 l 1,12,-1
 1275 163 l 1,13,-1
 1362 163 l 1,14,-1
 1317 -180 l 1,15,-1
 213 -179 l 1,16,-1
 213 -100 l 1,17,-1
 758 686 l 1,0,-1
EndSplineSet
EndChar

StartChar: product
Encoding: 8719 8719 212
Width: 1703
Flags: HW
LayerCount: 2
Fore
SplineSet
175 85 m 1,0,-1
 363 119 l 1,1,-1
 344 99 l 1,2,-1
 344 1409 l 1,3,-1
 359 1389 l 1,4,-1
 179 1408 l 1,5,-1
 179 1505 l 1,6,-1
 1524 1505 l 1,7,-1
 1524 1408 l 1,8,-1
 1344 1389 l 1,9,-1
 1359 1409 l 1,10,-1
 1359 99 l 1,11,-1
 1340 119 l 1,12,-1
 1528 85 l 1,13,-1
 1528 0 l 1,14,-1
 992 0 l 1,15,-1
 992 85 l 1,16,-1
 1182 119 l 1,17,-1
 1164 97 l 1,18,-1
 1164 1417 l 1,19,-1
 1179 1400 l 1,20,-1
 524 1400 l 1,21,-1
 539 1417 l 1,22,-1
 539 97 l 1,23,-1
 521 119 l 1,24,-1
 711 85 l 1,25,-1
 711 0 l 1,26,-1
 175 0 l 1,27,-1
 175 85 l 1,0,-1
EndSplineSet
EndChar

StartChar: pi
Encoding: 960 960 213
Width: 1537
Flags: HW
LayerCount: 2
Fore
SplineSet
1110 1119 m 2,0,1
 1254.62 1119 1254.62 1119 1309 1226 c 1,2,-1
 1413 1226 l 1,3,4
 1403.04 1086.58 1403.04 1086.58 1311 1005 c 0,5,6
 1220.74 925 1220.74 925 1083 925 c 2,7,-1
 412 926 l 2,8,9
 314.947 926 314.947 926 257.5 867 c 0,10,11
 239 848 239 848 230 825 c 1,12,-1
 126 838 l 1,13,14
 116.143 887.286 116.143 887.286 140 935 c 0,15,16
 232 1119 232 1119 447 1119 c 2,17,-1
 1110 1119 l 2,0,1
1062 261 m 1,18,19
 1062 164 1062 164 1112 164 c 0,20,21
 1186.43 164 1186.43 164 1244.5 237 c 0,22,23
 1262 259 1262 259 1272 286 c 1,24,-1
 1381 286 l 1,25,26
 1354.59 180.367 1354.59 180.367 1271.5 87.5 c 0,27,28
 1171.74 -24 1171.74 -24 1059 -24 c 0,29,30
 950.375 -24 950.375 -24 933 115 c 0,31,32
 928 155 928 155 928 197 c 128,-1,33
 928 239 928 239 931 280 c 2,34,-1
 979 1028 l 1,35,-1
 1103 1092 l 1,36,-1
 1062 261 l 1,18,19
155 114 m 1,37,38
 183.2 118.7 183.2 118.7 233.6 142.85 c 128,-1,39
 284 167 284 167 316.5 189.5 c 128,-1,40
 349 212 349 212 376 244.5 c 128,-1,41
 403 277 403 277 419 314.5 c 0,42,43
 444.211 373.589 444.211 373.589 451 489 c 1,44,-1
 476 1004 l 1,45,-1
 597 1063 l 1,46,-1
 571 430 l 1,47,48
 559.129 259.853 559.129 259.853 539.065 202.426 c 128,-1,49
 519 145 519 145 496 114 c 128,-1,50
 473 83 473 83 441.5 54 c 0,51,52
 384.703 1.71101 384.703 1.71101 299 -24 c 1,53,-1
 155 114 l 1,37,38
EndSplineSet
EndChar

StartChar: integral
Encoding: 8747 8747 214
Width: 1200
Flags: HW
LayerCount: 2
Fore
SplineSet
343 -472 m 0,0,1
 211.897 -472 211.897 -472 125 -402 c 0,2,3
 89 -373 89 -373 68 -325 c 1,4,-1
 198 -234 l 1,5,6
 208.422 -277.774 208.422 -277.774 245.211 -304.387 c 0,7,8
 311.029 -352 311.029 -352 377.015 -352 c 128,-1,9
 443 -352 443 -352 485.5 -332 c 128,-1,10
 528 -312 528 -312 551 -271 c 0,11,12
 590 -201.478 590 -201.478 590 -33.7391 c 128,-1,13
 590 134 590 134 566 286.5 c 128,-1,14
 542 439 542 439 512.5 591 c 128,-1,15
 483 743 483 743 459 895 c 128,-1,16
 435 1047 435 1047 435 1175 c 128,-1,17
 435 1303 435 1303 464 1396.5 c 128,-1,18
 493 1490 493 1490 548 1560.5 c 0,19,20
 666.972 1713 666.972 1713 857 1713 c 0,21,22
 988.103 1713 988.103 1713 1075 1643 c 0,23,24
 1111 1614 1111 1614 1132 1566 c 1,25,-1
 1002 1475 l 1,26,27
 991.578 1518.77 991.578 1518.77 954.789 1545.39 c 0,28,29
 888.971 1593 888.971 1593 822.985 1593 c 128,-1,30
 757 1593 757 1593 714.5 1573 c 128,-1,31
 672 1553 672 1553 649 1512 c 0,32,33
 610 1442.48 610 1442.48 610 1274.74 c 128,-1,34
 610 1107 610 1107 634 955 c 128,-1,35
 658 803 658 803 687.5 651 c 128,-1,36
 717 499 717 499 741 347 c 128,-1,37
 765 195 765 195 765 66.5 c 128,-1,38
 765 -62 765 -62 736 -155.5 c 128,-1,39
 707 -249 707 -249 652 -319.5 c 0,40,41
 533.028 -472 533.028 -472 343 -472 c 0,0,1
EndSplineSet
EndChar

StartChar: Omega
Encoding: 937 937 215
AltUni2: 002126.ffffffff.0
Width: 1877
Flags: HW
LayerCount: 2
Fore
SplineSet
965 1553 m 0,0,1
 1082 1553 1082 1553 1208.5 1507 c 128,-1,2
 1335 1461 1335 1461 1427 1372.5 c 0,3,4
 1623.82 1183.16 1623.82 1183.16 1618 857 c 0,5,6
 1615.19 649.218 1615.19 649.218 1465.5 413.5 c 0,7,8
 1379.98 278.835 1379.98 278.835 1275 187.5 c 0,9,10
 1225 144 1225 144 1195 129 c 128,-1,11
 1165 114 1165 114 1149.5 97 c 128,-1,12
 1134 80 1134 80 1118 60.5 c 2,13,-1
 1087 24 l 2,14,15
 1072 7 1072 7 1059 0 c 1,16,-1
 1059 126 l 1,17,18
 1214.22 218.731 1214.22 218.731 1307 411.5 c 0,19,20
 1401 606.811 1401 606.811 1401 850 c 0,21,22
 1401 1146.76 1401 1146.76 1260 1317.5 c 0,23,24
 1133.24 1471 1133.24 1471 938 1471 c 0,25,26
 594.319 1471 594.319 1471 492 1127.5 c 0,27,28
 457 1010 457 1010 457 889 c 128,-1,29
 457 768 457 768 473 688.5 c 128,-1,30
 489 609 489 609 516.5 536 c 128,-1,31
 544 463 544 463 580.5 398.5 c 128,-1,32
 617 334 617 334 657.5 281 c 0,33,34
 741.103 171.593 741.103 171.593 824 126 c 1,35,-1
 824 0 l 1,36,-1
 672 121 l 1,37,38
 580.374 159.686 580.374 159.686 479.5 272 c 0,39,40
 314.098 456.159 314.098 456.159 259 692.5 c 0,41,42
 215.064 880.962 215.064 880.962 272.5 1083.5 c 0,43,44
 353.289 1368.39 353.289 1368.39 603.5 1484.5 c 0,45,46
 751.113 1553 751.113 1553 965 1553 c 0,0,1
229 152 m 1,47,-1
 645 152 l 1,48,-1
 824 0 l 1,49,-1
 122 0 l 1,50,-1
 229 152 l 1,47,-1
1173 152 m 1,51,-1
 1618 152 l 1,52,-1
 1739 0 l 1,53,-1
 1059 0 l 1,54,-1
 1173 152 l 1,51,-1
1656 362 m 1,55,-1
 1755 362 l 1,56,-1
 1739 0 l 1,57,-1
 1550 39 l 1,58,-1
 1656 362 l 1,55,-1
279 42 m 1,59,-1
 122 0 l 1,60,-1
 122 362 l 1,61,-1
 221 362 l 1,62,-1
 279 42 l 1,59,-1
EndSplineSet
EndChar

StartChar: radical
Encoding: 8730 8730 216
Width: 1873
Flags: HW
LayerCount: 2
Fore
SplineSet
924 0 m 1,0,-1
 785 0 l 1,1,-1
 420 883 l 1,2,-1
 221 906 l 1,3,-1
 221 989 l 1,4,-1
 570 989 l 1,5,-1
 882 162 l 1,6,-1
 1499 1868 l 1,7,-1
 1622 1870 l 1,8,-1
 924 0 l 1,0,-1
EndSplineSet
EndChar

StartChar: approxequal
Encoding: 8776 8776 217
Width: 1192
Flags: HW
LayerCount: 2
Fore
SplineSet
349 721 m 0,0,1
 273.545 721 273.545 721 179 641 c 1,2,-1
 136 679 l 1,3,4
 265.768 834 265.768 834 372 834 c 0,5,6
 437 834 437 834 551 805.5 c 128,-1,7
 665 777 665 777 710 767 c 0,8,9
 813.5 744 813.5 744 857 744 c 0,10,11
 935.043 744 935.043 744 1009 825 c 1,12,-1
 1056 792 l 1,13,14
 997.401 706.938 997.401 706.938 918.5 657 c 0,15,16
 879 632 879 632 842.5 632 c 128,-1,17
 806 632 806 632 766.5 638.5 c 128,-1,18
 727 645 727 645 681.5 655 c 2,19,-1
 494.5 698 l 2,20,21
 392.15 721 392.15 721 349 721 c 0,0,1
349 268 m 0,22,23
 273.545 268 273.545 268 179 188 c 1,24,-1
 136 226 l 1,25,26
 265.767 381 265.767 381 372 381 c 0,27,28
 437 381 437 381 551 352.5 c 128,-1,29
 665 324 665 324 710 314 c 0,30,31
 813.5 291 813.5 291 857 291 c 0,32,33
 935.043 291 935.043 291 1009 372 c 1,34,-1
 1056 339 l 1,35,36
 997.401 253.938 997.401 253.938 918.5 204 c 0,37,38
 879 179 879 179 842.5 179 c 128,-1,39
 806 179 806 179 766.5 185.5 c 128,-1,40
 727 192 727 192 681.5 202 c 2,41,-1
 494.5 245 l 2,42,43
 392.15 268 392.15 268 349 268 c 0,22,23
EndSplineSet
EndChar

StartChar: florin
Encoding: 402 402 218
Width: 1025
Flags: HW
LayerCount: 2
Fore
SplineSet
289 -330 m 1,0,-1
 127 -330 l 1,1,-1
 249 876 l 1,2,-1
 127 876 l 1,3,-1
 127 959 l 1,4,-1
 260 989 l 1,5,-1
 282 1201 l 1,6,7
 295.685 1354.95 295.685 1354.95 414.5 1500 c 0,8,9
 548.021 1663 548.021 1663 727 1663 c 0,10,11
 842.353 1663 842.353 1663 910 1617 c 0,12,13
 939 1597 939 1597 953 1571 c 1,14,-1
 867 1394 l 1,15,-1
 802 1394 l 1,16,17
 813.039 1493.35 813.039 1493.35 747 1530.5 c 0,18,19
 723 1544 723 1544 684.5 1544 c 128,-1,20
 646 1544 646 1544 607 1527.5 c 128,-1,21
 568 1511 568 1511 535.5 1477 c 0,22,23
 464.246 1402.46 464.246 1402.46 451 1270 c 2,24,-1
 422 989 l 1,25,-1
 731 989 l 1,26,-1
 731 872 l 1,27,-1
 411 872 l 1,28,-1
 289 -330 l 1,0,-1
EndSplineSet
EndChar

StartChar: lozenge
Encoding: 9674 9674 219
Width: 1364
Flags: HW
LayerCount: 2
Fore
SplineSet
708 1346 m 1,0,-1
 308 696 l 1,1,-1
 308 779 l 1,2,-1
 723 69 l 1,3,-1
 655 70 l 1,4,-1
 1055 720 l 1,5,-1
 1055 637 l 1,6,-1
 640 1347 l 1,7,-1
 708 1346 l 1,0,-1
162 691 m 1,8,-1
 162 745 l 1,9,-1
 593 1416 l 1,10,-1
 780 1416 l 1,11,-1
 1201 725 l 1,12,-1
 1201 671 l 1,13,-1
 770 0 l 1,14,-1
 583 0 l 1,15,-1
 162 691 l 1,8,-1
EndSplineSet
EndChar

StartChar: ellipsis
Encoding: 8230 8230 220
Width: 1536
Flags: HW
LayerCount: 2
Fore
SplineSet
141 60.5 m 128,-1,1
 127 83 127 83 127 102 c 128,-1,2
 127 121 127 121 139.5 143.5 c 128,-1,3
 152 166 152 166 171 186 c 0,4,5
 215.65 233 215.65 233 255 233 c 256,6,7
 295.667 233 295.667 233 327.333 200.5 c 0,8,9
 384 142.342 384 142.342 384 103 c 256,10,11
 384 66 384 66 352 34 c 0,12,13
 295 -23 295 -23 255 -23 c 0,14,15
 220.946 -23 220.946 -23 187.973 7.5 c 128,-1,0
 155 38 155 38 141 60.5 c 128,-1,1
653 60.5 m 128,-1,17
 639 83 639 83 639 102 c 128,-1,18
 639 121 639 121 651.5 143.5 c 128,-1,19
 664 166 664 166 683 186 c 0,20,21
 727.65 233 727.65 233 767 233 c 256,22,23
 807.667 233 807.667 233 839.333 200.5 c 0,24,25
 896 142.342 896 142.342 896 103 c 256,26,27
 896 66 896 66 864 34 c 0,28,29
 807 -23 807 -23 767 -23 c 0,30,31
 732.946 -23 732.946 -23 699.973 7.5 c 128,-1,16
 667 38 667 38 653 60.5 c 128,-1,17
1165 60.5 m 128,-1,33
 1151 83 1151 83 1151 102 c 128,-1,34
 1151 121 1151 121 1163.5 143.5 c 128,-1,35
 1176 166 1176 166 1195 186 c 0,36,37
 1239.65 233 1239.65 233 1279 233 c 256,38,39
 1319.67 233 1319.67 233 1351.33 200.5 c 0,40,41
 1408 142.342 1408 142.342 1408 103 c 256,42,43
 1408 66 1408 66 1376 34 c 0,44,45
 1319 -23 1319 -23 1279 -23 c 0,46,47
 1244.95 -23 1244.95 -23 1211.97 7.5 c 128,-1,32
 1179 38 1179 38 1165 60.5 c 128,-1,33
EndSplineSet
EndChar

StartChar: lessequal
Encoding: 8804 8804 221
Width: 1198
Flags: HW
LayerCount: 2
Fore
SplineSet
278 940 m 1,0,-1
 1072 406 l 1,1,-1
 1015 316 l 1,2,-1
 137 916 l 1,3,-1
 137 963 l 1,4,-1
 1015 1564 l 1,5,-1
 1072 1475 l 1,6,-1
 278 940 l 1,0,-1
1038 107 m 1,7,-1
 1038 0 l 1,8,-1
 149 0 l 1,9,-1
 149 107 l 1,10,-1
 1038 107 l 1,7,-1
EndSplineSet
EndChar

StartChar: trademark
Encoding: 8482 8482 223
Width: 2392
Flags: HW
LayerCount: 2
Fore
SplineSet
1008 1528 m 1,0,-1
 1023 1330 l 1,1,-1
 952 1330 l 1,2,-1
 922 1441 l 1,3,-1
 657 1441 l 1,4,-1
 657 769 l 1,5,-1
 731 756 l 1,6,-1
 731 689 l 1,7,-1
 438 689 l 1,8,-1
 438 756 l 1,9,-1
 510 769 l 1,10,-1
 510 1441 l 1,11,-1
 246 1441 l 1,12,-1
 215 1330 l 1,13,-1
 145 1330 l 1,14,-1
 159 1528 l 1,15,-1
 1008 1528 l 1,0,-1
1341 1389 m 1,16,17
 1311 749 l 1,18,-1
 1396 736 l 1,19,-1
 1396 689 l 1,20,-1
 1140 689 l 1,21,-1
 1140 736 l 1,22,-1
 1227 749 l 1,23,-1
 1267 1468 l 1,24,-1
 1181 1481 l 1,25,-1
 1181 1528 l 1,26,-1
 1396 1528 l 1,27,-1
 1701 896 l 1,28,-1
 1989 1528 l 1,29,-1
 2207 1528 l 1,30,-1
 2207 1481 l 1,31,-1
 2122 1468 l 1,32,33
 2131 1287 2131 1287 2141.5 1107 c 128,-1,34
 2152 927 2152 927 2160 749 c 1,35,-1
 2247 736 l 1,36,-1
 2247 689 l 1,37,-1
 1949 689 l 1,38,-1
 1949 736 l 1,39,-1
 2034 749 l 1,40,-1
 2009 1380 l 1,41,-1
 1678 689 l 1,42,-1
 1341 1389 l 1,16,17
EndSplineSet
EndChar

StartChar: H
Encoding: 72 72 243
Width: 1707
Flags: HW
LayerCount: 2
Fore
SplineSet
98 1508 m 1,0,-1
 588 1508 l 1,1,-1
 588 1423 l 1,2,-1
 435 1400 l 1,3,-1
 435 829 l 1,4,-1
 1270 829 l 1,5,-1
 1270 1400 l 1,6,-1
 1118 1423 l 1,7,-1
 1118 1508 l 1,8,-1
 1608 1508 l 1,9,-1
 1608 1423 l 1,10,-1
 1457 1400 l 1,11,-1
 1457 108 l 1,12,-1
 1608 85 l 1,13,-1
 1608 0 l 1,14,-1
 1118 0 l 1,15,-1
 1118 85 l 1,16,-1
 1270 108 l 1,17,-1
 1270 709 l 1,18,-1
 435 709 l 1,19,-1
 435 108 l 1,20,-1
 588 85 l 1,21,-1
 588 0 l 1,22,-1
 98 0 l 1,23,-1
 98 85 l 1,24,-1
 250 108 l 1,25,-1
 250 1400 l 1,26,-1
 98 1423 l 1,27,-1
 98 1508 l 1,0,-1
EndSplineSet
EndChar

StartChar: brokenbar
Encoding: 166 166 244
Width: 512
Flags: HW
LayerCount: 2
Fore
SplineSet
197 494 m 1,0,-1
 315 494 l 1,1,-1
 315 -559 l 1,2,-1
 197 -559 l 1,3,-1
 197 494 l 1,0,-1
197 1766 m 1,4,-1
 315 1766 l 1,5,-1
 315 683 l 1,6,-1
 197 683 l 1,7,-1
 197 1766 l 1,4,-1
EndSplineSet
EndChar

StartChar: twosuperior
Encoding: 178 178 245
Width: 853
Flags: HW
LayerCount: 2
Fore
SplineSet
647.5 1415.5 m 128,-1,1
 662 1380 662 1380 662 1340.5 c 128,-1,2
 662 1301 662 1301 652 1271 c 128,-1,3
 642 1241 642 1241 622.5 1214 c 0,4,5
 592.565 1172.55 592.565 1172.55 507 1105 c 1,6,-1
 282 932 l 1,7,-1
 634 932 l 1,8,-1
 682 1004 l 1,9,-1
 740 1004 l 1,10,-1
 698 825 l 1,11,-1
 112 825 l 1,12,-1
 112 905 l 1,13,-1
 435 1147 l 2,14,15
 492 1190 492 1190 517 1227 c 128,-1,16
 542 1264 542 1264 542 1319.5 c 128,-1,17
 542 1375 542 1375 507.5 1412 c 128,-1,18
 473 1449 473 1449 413 1449 c 0,19,20
 287.593 1449 287.593 1449 187 1352 c 1,21,-1
 141 1400 l 1,22,23
 201.581 1472.31 201.581 1472.31 301 1511.5 c 0,24,25
 353 1532 353 1532 417 1532 c 128,-1,26
 481 1532 481 1532 527 1517.5 c 128,-1,27
 573 1503 573 1503 603 1477 c 128,-1,0
 633 1451 633 1451 647.5 1415.5 c 128,-1,1
EndSplineSet
EndChar

StartChar: threesuperior
Encoding: 179 179 246
Width: 851
Flags: HW
LayerCount: 2
Fore
SplineSet
379 1450 m 0,0,1
 277.172 1450 277.172 1450 166 1346 c 1,2,-1
 117 1395 l 1,3,4
 188.316 1468.24 188.316 1468.24 266.158 1500.12 c 128,-1,5
 344 1532 344 1532 411 1532 c 128,-1,6
 478 1532 478 1532 528 1511 c 128,-1,7
 578 1490 578 1490 609.5 1456 c 0,8,9
 670 1390.7 670 1390.7 670 1292 c 0,10,11
 670 1222.95 670 1222.95 637.5 1174.98 c 0,12,13
 581.556 1092.39 581.556 1092.39 507 1061 c 1,14,15
 733 1028.04 733 1028.04 733 807 c 0,16,17
 733 641.466 733 641.466 589 531 c 0,18,19
 430.693 409.559 430.693 409.559 142 400 c 1,20,-1
 128 482 l 1,21,22
 349.988 482 349.988 482 478.5 567 c 0,23,24
 611 654.638 611 654.638 611 811 c 0,25,26
 611 967.75 611 967.75 478 990.5 c 0,27,28
 440 997 440 997 397.125 997 c 128,-1,29
 354.25 997 354.25 997 328 990 c 1,30,-1
 300 1074 l 1,31,32
 444.656 1091.86 444.656 1091.86 506 1165 c 0,33,34
 549 1216.27 549 1216.27 549 1289 c 0,35,36
 549 1355.17 549 1355.17 499 1403 c 0,37,38
 449.864 1450 449.864 1450 379 1450 c 0,0,1
EndSplineSet
EndChar

StartChar: onesuperior
Encoding: 185 185 247
Width: 512
Flags: HW
LayerCount: 2
Fore
SplineSet
419 1507 m 1,0,-1
 419 1449 l 1,1,-1
 313 1433 l 1,2,-1
 313 889 l 1,3,-1
 419 873 l 1,4,-1
 419 815 l 1,5,-1
 92 815 l 1,6,-1
 92 873 l 1,7,-1
 200 889 l 1,8,-1
 200 1433 l 1,9,-1
 92 1449 l 1,10,-1
 92 1507 l 1,11,-1
 419 1507 l 1,0,-1
EndSplineSet
EndChar

StartChar: Eth
Encoding: 208 208 248
Width: 1708
Flags: HW
LayerCount: 2
Fore
SplineSet
56 838 m 1,0,-1
 227 838 l 1,1,-1
 227 1400 l 1,2,-1
 72 1423 l 1,3,-1
 72 1508 l 1,4,-1
 744 1508 l 2,5,6
 1121.66 1508 1121.66 1508 1338 1313.5 c 0,7,8
 1552 1121.11 1552 1121.11 1552 791 c 0,9,10
 1552 552.078 1552 552.078 1443 364 c 0,11,12
 1342.6 190.769 1342.6 190.769 1168 94 c 0,13,14
 998.391 -3.91461e-06 998.391 -3.91461e-06 805 0 c 2,15,-1
 72 0 l 1,16,-1
 72 85 l 1,17,-1
 227 108 l 1,18,-1
 227 719 l 1,19,-1
 31 719 l 1,20,-1
 56 838 l 1,0,-1
412 1387 m 1,21,-1
 412 838 l 1,22,-1
 841 838 l 1,23,-1
 815 719 l 1,24,-1
 412 719 l 1,25,-1
 412 120 l 1,26,-1
 803 120 l 2,27,28
 1039 120 1039 120 1196.5 277.5 c 0,29,30
 1359 440 1359 440 1359 699 c 0,31,32
 1359 997.474 1359 997.474 1209 1183 c 0,33,34
 1044.06 1387 1044.06 1387 739 1387 c 2,35,-1
 412 1387 l 1,21,-1
EndSplineSet
EndChar

StartChar: multiply
Encoding: 215 215 249
Width: 1362
Flags: HW
LayerCount: 2
Fore
SplineSet
1098 1090 m 1,0,-1
 761 756 l 1,1,-1
 1105 409 l 1,2,-1
 1032 335 l 1,3,-1
 686 681 l 1,4,-1
 332 325 l 1,5,-1
 257 400 l 1,6,-1
 610 756 l 1,7,-1
 264 1102 l 1,8,-1
 340 1175 l 1,9,-1
 686 829 l 1,10,-1
 1023 1166 l 1,11,-1
 1098 1090 l 1,0,-1
EndSplineSet
EndChar

StartChar: Thorn
Encoding: 222 222 251
Width: 1321
Flags: HW
LayerCount: 2
Fore
SplineSet
665 490 m 2,0,1
 823.547 490 823.547 490 912.5 580 c 0,2,3
 1000 668.529 1000 668.529 1000 820 c 0,4,5
 1000 991.023 1000 991.023 921.5 1060.5 c 0,6,7
 837.325 1135 837.325 1135 622 1135 c 2,8,-1
 389 1135 l 1,9,-1
 389 490 l 1,10,-1
 665 490 l 2,0,1
224 1400 m 1,11,-1
 72 1423 l 1,12,-1
 72 1508 l 1,13,-1
 539 1508 l 1,14,-1
 539 1423 l 1,15,-1
 389 1400 l 1,16,-1
 389 1256 l 1,17,-1
 645 1256 l 2,18,19
 1136.83 1256 1136.83 1256 1187.5 952 c 0,20,21
 1196 901 1196 901 1196 816.5 c 128,-1,22
 1196 732 1196 732 1159.5 643.5 c 128,-1,23
 1123 555 1123 555 1052 495 c 0,24,25
 907.633 373 907.633 373 636 373 c 2,26,-1
 389 373 l 1,27,-1
 389 108 l 1,28,-1
 562 85 l 1,29,-1
 562 0 l 1,30,-1
 72 0 l 1,31,-1
 72 85 l 1,32,-1
 224 108 l 1,33,-1
 224 1400 l 1,11,-1
EndSplineSet
EndChar

StartChar: Lslash
Encoding: 321 321 253
Width: 1194
Flags: HW
LayerCount: 2
Fore
SplineSet
-5 737 m 1,0,-1
 685 921 l 1,1,-1
 714 807 l 1,2,-1
 29 622 l 1,3,-1
 -5 737 l 1,0,-1
562 1508 m 1,4,-1
 562 1423 l 1,5,-1
 412 1400 l 1,6,-1
 412 120 l 1,7,-1
 930 120 l 1,8,-1
 989 344 l 1,9,-1
 1071 344 l 1,10,-1
 1062 0 l 1,11,-1
 72 0 l 1,12,-1
 72 85 l 1,13,-1
 224 108 l 1,14,-1
 224 1400 l 1,15,-1
 72 1423 l 1,16,-1
 72 1508 l 1,17,-1
 562 1508 l 1,4,-1
EndSplineSet
EndChar

StartChar: minus
Encoding: 8722 8722 257
Width: 1362
Flags: HW
LayerCount: 2
Fore
SplineSet
1223 813 m 1,0,-1
 1223 706 l 1,1,-1
 139 706 l 1,2,-1
 139 813 l 1,3,-1
 1223 813 l 1,0,-1
EndSplineSet
EndChar

StartChar: lslash
Encoding: 322 322 259
Width: 513
Flags: HW
LayerCount: 2
Fore
SplineSet
362 106 m 1,0,-1
 490 83 l 1,1,-1
 490 0 l 1,2,-1
 70 0 l 1,3,-1
 70 83 l 1,4,-1
 200 106 l 1,5,-1
 200 793 l 1,6,-1
 48 751 l 1,7,-1
 16 868 l 1,8,-1
 200 915 l 1,9,-1
 200 1483 l 1,10,-1
 70 1508 l 1,11,-1
 70 1589 l 1,12,-1
 362 1663 l 1,13,-1
 362 960 l 1,14,-1
 513 999 l 1,15,-1
 541 885 l 1,16,-1
 362 838 l 1,17,-1
 362 106 l 1,0,-1
EndSplineSet
EndChar

StartChar: eth
Encoding: 240 240 260
Width: 1196
Flags: HW
LayerCount: 2
Fore
SplineSet
415 1634 m 1,0,1
 537.857 1560.29 537.857 1560.29 658 1436 c 1,2,-1
 871 1647 l 1,3,-1
 917 1566 l 1,4,-1
 719 1378 l 1,5,6
 972.312 1096.19 972.312 1096.19 1055 744 c 0,7,8
 1082 629 1082 629 1082 512 c 128,-1,9
 1082 395 1082 395 1048 295 c 128,-1,10
 1014 195 1014 195 953 124.5 c 0,11,12
 825.376 -23 825.376 -23 622 -23 c 0,13,14
 387.726 -23 387.726 -23 255 121.5 c 0,15,16
 131 256.5 131 256.5 131 478 c 0,17,18
 131 718.359 131 718.359 272.5 868.5 c 0,19,20
 408.683 1013 408.683 1013 613 1013 c 0,21,22
 707 1013 707 1013 849 942 c 1,23,24
 782.78 1114.17 782.78 1114.17 633 1290 c 1,25,-1
 422 1083 l 1,26,-1
 375 1159 l 1,27,-1
 576 1357 l 1,28,29
 435.783 1496.53 435.783 1496.53 359 1566 c 1,30,-1
 415 1634 l 1,0,1
620 94 m 0,31,32
 909 94 909 94 909 459 c 0,33,34
 909 660.667 909 660.667 863.5 757.5 c 0,35,36
 798.892 895 798.892 895 611 895 c 0,37,38
 465.107 895 465.107 895 382.5 784.5 c 0,39,40
 306 682.169 306 682.169 306 516 c 0,41,42
 306 342.425 306 342.425 388 222.5 c 0,43,44
 475.863 94 475.863 94 620 94 c 0,31,32
EndSplineSet
EndChar

StartChar: thorn
Encoding: 254 254 261
Width: 1195
Flags: HW
LayerCount: 2
Fore
SplineSet
623.132 -23 m 0,0,1
 490.263 -23 490.263 -23 365 45 c 1,2,-1
 365 -454 l 1,3,-1
 492 -477 l 1,4,-1
 492 -560 l 1,5,-1
 72 -560 l 1,6,-1
 72 -477 l 1,7,-1
 202 -454 l 1,8,-1
 202 1483 l 1,9,-1
 72 1508 l 1,10,-1
 72 1589 l 1,11,-1
 365 1663 l 1,12,-1
 365 883 l 1,13,14
 552.778 1013 552.778 1013 699 1013 c 0,15,16
 900.97 1013 900.97 1013 1018 871.5 c 0,17,18
 1130 736.082 1130 736.082 1130 519 c 256,19,20
 1130 298.095 1130 298.095 1001 143.5 c 0,21,22
 862.066 -23 862.066 -23 623.132 -23 c 0,0,1
657 883 m 0,23,24
 508.464 883 508.464 883 365 780 c 1,25,-1
 365 209 l 1,26,27
 451.25 94 451.25 94 638 94 c 0,28,29
 784.685 94 784.685 94 872 209 c 0,30,31
 956 319.634 956 319.634 956 497 c 0,32,33
 956 761.743 956 761.743 791.5 852 c 0,34,35
 735 883 735 883 657 883 c 0,23,24
EndSplineSet
EndChar

StartChar: currency
Encoding: 164 164 262
Width: 1366
Flags: HW
LayerCount: 2
Fore
SplineSet
310 420 m 1,0,1
 205 540 205 540 205 703.2 c 128,-1,2
 205 866.4 205 866.4 313 996 c 1,3,-1
 153 1157 l 1,4,-1
 233 1239 l 1,5,-1
 395 1074 l 1,6,7
 530.2 1178 530.2 1178 691.635 1178 c 128,-1,8
 853.07 1178 853.07 1178 982 1090 c 1,9,-1
 1130 1239 l 1,10,-1
 1213 1159 l 1,11,-1
 1067 1013 l 1,12,13
 1161 900.2 1161 900.2 1161 730.248 c 128,-1,14
 1161 560.296 1161 560.296 1043 427 c 1,15,-1
 1213 259 l 1,16,-1
 1130 179 l 1,17,-1
 959 348 l 1,18,19
 829.738 259 829.738 259 679.174 259 c 128,-1,20
 528.61 259 528.61 259 398 344 c 1,21,-1
 233 179 l 1,22,-1
 153 261 l 1,23,-1
 310 420 l 1,0,1
355 738.5 m 0,24,25
 355 660 355 660 379.5 590.5 c 128,-1,26
 404 521 404 521 448 468 c 0,27,28
 543.472 353 543.472 353 685 353 c 256,29,30
 832.488 353 832.488 353 920.5 440 c 0,31,32
 1013 531.437 1013 531.437 1013 688 c 0,33,34
 1013 847.163 1013 847.163 924 961 c 0,35,36
 828.618 1083 828.618 1083 676 1083 c 0,37,38
 527.267 1083 527.267 1083 441.5 990 c 0,39,40
 355 896.205 355 896.205 355 738.5 c 0,24,25
EndSplineSet
EndChar

StartChar: onequarter
Encoding: 188 188 263
Width: 1705
Flags: HW
LayerCount: 2
Fore
SplineSet
356 1668 m 1,0,-1
 356 959 l 1,1,-1
 460 947 l 1,2,-1
 460 906 l 1,3,-1
 159 906 l 1,4,-1
 159 947 l 1,5,-1
 275 959 l 1,6,-1
 275 1543 l 2,7,8
 275 1554 275 1554 260 1554 c 0,9,10
 257 1554 257 1554 243.5 1549 c 2,11,-1
 182.5 1524.5 l 2,12,13
 167 1518 167 1518 159 1514 c 1,14,-1
 134 1558 l 1,15,-1
 356 1668 l 1,0,-1
1452 750 m 1,16,-1
 1488 750 l 1,17,-1
 1488 281 l 1,18,-1
 1605 281 l 1,19,-1
 1605 215 l 1,20,-1
 1488 215 l 1,21,-1
 1488 53 l 1,22,-1
 1553 41 l 1,23,-1
 1553 0 l 1,24,-1
 1343 0 l 1,25,-1
 1343 41 l 1,26,-1
 1407 53 l 1,27,-1
 1407 215 l 1,28,-1
 1059 215 l 1,29,-1
 1059 269 l 1,30,-1
 1452 750 l 1,16,-1
1407 281 m 1,31,-1
 1407 614 l 1,32,-1
 1141 281 l 1,33,-1
 1407 281 l 1,31,-1
1130 1672 m 1,34,-1
 1225 1627 l 1,35,-1
 456 -23 l 1,36,-1
 362 18 l 1,37,-1
 1130 1672 l 1,34,-1
EndSplineSet
EndChar

StartChar: onehalf
Encoding: 189 189 264
Width: 1705
Flags: HW
LayerCount: 2
Fore
SplineSet
356 1668 m 1,0,-1
 356 959 l 1,1,-1
 460 947 l 1,2,-1
 460 906 l 1,3,-1
 159 906 l 1,4,-1
 159 947 l 1,5,-1
 275 959 l 1,6,-1
 275 1543 l 2,7,8
 275 1554 275 1554 260 1554 c 0,9,10
 257 1554 257 1554 243.5 1549 c 2,11,-1
 182.5 1524.5 l 2,12,13
 167 1518 167 1518 159 1514 c 1,14,-1
 134 1558 l 1,15,-1
 356 1668 l 1,0,-1
1488.5 647 m 0,16,17
 1500 612 1500 612 1500 572.5 c 128,-1,18
 1500 533 1500 533 1492.5 502 c 128,-1,19
 1485 471 1485 471 1467.5 440.5 c 0,20,21
 1439.67 391.995 1439.67 391.995 1349 295 c 2,22,-1
 1145 76 l 1,23,-1
 1456 76 l 1,24,-1
 1456 75 l 1,25,26
 1464 89 1464 89 1473.5 102.5 c 2,27,-1
 1491 128 l 1,28,-1
 1532 128 l 1,29,-1
 1503 0 l 1,30,-1
 1037 0 l 1,31,-1
 1037 57 l 1,32,-1
 1304 352 l 1,33,34
 1414 478.667 1414 478.667 1414 562 c 0,35,36
 1414 659.796 1414 659.796 1344.5 691 c 0,37,38
 1320 702 1320 702 1282 702 c 0,39,40
 1218.9 702 1218.9 702 1150 649 c 0,41,42
 1120 626 1120 626 1096 597 c 1,43,-1
 1056 625 l 1,44,45
 1110.52 698.993 1110.52 698.993 1194.5 740.5 c 0,46,47
 1238 762 1238 762 1293 762 c 256,48,49
 1450.71 762 1450.71 762 1488.5 647 c 0,16,17
1130 1672 m 1,50,-1
 1225 1627 l 1,51,-1
 456 -23 l 1,52,-1
 362 18 l 1,53,-1
 1130 1672 l 1,50,-1
EndSplineSet
EndChar

StartChar: threequarters
Encoding: 190 190 265
Width: 1705
Flags: HW
LayerCount: 2
Fore
SplineSet
282 1608 m 0,0,1
 208.65 1608 208.65 1608 132 1535 c 1,2,-1
 96 1569 l 1,3,4
 191.333 1668 191.333 1668 303 1668 c 0,5,6
 399.449 1668 399.449 1668 449.5 1613.5 c 0,7,8
 492 1567.22 492 1567.22 492 1496 c 0,9,10
 492 1418 492 1418 419.5 1360 c 0,11,12
 397 1342 397 1342 370 1331 c 1,13,14
 486.108 1313.93 486.108 1313.93 524.5 1221.5 c 0,15,16
 538 1189 538 1189 538 1139 c 128,-1,17
 538 1089 538 1089 511.5 1034.5 c 128,-1,18
 485 980 485 980 432 935.5 c 0,19,20
 311.869 834.635 311.869 834.635 109 829 c 1,21,-1
 100 888 l 1,22,23
 254.783 888 254.783 888 352.5 960.5 c 0,24,25
 451 1033.58 451 1033.58 451 1146 c 0,26,27
 451 1285 451 1285 294 1285 c 0,28,29
 275 1285 275 1285 242 1279 c 1,30,-1
 221 1340 l 1,31,32
 325.709 1352.42 325.709 1352.42 372 1404.5 c 0,33,34
 405 1441.62 405 1441.62 405 1493 c 0,35,36
 405 1608 405 1608 282 1608 c 0,0,1
1503 750 m 1,37,-1
 1539 750 l 1,38,-1
 1539 281 l 1,39,-1
 1656 281 l 1,40,-1
 1656 215 l 1,41,-1
 1539 215 l 1,42,-1
 1539 53 l 1,43,-1
 1604 41 l 1,44,-1
 1604 0 l 1,45,-1
 1394 0 l 1,46,-1
 1394 41 l 1,47,-1
 1458 53 l 1,48,-1
 1458 215 l 1,49,-1
 1110 215 l 1,50,-1
 1110 269 l 1,51,-1
 1503 750 l 1,37,-1
1458 281 m 1,52,-1
 1458 614 l 1,53,-1
 1192 281 l 1,54,-1
 1458 281 l 1,52,-1
1182 1672 m 1,55,-1
 1277 1627 l 1,56,-1
 508 -23 l 1,57,-1
 414 18 l 1,58,-1
 1182 1672 l 1,55,-1
EndSplineSet
EndChar

StartChar: lacute
Encoding: 314 314 275
Width: 513
Flags: HW
LayerCount: 2
Fore
SplineSet
362 106 m 1,0,-1
 490 83 l 1,1,-1
 490 0 l 1,2,-1
 70 0 l 1,3,-1
 70 83 l 1,4,-1
 200 106 l 1,5,-1
 200 1350 l 1,6,-1
 70 1375 l 1,7,-1
 70 1456 l 1,8,-1
 362 1530 l 1,9,-1
 362 106 l 1,0,-1
486 1908 m 1,10,-1
 129 1588 l 1,11,-1
 82 1628 l 1,12,-1
 325 1958 l 1,13,-1
 486 1908 l 1,10,-1
EndSplineSet
EndChar

StartChar: hbar
Encoding: 295 295 298
Width: 1196
Flags: HW
LayerCount: 2
Fore
SplineSet
65 1333 m 1,0,-1
 575 1333 l 1,1,-1
 575 1220 l 1,2,-1
 65 1220 l 1,3,-1
 65 1333 l 1,0,-1
673 883 m 0,4,5
 521.828 883 521.828 883 361 777 c 1,6,-1
 361 106 l 1,7,-1
 488 83 l 1,8,-1
 488 0 l 1,9,-1
 68 0 l 1,10,-1
 68 83 l 1,11,-1
 198 106 l 1,12,-1
 198 1483 l 1,13,-1
 68 1508 l 1,14,-1
 68 1589 l 1,15,-1
 361 1663 l 1,16,-1
 361 883 l 1,17,18
 460.735 952.047 460.735 952.047 557.367 982.524 c 128,-1,19
 654 1013 654 1013 722 1013 c 128,-1,20
 790 1013 790 1013 844 994 c 128,-1,21
 898 975 898 975 936 936.5 c 0,22,23
 1016 855.447 1016 855.447 1016 704 c 2,24,-1
 1016 106 l 1,25,-1
 1143 83 l 1,26,-1
 1143 0 l 1,27,-1
 724 0 l 1,28,-1
 724 83 l 1,29,-1
 853 106 l 1,30,-1
 853 685 l 2,31,32
 853 883 853 883 673 883 c 0,4,5
EndSplineSet
EndChar

StartChar: dotlessj
Encoding: 567 567 299
Width: 513
Flags: HW
LayerCount: 2
Fore
SplineSet
-5 -337 m 0,0,1
 176 -337 176 -337 176 9 c 2,2,-1
 176 834 l 1,3,-1
 46 857 l 1,4,-1
 46 940 l 1,5,-1
 338 1013 l 1,6,-1
 338 167 l 2,7,8
 338 -18.4615 338 -18.4615 310 -113.231 c 128,-1,9
 282 -208 282 -208 249.5 -265 c 128,-1,10
 217 -322 217 -322 167.5 -376 c 128,-1,11
 118 -430 118 -430 66.5 -458 c 128,-1,12
 15 -486 15 -486 -21 -486 c 0,13,14
 -118.143 -486 -118.143 -486 -174 -463 c 1,15,-1
 -120 -276 l 1,16,-1
 -80 -276 l 1,17,18
 -80 -310.536 -80 -310.536 -37 -330.5 c 0,19,20
 -23 -337 -23 -337 -5 -337 c 0,0,1
EndSplineSet
EndChar

StartChar: commaaccent
Encoding: 65537 -1 300
Width: 566
Flags: HW
LayerCount: 2
Fore
SplineSet
234 -462 m 0,0,1
 299 -402.417 299 -402.417 299 -340.5 c 0,2,3
 299 -305 299 -305 281 -289 c 128,-1,4
 263 -273 263 -273 241.5 -260 c 128,-1,5
 220 -247 220 -247 202 -233 c 128,-1,6
 184 -219 184 -219 184 -199.5 c 128,-1,7
 184 -180 184 -180 195.5 -158 c 128,-1,8
 207 -136 207 -136 226 -115 c 0,9,10
 271.238 -65 271.238 -65 315 -65 c 0,11,12
 353.641 -65 353.641 -65 384.82 -97 c 0,13,14
 440 -153.632 440 -153.632 440 -199.816 c 128,-1,15
 440 -246 440 -246 429.5 -289 c 128,-1,16
 419 -332 419 -332 402.5 -367.5 c 0,17,18
 374.304 -428.165 374.304 -428.165 320.652 -479.082 c 128,-1,19
 267 -530 267 -530 200 -560 c 1,20,-1
 169 -505 l 1,21,22
 205 -488 205 -488 234 -462 c 0,0,1
EndSplineSet
EndChar

StartChar: grave.cap
Encoding: 65538 -1 301
Width: 566
Flags: HW
LayerCount: 2
Fore
SplineSet
130 1999 m 1,0,-1
 373 1669 l 1,1,-1
 326 1630 l 1,2,-1
 -30 1950 l 1,3,-1
 130 1999 l 1,0,-1
EndSplineSet
EndChar

StartChar: acute.cap
Encoding: 65539 -1 302
Width: 566
Flags: HW
LayerCount: 2
Fore
SplineSet
565 1951 m 1,0,-1
 210 1631 l 1,1,-1
 163 1670 l 1,2,-1
 405 2000 l 1,3,-1
 565 1951 l 1,0,-1
EndSplineSet
EndChar

StartChar: circumflex.cap
Encoding: 65540 -1 303
Width: 566
Flags: HW
LayerCount: 2
Fore
SplineSet
287 2000 m 1,0,-1
 615 1731 l 1,1,-1
 558 1661 l 1,2,-1
 281 1864 l 1,3,-1
 5 1661 l 1,4,-1
 -49 1724 l 1,5,-1
 287 2000 l 1,0,-1
EndSplineSet
EndChar

StartChar: dieresis.cap
Encoding: 65541 -1 304
Width: 566
Flags: HW
LayerCount: 2
Fore
SplineSet
-13 1836 m 128,-1,1
 -26 1857 -26 1857 -26 1875.5 c 128,-1,2
 -26 1894 -26 1894 -14 1915.5 c 128,-1,3
 -2 1937 -2 1937 16 1955.5 c 0,4,5
 59.2973 2000 59.2973 2000 86.1487 2000 c 128,-1,6
 113 2000 113 2000 134.5 1987.5 c 128,-1,7
 156 1975 156 1975 174 1956.5 c 0,8,9
 216 1913.33 216 1913.33 216 1885.67 c 128,-1,10
 216 1858 216 1858 204 1837 c 128,-1,11
 192 1816 192 1816 174 1798 c 0,12,13
 133 1757 133 1757 94 1757 c 0,14,15
 62.9714 1757 62.9714 1757 31.4857 1786 c 128,-1,0
 0 1815 0 1815 -13 1836 c 128,-1,1
364 1836 m 128,-1,17
 351 1857 351 1857 351 1875.5 c 128,-1,18
 351 1894 351 1894 363 1915.5 c 128,-1,19
 375 1937 375 1937 393 1955.5 c 0,20,21
 436.297 2000 436.297 2000 463.149 2000 c 128,-1,22
 490 2000 490 2000 511.5 1987.5 c 128,-1,23
 533 1975 533 1975 551 1956.5 c 0,24,25
 593 1913.33 593 1913.33 593 1885.67 c 128,-1,26
 593 1858 593 1858 581 1837 c 128,-1,27
 569 1816 569 1816 551 1798 c 0,28,29
 510 1757 510 1757 471 1757 c 0,30,31
 439.971 1757 439.971 1757 408.486 1786 c 128,-1,16
 377 1815 377 1815 364 1836 c 128,-1,17
EndSplineSet
EndChar

StartChar: caron.cap
Encoding: 65542 -1 305
Width: 566
Flags: HW
LayerCount: 2
Fore
SplineSet
278 1708 m 1,0,-1
 -38 1929 l 1,1,-1
 7 2000 l 1,2,-1
 285 1845 l 1,3,-1
 560 2000 l 1,4,-1
 603 1936 l 1,5,-1
 278 1708 l 1,0,-1
EndSplineSet
EndChar

StartChar: ring.cap
Encoding: 65543 -1 306
Width: 566
Flags: HW
LayerCount: 2
Fore
SplineSet
38 1757.5 m 0,0,1
 38 1808 38 1808 57.5 1852 c 128,-1,2
 77 1896 77 1896 110 1929 c 0,3,4
 181 2000 181 2000 283 2000 c 0,5,6
 383 2000 383 2000 454 1929 c 0,7,8
 526 1857 526 1857 526 1758 c 0,9,10
 526 1657 526 1657 454 1585 c 128,-1,11
 382 1513 382 1513 283 1513 c 0,12,13
 182 1513 182 1513 110 1585 c 128,-1,14
 38 1657 38 1657 38 1757.5 c 0,0,1
154.5 1813 m 128,-1,16
 144 1787 144 1787 144 1757.5 c 128,-1,17
 144 1728 144 1728 154.5 1701 c 128,-1,18
 165 1674 165 1674 183.5 1654.5 c 0,19,20
 223.821 1612 223.821 1612 267.91 1612 c 128,-1,21
 312 1612 312 1612 337 1623.5 c 128,-1,22
 362 1635 362 1635 380.5 1654.5 c 0,23,24
 420 1696.14 420 1696.14 420 1741.57 c 128,-1,25
 420 1787 420 1787 409.5 1813 c 128,-1,26
 399 1839 399 1839 380.5 1858.5 c 0,27,28
 340.179 1901 340.179 1901 296.59 1901 c 128,-1,29
 253 1901 253 1901 227.5 1889.5 c 128,-1,30
 202 1878 202 1878 183.5 1858.5 c 128,-1,15
 165 1839 165 1839 154.5 1813 c 128,-1,16
EndSplineSet
EndChar

StartChar: tilde.cap
Encoding: 65544 -1 307
Width: 566
Flags: HW
LayerCount: 2
Fore
SplineSet
125 1821 m 0,0,1
 50.4762 1821 50.4762 1821 -21 1742 c 1,2,-1
 -70 1772 l 1,3,4
 -8.7381 1860.93 -8.7381 1860.93 66.5 1909.5 c 0,5,6
 106 1935 106 1935 148 1935 c 256,7,8
 202.515 1935 202.515 1935 272.758 1904.5 c 128,-1,9
 343 1874 343 1874 380.5 1860 c 128,-1,10
 418 1846 418 1846 457 1846 c 0,11,12
 530.136 1846 530.136 1846 584 1925 c 1,13,-1
 638 1900 l 1,14,15
 586.39 1806.71 586.39 1806.71 515.5 1758.5 c 0,16,17
 478 1733 478 1733 435 1733 c 128,-1,18
 392 1733 392 1733 352.5 1746.5 c 128,-1,19
 313 1760 313 1760 275 1776.5 c 0,20,21
 172.515 1821 172.515 1821 125 1821 c 0,0,1
EndSplineSet
EndChar

StartChar: caronvertical
Encoding: 65545 -1 309
Width: 544
Flags: HW
LayerCount: 2
Fore
SplineSet
192 1083 m 0,0,1
 251 1166.14 251 1166.14 251 1249 c 0,2,3
 251 1294 251 1294 236 1310.5 c 128,-1,4
 221 1327 221 1327 203 1340 c 128,-1,5
 185 1353 185 1353 170 1367 c 128,-1,6
 155 1381 155 1381 155 1400 c 128,-1,7
 155 1419 155 1419 167 1441 c 128,-1,8
 179 1463 179 1463 197.5 1483.5 c 0,9,10
 242.171 1533 242.171 1533 287 1533 c 0,11,12
 324.263 1533 324.263 1533 359 1489 c 0,13,14
 392 1447.2 392 1447.2 392 1395.1 c 128,-1,15
 392 1343 392 1343 382 1292.5 c 128,-1,16
 372 1242 372 1242 356 1200 c 0,17,18
 296.174 1042.96 296.174 1042.96 165 968 c 1,19,-1
 134 1022 l 1,20,21
 166 1047 166 1047 192 1083 c 0,0,1
EndSplineSet
EndChar

StartChar: hungarumlaut.cap
Encoding: 65546 -1 310
Width: 566
Flags: HW
LayerCount: 2
Fore
SplineSet
401 1951 m 1,0,-1
 56 1631 l 1,1,-1
 9 1670 l 1,2,-1
 251 2000 l 1,3,-1
 401 1951 l 1,0,-1
783 1951 m 1,4,-1
 423 1631 l 1,5,-1
 376 1670 l 1,6,-1
 618 2000 l 1,7,-1
 783 1951 l 1,4,-1
EndSplineSet
EndChar

StartChar: breve.cap
Encoding: 65547 -1 311
Width: 566
Flags: HW
LayerCount: 2
Fore
SplineSet
281 1806 m 0,0,1
 441.244 1806 441.244 1806 497 1999 c 1,2,-1
 580 1983 l 1,3,4
 562.526 1871.6 562.526 1871.6 483 1788 c 0,5,6
 395.488 1696 395.488 1696 283 1696 c 0,7,8
 156.8 1696 156.8 1696 76.5 1784 c 0,9,10
 7.89994 1859.18 7.89994 1859.18 -12 1983 c 1,11,-1
 72 1999 l 1,12,13
 99.1169 1863.42 99.1169 1863.42 199.5 1821 c 0,14,15
 235 1806 235 1806 281 1806 c 0,0,1
EndSplineSet
EndChar

StartChar: macron.cap
Encoding: 65548 -1 312
Width: 566
Flags: HW
LayerCount: 2
Fore
SplineSet
9 1894 m 1,0,-1
 586 1896 l 1,1,-1
 558 1766 l 1,2,-1
 -18 1766 l 1,3,-1
 9 1894 l 1,0,-1
EndSplineSet
EndChar

StartChar: kgreenlandic
Encoding: 312 312 316
Width: 1193
Flags: HW
LayerCount: 2
Fore
SplineSet
365 106 m 1,0,-1
 492 83 l 1,1,-1
 492 0 l 1,2,-1
 72 0 l 1,3,-1
 72 83 l 1,4,-1
 202 106 l 1,5,-1
 202 811 l 1,6,-1
 72 834 l 1,7,-1
 72 917 l 1,8,-1
 365 989 l 1,9,-1
 365 106 l 1,0,-1
800 885 m 1,10,-1
 711 906 l 1,11,-1
 711 989 l 1,12,-1
 1112 989 l 1,13,-1
 1112 906 l 1,14,-1
 956 883 l 1,15,-1
 553 511 l 1,16,-1
 953 132 l 1,17,-1
 1018 99 l 1,18,-1
 1126 83 l 1,19,-1
 1126 0 l 1,20,-1
 845 0 l 1,21,-1
 373 485 l 1,22,-1
 800 885 l 1,10,-1
EndSplineSet
EndChar

StartChar: dotaccent.cap
Encoding: 65549 -1 320
Width: 566
Flags: HW
LayerCount: 2
Fore
SplineSet
168 1834 m 128,-1,1
 158 1856 158 1856 158 1877.5 c 128,-1,2
 158 1899 158 1899 168 1920.5 c 128,-1,3
 178 1942 178 1942 194.5 1960 c 0,4,5
 231.167 2000 231.167 2000 261.583 2000 c 128,-1,6
 292 2000 292 2000 313.5 1989 c 128,-1,7
 335 1978 335 1978 351.5 1960 c 0,8,9
 389 1919.09 389 1919.09 389 1887.55 c 128,-1,10
 389 1856 389 1856 378.5 1834 c 128,-1,11
 368 1812 368 1812 351.5 1794.5 c 0,12,13
 314.257 1755 314.257 1755 282.629 1755 c 128,-1,14
 251 1755 251 1755 231 1766 c 128,-1,15
 211 1777 211 1777 194.5 1794.5 c 128,-1,0
 178 1812 178 1812 168 1834 c 128,-1,1
EndSplineSet
EndChar

StartChar: cedilla.cap
Encoding: 65550 -1 321
Width: 629
Flags: HW
LayerCount: 2
Fore
SplineSet
373 9 m 1,0,-1
 306 -135 l 1,1,2
 451.136 -135 451.136 -135 512.5 -225 c 0,3,4
 535 -258 535 -258 535 -299.5 c 0,5,6
 535 -370.912 535 -370.912 454 -440 c 1,7,8
 355 -528 355 -528 292 -528 c 0,9,10
 186.368 -528 186.368 -528 94 -463 c 1,11,-1
 128 -337 l 1,12,-1
 167 -337 l 1,13,14
 167 -400.111 167 -400.111 254.5 -421.5 c 0,15,16
 277 -427 277 -427 300 -427 c 0,17,18
 365.318 -427 365.318 -427 387.659 -404 c 128,-1,19
 410 -381 410 -381 413 -362.5 c 128,-1,20
 416 -344 416 -344 416 -319 c 128,-1,21
 416 -294 416 -294 401 -272 c 128,-1,22
 386 -250 386 -250 358.5 -235 c 0,23,24
 305.7 -206.2 305.7 -206.2 207 -202 c 1,25,-1
 189 -158 l 1,26,-1
 310 31 l 1,27,-1
 373 9 l 1,0,-1
EndSplineSet
EndChar

StartChar: commaaccent.cap
Encoding: 65551 -1 322
Width: 566
Flags: HW
LayerCount: 2
Fore
SplineSet
234 -462 m 0,0,1
 299 -402.417 299 -402.417 299 -340.5 c 0,2,3
 299 -305 299 -305 281 -289 c 128,-1,4
 263 -273 263 -273 241.5 -260 c 128,-1,5
 220 -247 220 -247 202 -233 c 128,-1,6
 184 -219 184 -219 184 -199.5 c 128,-1,7
 184 -180 184 -180 195.5 -158 c 128,-1,8
 207 -136 207 -136 226 -115 c 0,9,10
 271.238 -65 271.238 -65 315 -65 c 0,11,12
 353.641 -65 353.641 -65 384.82 -97 c 0,13,14
 440 -153.632 440 -153.632 440 -199.816 c 128,-1,15
 440 -246 440 -246 429.5 -289 c 128,-1,16
 419 -332 419 -332 402.5 -367.5 c 0,17,18
 374.304 -428.165 374.304 -428.165 320.652 -479.082 c 128,-1,19
 267 -530 267 -530 200 -560 c 1,20,-1
 169 -505 l 1,21,22
 205 -488 205 -488 234 -462 c 0,0,1
EndSplineSet
EndChar

StartChar: dcaron
Encoding: 271 271 323
Width: 1537
Flags: HW
LayerCount: 2
Fore
SplineSet
1227 1083 m 0,0,1
 1286 1166.14 1286 1166.14 1286 1249 c 0,2,3
 1286 1294 1286 1294 1271 1310.5 c 128,-1,4
 1256 1327 1256 1327 1238 1340 c 128,-1,5
 1220 1353 1220 1353 1205 1367 c 128,-1,6
 1190 1381 1190 1381 1190 1400 c 128,-1,7
 1190 1419 1190 1419 1202 1441 c 128,-1,8
 1214 1463 1214 1463 1232.5 1483.5 c 0,9,10
 1277.17 1533 1277.17 1533 1322 1533 c 0,11,12
 1359.26 1533 1359.26 1533 1394 1489 c 0,13,14
 1427 1447.2 1427 1447.2 1427 1395.1 c 128,-1,15
 1427 1343 1427 1343 1417 1292.5 c 128,-1,16
 1407 1242 1407 1242 1391 1200 c 0,17,18
 1331.17 1042.96 1331.17 1042.96 1200 968 c 1,19,-1
 1169 1022 l 1,20,21
 1201 1047 1201 1047 1227 1083 c 0,0,1
599.605 1013 m 0,22,23
 725.211 1013 725.211 1013 849 964 c 1,24,-1
 849 1477 l 1,25,-1
 696 1508 l 1,26,-1
 696 1589 l 1,27,-1
 1011 1663 l 1,28,-1
 1011 160 l 2,29,30
 1011 115 1011 115 1061.61 115 c 128,-1,31
 1112.22 115 1112.22 115 1188 146 c 1,32,-1
 1209 52 l 1,33,34
 1066.14 -23 1066.14 -23 995 -23 c 0,35,36
 891.596 -23 891.596 -23 860 44.5 c 0,37,38
 849 68 849 68 849 101 c 1,39,40
 773.593 35.0185 773.593 35.0185 688.796 6.00926 c 128,-1,41
 604 -23 604 -23 512.5 -23 c 128,-1,42
 421 -23 421 -23 336 12 c 128,-1,43
 251 47 251 47 194.5 111.5 c 0,44,45
 83 238.788 83 238.788 83 471 c 0,46,47
 83 692.58 83 692.58 213.5 844 c 0,48,49
 359.151 1013 359.151 1013 599.605 1013 c 0,22,23
599.611 117 m 0,50,51
 701.222 117 701.222 117 849 212 c 1,52,-1
 849 780 l 1,53,54
 762.75 895 762.75 895 575 895 c 0,55,56
 429.972 895 429.972 895 340.5 777.5 c 0,57,58
 256 666.53 256 666.53 256 492 c 0,59,60
 256 333.074 256 333.074 335.5 231 c 0,61,62
 424.288 117 424.288 117 599.611 117 c 0,50,51
EndSplineSet
EndChar

StartChar: lcaron
Encoding: 318 318 324
Width: 856
Flags: HW
LayerCount: 2
Fore
SplineSet
567 1083 m 0,0,1
 626 1166.14 626 1166.14 626 1249 c 0,2,3
 626 1294 626 1294 611 1310.5 c 128,-1,4
 596 1327 596 1327 578 1340 c 128,-1,5
 560 1353 560 1353 545 1367 c 128,-1,6
 530 1381 530 1381 530 1400 c 128,-1,7
 530 1419 530 1419 542 1441 c 128,-1,8
 554 1463 554 1463 572.5 1483.5 c 0,9,10
 617.171 1533 617.171 1533 662 1533 c 0,11,12
 699.263 1533 699.263 1533 734 1489 c 0,13,14
 767 1447.2 767 1447.2 767 1395.1 c 128,-1,15
 767 1343 767 1343 757 1292.5 c 128,-1,16
 747 1242 747 1242 731 1200 c 0,17,18
 671.174 1042.96 671.174 1042.96 540 968 c 1,19,-1
 509 1022 l 1,20,21
 541 1047 541 1047 567 1083 c 0,0,1
335 106 m 1,22,-1
 463 83 l 1,23,-1
 463 0 l 1,24,-1
 43 0 l 1,25,-1
 43 83 l 1,26,-1
 173 106 l 1,27,-1
 173 1483 l 1,28,-1
 43 1508 l 1,29,-1
 43 1589 l 1,30,-1
 335 1663 l 1,31,-1
 335 106 l 1,22,-1
EndSplineSet
EndChar

StartChar: Lcaron
Encoding: 317 317 325
Width: 1194
Flags: HW
LayerCount: 2
Fore
SplineSet
803 1083 m 0,0,1
 862 1166.14 862 1166.14 862 1249 c 0,2,3
 862 1294 862 1294 847 1310.5 c 128,-1,4
 832 1327 832 1327 814 1340 c 128,-1,5
 796 1353 796 1353 781 1367 c 128,-1,6
 766 1381 766 1381 766 1400 c 128,-1,7
 766 1419 766 1419 778 1441 c 128,-1,8
 790 1463 790 1463 808.5 1483.5 c 0,9,10
 853.171 1533 853.171 1533 898 1533 c 0,11,12
 935.263 1533 935.263 1533 970 1489 c 0,13,14
 1003 1447.2 1003 1447.2 1003 1395.1 c 128,-1,15
 1003 1343 1003 1343 993 1292.5 c 128,-1,16
 983 1242 983 1242 967 1200 c 0,17,18
 907.174 1042.96 907.174 1042.96 776 968 c 1,19,-1
 745 1022 l 1,20,21
 777 1047 777 1047 803 1083 c 0,0,1
562 1508 m 1,22,-1
 562 1423 l 1,23,-1
 412 1400 l 1,24,-1
 412 120 l 1,25,-1
 960 120 l 1,26,-1
 1019 344 l 1,27,-1
 1101 344 l 1,28,-1
 1092 0 l 1,29,-1
 72 0 l 1,30,-1
 72 85 l 1,31,-1
 224 108 l 1,32,-1
 224 1400 l 1,33,-1
 72 1423 l 1,34,-1
 72 1508 l 1,35,-1
 562 1508 l 1,22,-1
EndSplineSet
EndChar

StartChar: tcaron
Encoding: 357 357 326
Width: 1022
Flags: HW
LayerCount: 2
Fore
SplineSet
778 1083 m 0,0,1
 837 1166.14 837 1166.14 837 1249 c 0,2,3
 837 1294 837 1294 822 1310.5 c 128,-1,4
 807 1327 807 1327 789 1340 c 128,-1,5
 771 1353 771 1353 756 1367 c 128,-1,6
 741 1381 741 1381 741 1400 c 128,-1,7
 741 1419 741 1419 753 1441 c 128,-1,8
 765 1463 765 1463 783.5 1483.5 c 0,9,10
 828.171 1533 828.171 1533 873 1533 c 0,11,12
 910.263 1533 910.263 1533 945 1489 c 0,13,14
 978 1447.2 978 1447.2 978 1395.1 c 128,-1,15
 978 1343 978 1343 968 1292.5 c 128,-1,16
 958 1242 958 1242 942 1200 c 0,17,18
 882.174 1042.96 882.174 1042.96 751 968 c 1,19,-1
 720 1022 l 1,20,21
 752 1047 752 1047 778 1083 c 0,0,1
335 306 m 2,22,23
 335 106 335 106 497.25 106 c 0,24,25
 581.5 106 581.5 106 662 176 c 1,26,-1
 716 110 l 1,27,28
 631.066 39.8375 631.066 39.8375 559.033 8.41873 c 128,-1,29
 487 -23 487 -23 432 -23 c 128,-1,30
 377 -23 377 -23 325.5 1 c 128,-1,31
 274 25 274 25 240 69.5 c 0,32,33
 173 157.191 173 157.191 173 317 c 2,34,-1
 173 872 l 1,35,-1
 46 872 l 1,36,-1
 46 959 l 1,37,-1
 173 989 l 1,38,-1
 173 1123 l 1,39,-1
 291 1241 l 1,40,-1
 335 1241 l 1,41,-1
 335 989 l 1,42,-1
 665 989 l 1,43,-1
 665 872 l 1,44,-1
 335 872 l 1,45,-1
 335 306 l 2,22,23
EndSplineSet
EndChar

StartChar: Eogonek
Encoding: 280 280 403
Width: 1196
Flags: HW
LayerCount: 2
Fore
SplineSet
1077 -396 m 1,0,1
 1026.09 -436 1026.09 -436 932 -436 c 0,2,3
 851.621 -436 851.621 -436 813.81 -414.5 c 128,-1,4
 776 -393 776 -393 750 -364.5 c 0,5,6
 701 -310.788 701 -310.788 701 -251.394 c 128,-1,7
 701 -192 701 -192 715.5 -151 c 128,-1,8
 730 -110 730 -110 750.5 -76 c 0,9,10
 793.798 -4.18903 793.798 -4.18903 834 10 c 2,11,-1
 944 50 l 1,12,13
 854 -61.4286 854 -61.4286 854 -198 c 0,14,15
 854 -301 854 -301 921 -301 c 0,16,17
 952.556 -301 952.556 -301 969.778 -285.5 c 0,18,19
 997 -261 997 -261 997 -239 c 1,20,-1
 1038 -239 l 1,21,-1
 1077 -396 l 1,0,1
790 723 m 1,22,-1
 422 723 l 1,23,-1
 422 120 l 1,24,-1
 979 120 l 1,25,-1
 1051 297 l 1,26,-1
 1127 297 l 1,27,-1
 1094 0 l 1,28,-1
 82 0 l 1,29,-1
 82 85 l 1,30,-1
 234 108 l 1,31,-1
 234 1400 l 1,32,-1
 82 1423 l 1,33,-1
 82 1508 l 1,34,-1
 1050 1508 l 1,35,-1
 1073 1211 l 1,36,-1
 985 1211 l 1,37,-1
 931 1387 l 1,38,-1
 422 1387 l 1,39,-1
 422 843 l 1,40,-1
 790 843 l 1,41,-1
 820 949 l 1,42,-1
 891 949 l 1,43,-1
 891 618 l 1,44,-1
 820 618 l 1,45,-1
 790 723 l 1,22,-1
EndSplineSet
EndChar

StartChar: Aogonek
Encoding: 260 260 404
Width: 1537
Flags: HW
LayerCount: 2
Fore
SplineSet
1491 -396 m 1,0,1
 1440.09 -436 1440.09 -436 1346 -436 c 0,2,3
 1190 -436 1190 -436 1134 -324 c 0,4,5
 1115 -286 1115 -286 1115 -239 c 128,-1,6
 1115 -192 1115 -192 1129.5 -151 c 128,-1,7
 1144 -110 1144 -110 1164.5 -76 c 0,8,9
 1207.8 -4.18893 1207.8 -4.18893 1248 10 c 1,10,11
 1257.59 36.3862 1257.59 36.3862 1350 71.5 c 1,12,-1
 1399 91 l 1,13,14
 1299.24 -14.8112 1299.24 -14.8112 1270 -135 c 0,15,16
 1261 -172 1261 -172 1261 -203 c 0,17,18
 1261 -301 1261 -301 1335 -301 c 0,19,20
 1366.56 -301 1366.56 -301 1383.78 -285.5 c 0,21,22
 1411 -261 1411 -261 1411 -239 c 1,23,-1
 1452 -239 l 1,24,-1
 1491 -396 l 1,0,1
1058 85 m 1,25,-1
 1196 108 l 1,26,-1
 1038 497 l 1,27,-1
 438 497 l 1,28,-1
 281 108 l 1,29,-1
 422 85 l 1,30,-1
 422 0 l 1,31,-1
 -7 0 l 1,32,-1
 -7 85 l 1,33,-1
 151 108 l 1,34,-1
 676 1406 l 1,35,-1
 634 1505 l 1,36,-1
 796 1573 l 1,37,-1
 1394 108 l 1,38,-1
 1555 85 l 1,39,-1
 1555 0 l 1,40,-1
 1058 0 l 1,41,-1
 1058 85 l 1,25,-1
485 618 m 1,42,-1
 994 618 l 1,43,-1
 739 1260 l 1,44,-1
 485 618 l 1,42,-1
EndSplineSet
EndChar

StartChar: aogonek
Encoding: 261 261 405
Width: 1025
Flags: HW
LayerCount: 2
Fore
SplineSet
1045 -396 m 1,0,1
 994.091 -436 994.091 -436 900 -436 c 0,2,3
 744 -436 744 -436 688 -324 c 0,4,5
 669 -286 669 -286 669 -239 c 128,-1,6
 669 -192 669 -192 683.5 -151 c 128,-1,7
 698 -110 698 -110 718.5 -76 c 0,8,9
 761.798 -4.18903 761.798 -4.18903 802 10 c 1,10,11
 811.595 36.386 811.595 36.386 904 71.5 c 1,12,-1
 953 91 l 1,13,14
 881 9 881 9 845.5 -70 c 128,-1,15
 810 -149 810 -149 810 -206 c 0,16,17
 810 -301 810 -301 889 -301 c 0,18,19
 920.556 -301 920.556 -301 937.778 -285.5 c 0,20,21
 965 -261 965 -261 965 -239 c 1,22,-1
 1006 -239 l 1,23,-1
 1045 -396 l 1,0,1
1019 52 m 1,24,25
 872.571 -23 872.571 -23 807.786 -23 c 0,26,27
 662 -23 662 -23 662 101 c 2,28,-1
 662 132 l 1,29,30
 647.905 110.857 647.905 110.857 585.452 70.9286 c 128,-1,31
 523 31 523 31 488 15 c 0,32,33
 404.875 -23 404.875 -23 361.938 -23 c 128,-1,34
 319 -23 319 -23 291 -19.5 c 128,-1,35
 263 -16 263 -16 233 -6 c 128,-1,36
 203 4 203 4 174 22 c 128,-1,37
 145 40 145 40 122 69 c 0,38,39
 71 133.304 71 133.304 71 236 c 0,40,41
 71 377.879 71 377.879 172 434.5 c 0,42,43
 236.498 470.658 236.498 470.658 307.749 479.829 c 128,-1,44
 379 489 379 489 437.5 494 c 0,45,46
 550.026 503.618 550.026 503.618 662 506 c 1,47,-1
 662 716 l 2,48,49
 662 803.219 662 803.219 640.5 832.109 c 0,50,51
 602.628 883 602.628 883 524.814 883 c 0,52,53
 350.677 883 350.677 883 183 770 c 1,54,-1
 125 857 l 1,55,56
 359 1013 359 1013 544 1013 c 0,57,58
 705.099 1013 705.099 1013 772.5 923.5 c 0,59,60
 824 855.115 824 855.115 824 728 c 2,61,-1
 824 202 l 2,62,63
 824 127.667 824 127.667 851.5 118.5 c 0,64,65
 862 115 862 115 878 115 c 256,66,67
 918.333 115 918.333 115 1001 146 c 1,68,-1
 1019 52 l 1,24,25
662 422 m 1,69,70
 377.857 411.071 377.857 411.071 298 365 c 0,71,72
 237 329.808 237 329.808 237 252 c 0,73,74
 237 139.064 237 139.064 324.5 113 c 0,75,76
 348 106 348 106 382.5 106 c 128,-1,77
 417 106 417 106 463 120 c 128,-1,78
 509 134 509 134 548.5 153.5 c 0,79,80
 622.194 189.881 622.194 189.881 662 224 c 1,81,-1
 662 422 l 1,69,70
EndSplineSet
EndChar

StartChar: eogonek
Encoding: 281 281 406
Width: 1025
Flags: HW
LayerCount: 2
Fore
SplineSet
919 -396 m 1,0,1
 868.091 -436 868.091 -436 774 -436 c 0,2,3
 681.68 -436 681.68 -436 617 -387 c 0,4,5
 543 -330.939 543 -330.939 543 -235 c 0,6,7
 543 -158.098 543 -158.098 592.5 -76 c 0,8,9
 635.798 -4.18903 635.798 -4.18903 676 10 c 1,10,11
 685.595 36.386 685.595 36.386 778 71.5 c 1,12,-1
 827 91 l 1,13,14
 725.962 -7.15093 725.962 -7.15093 695 -131 c 0,15,16
 686 -167 686 -167 686 -205.5 c 128,-1,17
 686 -244 686 -244 705.5 -272.5 c 128,-1,18
 725 -301 725 -301 753 -301 c 128,-1,19
 781 -301 781 -301 795 -294.5 c 128,-1,20
 809 -288 809 -288 819 -279 c 0,21,22
 839 -261 839 -261 839 -239 c 1,23,-1
 880 -239 l 1,24,-1
 919 -396 l 1,0,1
882 229 m 1,25,-1
 939 164 l 1,26,27
 779.926 21.1034 779.926 21.1034 631 -15 c 0,28,29
 598 -23 598 -23 566 -23 c 0,30,31
 346 -23 346 -23 207.5 115.5 c 0,32,33
 71 252 71 252 71 471 c 0,34,35
 71 689.008 71 689.008 200.5 844 c 0,36,37
 341.704 1013 341.704 1013 569 1013 c 0,38,39
 726.128 1013 726.128 1013 834.5 900.5 c 0,40,41
 949 781.638 949 781.638 949 593 c 1,42,-1
 902 551 l 1,43,-1
 250 504 l 1,44,45
 251.86 321.712 251.86 321.712 368.5 213 c 0,46,47
 471.5 117 471.5 117 609.911 117 c 128,-1,48
 748.323 117 748.323 117 882 229 c 1,25,-1
257 598 m 1,49,-1
 771 645 l 1,50,51
 763.609 811.293 763.609 811.293 643 873 c 0,52,53
 600 895 600 895 533 895 c 128,-1,54
 466 895 466 895 413.5 862 c 128,-1,55
 361 829 361 829 327 782 c 0,56,57
 262.412 692.717 262.412 692.717 257 598 c 1,49,-1
EndSplineSet
EndChar

StartChar: Uogonek
Encoding: 370 370 407
Width: 1537
Flags: HW
LayerCount: 2
Fore
SplineSet
1093 -396 m 1,0,1
 1023.91 -436 1023.91 -436 928 -436 c 0,2,3
 762.8 -436 762.8 -436 704 -338 c 0,4,5
 686 -308 686 -308 686 -263.5 c 128,-1,6
 686 -219 686 -219 710.5 -174 c 128,-1,7
 735 -129 735 -129 774 -90.5 c 0,8,9
 858.783 -6.80436 858.783 -6.80436 958 18 c 1,10,11
 1017 18 1017 18 1071 45 c 1,12,-1
 1111 46 l 1,13,14
 997.64 -4.1756 997.64 -4.1756 922.5 -95.5 c 0,15,16
 856 -176.323 856 -176.323 856 -238.662 c 128,-1,17
 856 -301 856 -301 917 -301 c 0,18,19
 949.5 -301 949.5 -301 972.75 -285.5 c 0,20,21
 1013 -258.667 1013 -258.667 1013 -239 c 1,22,-1
 1054 -239 l 1,23,-1
 1093 -396 l 1,0,1
789 -23 m 0,24,25
 190 -23 190 -23 190 541 c 2,26,-1
 190 1400 l 1,27,-1
 35 1423 l 1,28,-1
 35 1508 l 1,29,-1
 535 1508 l 1,30,-1
 535 1423 l 1,31,-1
 375 1400 l 1,32,-1
 375 571 l 2,33,34
 375 201.702 375 201.702 609.5 122.5 c 0,35,36
 685 97 685 97 791.5 97 c 128,-1,37
 898 97 898 97 983 124 c 128,-1,38
 1068 151 1068 151 1124 209 c 0,39,40
 1235 323.964 1235 323.964 1235 571 c 2,41,-1
 1235 1400 l 1,42,-1
 1082 1423 l 1,43,-1
 1082 1508 l 1,44,-1
 1501 1508 l 1,45,-1
 1501 1423 l 1,46,-1
 1350 1400 l 1,47,-1
 1350 541 l 2,48,49
 1350 271.042 1350 271.042 1205 124 c 128,-1,50
 1060.04 -23 1060.04 -23 789 -23 c 0,24,25
EndSplineSet
EndChar

StartChar: uogonek
Encoding: 371 371 408
Width: 1194
Flags: HW
LayerCount: 2
Fore
SplineSet
1194 -396 m 1,0,1
 1110.36 -436 1110.36 -436 1041.18 -436 c 128,-1,2
 972 -436 972 -436 930 -424 c 128,-1,3
 888 -412 888 -412 856.5 -387 c 0,4,5
 788 -332.635 788 -332.635 788 -235 c 0,6,7
 788 -158 788 -158 849.5 -76 c 0,8,9
 903.258 -4.32259 903.258 -4.32259 951 10 c 1,10,11
 960.595 36.386 960.595 36.386 1053 71.5 c 1,12,-1
 1102 91 l 1,13,14
 992.99 21.3545 992.99 21.3545 952.5 -123 c 0,15,16
 941 -164 941 -164 941 -199 c 0,17,18
 941 -301 941 -301 1038 -301 c 0,19,20
 1069.56 -301 1069.56 -301 1086.78 -285.5 c 0,21,22
 1114 -261 1114 -261 1114 -239 c 1,23,-1
 1155 -239 l 1,24,-1
 1194 -396 l 1,0,1
1128 42 m 1,25,26
 1018.53 -23 1018.53 -23 954 -23 c 0,27,28
 892.25 -23 892.25 -23 861.625 1.5 c 0,29,30
 808 44.4 808 44.4 808 101 c 2,31,-1
 808 115 l 1,32,33
 721.527 41.6856 721.527 41.6856 629.763 9.3428 c 128,-1,34
 538 -23 538 -23 469 -23 c 0,35,36
 329 -23 329 -23 249.5 53.5 c 128,-1,37
 170 130 170 130 170 285 c 2,38,-1
 170 834 l 1,39,-1
 51 854 l 1,40,-1
 51 942 l 1,41,-1
 332 1013 l 1,42,-1
 332 285 l 2,43,44
 332 194.582 332 194.582 393.5 146.5 c 0,45,46
 445.302 106 445.302 106 514.151 106 c 0,47,48
 626.87 106 626.87 106 726 166 c 1,49,50
 771 192 771 192 808 227 c 1,51,-1
 808 834 l 1,52,-1
 657 854 l 1,53,-1
 657 937 l 1,54,-1
 970 1013 l 1,55,-1
 970 169 l 2,56,57
 970 115 970 115 1024 115 c 0,58,59
 1062 115 1062 115 1107 136 c 1,60,-1
 1128 42 l 1,25,26
EndSplineSet
EndChar

StartChar: Iogonek
Encoding: 302 302 409
Width: 682
Flags: HW
LayerCount: 2
Fore
SplineSet
586 -396 m 1,0,1
 535.091 -436 535.091 -436 441 -436 c 0,2,3
 285 -436 285 -436 229 -324 c 0,4,5
 210 -286 210 -286 210 -239 c 128,-1,6
 210 -192 210 -192 224.5 -151 c 128,-1,7
 239 -110 239 -110 259.5 -76 c 0,8,9
 302.798 -4.18903 302.798 -4.18903 343 10 c 1,10,11
 352.595 36.3861 352.595 36.3861 445 71.5 c 1,12,-1
 494 91 l 1,13,14
 406.551 23.9555 406.551 23.9555 372.5 -123 c 0,15,16
 363 -164 363 -164 363 -199 c 0,17,18
 363 -301 363 -301 430 -301 c 0,19,20
 461.556 -301 461.556 -301 478.778 -285.5 c 0,21,22
 506 -261 506 -261 506 -239 c 1,23,-1
 547 -239 l 1,24,-1
 586 -396 l 1,0,1
96 1508 m 1,25,-1
 586 1508 l 1,26,-1
 586 1423 l 1,27,-1
 435 1400 l 1,28,-1
 435 108 l 1,29,-1
 586 85 l 1,30,-1
 586 0 l 1,31,-1
 96 0 l 1,32,-1
 96 85 l 1,33,-1
 250 108 l 1,34,-1
 250 1400 l 1,35,-1
 96 1423 l 1,36,-1
 96 1508 l 1,25,-1
EndSplineSet
EndChar

StartChar: iogonek
Encoding: 303 303 410
Width: 513
Flags: HW
LayerCount: 2
Fore
SplineSet
490 -396 m 1,0,1
 439.091 -436 439.091 -436 345 -436 c 0,2,3
 189 -436 189 -436 133 -324 c 0,4,5
 114 -286 114 -286 114 -239 c 128,-1,6
 114 -192 114 -192 128.5 -151 c 128,-1,7
 143 -110 143 -110 163.5 -76 c 0,8,9
 206.798 -4.18901 206.798 -4.18901 247 10 c 1,10,11
 256.595 36.3861 256.595 36.3861 349 71.5 c 1,12,-1
 398 91 l 1,13,14
 310.551 23.9555 310.551 23.9555 276.5 -123 c 0,15,16
 267 -164 267 -164 267 -199 c 0,17,18
 267 -301 267 -301 334 -301 c 0,19,20
 365.556 -301 365.556 -301 382.778 -285.5 c 0,21,22
 410 -261 410 -261 410 -239 c 1,23,-1
 451 -239 l 1,24,-1
 490 -396 l 1,0,1
342 106 m 1,25,-1
 470 83 l 1,26,-1
 470 0 l 1,27,-1
 50 0 l 1,28,-1
 50 83 l 1,29,-1
 180 106 l 1,30,-1
 180 834 l 1,31,-1
 50 857 l 1,32,-1
 50 940 l 1,33,-1
 342 1013 l 1,34,-1
 342 106 l 1,25,-1
148 1358 m 128,-1,36
 138 1380 138 1380 138 1401.5 c 128,-1,37
 138 1423 138 1423 148 1444.5 c 128,-1,38
 158 1466 158 1466 174.5 1484 c 0,39,40
 211.167 1524 211.167 1524 241.583 1524 c 128,-1,41
 272 1524 272 1524 293.5 1513 c 128,-1,42
 315 1502 315 1502 331.5 1484 c 0,43,44
 369 1443.09 369 1443.09 369 1411.55 c 128,-1,45
 369 1380 369 1380 358.5 1358 c 128,-1,46
 348 1336 348 1336 331.5 1318.5 c 0,47,48
 294.257 1279 294.257 1279 262.629 1279 c 128,-1,49
 231 1279 231 1279 211 1290 c 128,-1,50
 191 1301 191 1301 174.5 1318.5 c 128,-1,35
 158 1336 158 1336 148 1358 c 128,-1,36
EndSplineSet
EndChar

StartChar: dcroat
Encoding: 273 273 411
Width: 1196
Flags: HW
LayerCount: 2
Fore
SplineSet
593 1335 m 1,0,-1
 1132 1335 l 1,1,-1
 1132 1222 l 1,2,-1
 593 1222 l 1,3,-1
 593 1335 l 1,0,-1
599.605 1013 m 0,4,5
 725.211 1013 725.211 1013 849 964 c 1,6,-1
 849 1477 l 1,7,-1
 696 1508 l 1,8,-1
 696 1589 l 1,9,-1
 1011 1663 l 1,10,-1
 1011 160 l 2,11,12
 1011 115 1011 115 1061.61 115 c 128,-1,13
 1112.22 115 1112.22 115 1188 146 c 1,14,-1
 1209 52 l 1,15,16
 1066.14 -23 1066.14 -23 995 -23 c 0,17,18
 891.596 -23 891.596 -23 860 44.5 c 0,19,20
 849 68 849 68 849 101 c 1,21,22
 773.593 35.0185 773.593 35.0185 688.796 6.00926 c 128,-1,23
 604 -23 604 -23 512.5 -23 c 128,-1,24
 421 -23 421 -23 336 12 c 128,-1,25
 251 47 251 47 194.5 111.5 c 0,26,27
 83 238.788 83 238.788 83 471 c 0,28,29
 83 692.58 83 692.58 213.5 844 c 0,30,31
 359.151 1013 359.151 1013 599.605 1013 c 0,4,5
599.611 117 m 0,32,33
 701.222 117 701.222 117 849 212 c 1,34,-1
 849 780 l 1,35,36
 762.75 895 762.75 895 575 895 c 0,37,38
 429.972 895 429.972 895 340.5 777.5 c 0,39,40
 256 666.53 256 666.53 256 492 c 0,41,42
 256 333.074 256 333.074 335.5 231 c 0,43,44
 424.288 117 424.288 117 599.611 117 c 0,32,33
EndSplineSet
EndChar

StartChar: tbar
Encoding: 359 359 413
Width: 684
Flags: HW
LayerCount: 2
Fore
SplineSet
26 673 m 1,0,-1
 645 673 l 1,1,-1
 645 560 l 1,2,-1
 26 560 l 1,3,-1
 26 673 l 1,0,-1
336 306 m 2,4,5
 336 106 336 106 498.25 106 c 0,6,7
 582.5 106 582.5 106 663 176 c 1,8,-1
 717 110 l 1,9,10
 632.066 39.8375 632.066 39.8375 560.033 8.41873 c 128,-1,11
 488 -23 488 -23 433 -23 c 128,-1,12
 378 -23 378 -23 326.5 1 c 128,-1,13
 275 25 275 25 241 69.5 c 0,14,15
 174 157.191 174 157.191 174 317 c 2,16,-1
 174 872 l 1,17,-1
 47 872 l 1,18,-1
 47 959 l 1,19,-1
 174 989 l 1,20,-1
 174 1123 l 1,21,-1
 292 1241 l 1,22,-1
 336 1241 l 1,23,-1
 336 989 l 1,24,-1
 666 989 l 1,25,-1
 666 872 l 1,26,-1
 336 872 l 1,27,-1
 336 306 l 2,4,5
EndSplineSet
EndChar

StartChar: Tbar
Encoding: 358 358 414
Width: 1537
Flags: HW
LayerCount: 2
Fore
SplineSet
381 828 m 1,0,-1
 1151 830 l 1,1,-1
 1123 702 l 1,2,-1
 354 702 l 1,3,-1
 381 828 l 1,0,-1
1407 1508 m 1,4,-1
 1431 1187 l 1,5,-1
 1341 1187 l 1,6,-1
 1290 1387 l 1,7,-1
 863 1387 l 1,8,-1
 863 108 l 1,9,-1
 1083 85 l 1,10,-1
 1083 0 l 1,11,-1
 458 0 l 1,12,-1
 458 85 l 1,13,-1
 676 108 l 1,14,-1
 676 1387 l 1,15,-1
 251 1387 l 1,16,-1
 197 1187 l 1,17,-1
 109 1187 l 1,18,-1
 133 1508 l 1,19,-1
 1407 1508 l 1,4,-1
EndSplineSet
EndChar

StartChar: Hbar
Encoding: 294 294 415
Width: 1705
Flags: HW
LayerCount: 2
Fore
SplineSet
85 1013 m 1,0,-1
 1653 1014 l 1,1,-1
 1625 884 l 1,2,-1
 58 884 l 1,3,-1
 85 1013 l 1,0,-1
98 1508 m 1,4,-1
 588 1508 l 1,5,-1
 588 1423 l 1,6,-1
 435 1400 l 1,7,-1
 435 655 l 1,8,-1
 1270 655 l 1,9,-1
 1270 1400 l 1,10,-1
 1118 1423 l 1,11,-1
 1118 1508 l 1,12,-1
 1608 1508 l 1,13,-1
 1608 1423 l 1,14,-1
 1457 1400 l 1,15,-1
 1457 108 l 1,16,-1
 1608 85 l 1,17,-1
 1608 0 l 1,18,-1
 1118 0 l 1,19,-1
 1118 85 l 1,20,-1
 1270 108 l 1,21,-1
 1270 535 l 1,22,-1
 435 535 l 1,23,-1
 435 108 l 1,24,-1
 588 85 l 1,25,-1
 588 0 l 1,26,-1
 98 0 l 1,27,-1
 98 85 l 1,28,-1
 250 108 l 1,29,-1
 250 1400 l 1,30,-1
 98 1423 l 1,31,-1
 98 1508 l 1,4,-1
EndSplineSet
EndChar

StartChar: Eng
Encoding: 330 330 416
Width: 1674
Flags: HW
LayerCount: 2
Fore
SplineSet
1441 268 m 1,0,-1
 1441 99 l 2,1,2
 1441 -110.239 1441 -110.239 1321.5 -310 c 0,3,4
 1243.51 -440.364 1243.51 -440.364 1144 -515 c 0,5,6
 1084 -560 1084 -560 1038.5 -560 c 0,7,8
 914.5 -560 914.5 -560 834 -497 c 1,9,-1
 897 -290 l 1,10,-1
 962 -290 l 1,11,12
 962 -346.884 962 -346.884 1015.5 -375.5 c 0,13,14
 1037 -387 1037 -387 1071.5 -387 c 128,-1,15
 1106 -387 1106 -387 1139 -370.5 c 128,-1,16
 1172 -354 1172 -354 1197.5 -319.5 c 0,17,18
 1254 -243.059 1254 -243.059 1254 -108 c 2,19,-1
 1254 268 l 1,20,-1
 1441 268 l 1,0,-1
342 1218 m 1,21,-1
 342 108 l 1,22,-1
 494 85 l 1,23,-1
 494 0 l 1,24,-1
 72 0 l 1,25,-1
 72 85 l 1,26,-1
 227 108 l 1,27,-1
 227 1400 l 1,28,-1
 72 1423 l 1,29,-1
 72 1508 l 1,30,-1
 348 1508 l 1,31,-1
 1324 290 l 1,32,-1
 1324 1400 l 1,33,-1
 1173 1423 l 1,34,-1
 1173 1508 l 1,35,-1
 1592 1508 l 1,36,-1
 1592 1423 l 1,37,-1
 1441 1400 l 1,38,-1
 1441 99 l 1,39,-1
 1317 0 l 1,40,-1
 342 1218 l 1,21,-1
EndSplineSet
EndChar

StartChar: eng
Encoding: 331 331 417
Width: 1225
Flags: HW
LayerCount: 2
Fore
SplineSet
672 883 m 0,0,1
 518.517 883 518.517 883 365 777 c 1,2,-1
 365 106 l 1,3,-1
 492 83 l 1,4,-1
 492 0 l 1,5,-1
 72 0 l 1,6,-1
 72 83 l 1,7,-1
 202 106 l 1,8,-1
 202 834 l 1,9,-1
 72 857 l 1,10,-1
 72 940 l 1,11,-1
 348 1013 l 1,12,-1
 348 883 l 1,13,14
 550.222 1013 550.222 1013 723 1013 c 0,15,16
 931.362 1013 931.362 1013 994 840 c 0,17,18
 1015 782 1015 782 1015 704 c 2,19,-1
 1015 106 l 1,20,-1
 852 106 l 1,21,-1
 852 685 l 2,22,23
 852 883 852 883 672 883 c 0,0,1
639 -404.5 m 0,24,25
 653 -411 653 -411 685 -411 c 128,-1,26
 717 -411 717 -411 751 -397.5 c 128,-1,27
 785 -384 785 -384 807.5 -350.5 c 0,28,29
 852 -284.244 852 -284.244 852 -115 c 2,30,-1
 852 106 l 1,31,-1
 930 170 l 1,32,-1
 1015 106 l 1,33,-1
 1014 92 l 1,34,35
 1014 -90.0698 1014 -90.0698 982.5 -186.035 c 128,-1,36
 951 -282 951 -282 917 -339 c 128,-1,37
 883 -396 883 -396 833.5 -450 c 0,38,39
 732.667 -560 732.667 -560 657 -560 c 0,40,41
 557.857 -560 557.857 -560 502 -537 c 1,42,-1
 556 -350 l 1,43,-1
 596 -350 l 1,44,45
 596 -384.536 596 -384.536 639 -404.5 c 0,24,25
EndSplineSet
EndChar

